# Extracted on 9/8/2020 4:14:50 PM
v 0.450027 2.366478 -1.233521
vn 0 0.7071 0.7071
vt 0.7750001 4
v -0.450027 2.366478 -1.233521
vn 0 0.7071 0.7071
vt 0.275 4
v -0.450027 -1.233522 2.366478
vn 0 0.7071 0.7071
vt 0.275 6
v 0.450027 -1.233522 2.366478
vn 0 0.7071 0.7071
vt 0.7750001 6
v -0.450027 -1.233522 2.366478
vn 0 -1 0
vt 0.275 1
v -0.450027 -1.233521 -1.233522
vn 0 -1 0
vt 0.275 -1
v 0.450027 -1.233521 -1.233522
vn 0 -1 0
vt 0.7750001 -1
v 0.450027 -1.233522 2.366478
vn 0 -1 0
vt 0.7750001 1
v -0.450027 2.366478 -1.233521
vn -1 0 0
vt 0.5 1
v -0.450027 -1.233521 -1.233522
vn -1 0 0
vt -1.5 1
v -0.450027 -1.233522 2.366478
vn -1 0 0
vt -1.5 3
v -0.450027 -1.233521 -1.233522
vn 0 0 -1
vt 0.275 -1.5
v -0.450027 2.366478 -1.233521
vn 0 0 -1
vt 0.275 -3.5
v 0.450027 2.366478 -1.233521
vn 0 0 -1
vt 0.7750001 -3.5
v 0.450027 -1.233521 -1.233522
vn 0 0 -1
vt 0.7750001 -1.5
v 0.450027 -1.233522 2.366478
vn 1 0 0
vt 0.5 1
v 0.450027 -1.233521 -1.233522
vn 1 0 0
vt 0.5 -1
v 0.450027 2.366478 -1.233521
vn 1 0 0
vt 2.5 -1
f 1/1/1 2/2/2 3/3/3
f 1/1/1 3/3/3 4/4/4
f 5/5/5 6/6/6 7/7/7
f 5/5/5 7/7/7 8/8/8
f 9/9/9 10/10/10 11/11/11
f 12/12/12 13/13/13 14/14/14
f 12/12/12 14/14/14 15/15/15
f 16/16/16 17/17/17 18/18/18
