# Extracted on 9/8/2020 4:14:50 PM
v -0.225014 -1.52316 2.97684
vn 0 -1 0
vt 0.2750001 0.5
v -0.225014 -1.52316 -1.52316
vn 0 -1 0
vt 0.2750001 -2
v 0.225014 -1.52316 -1.52316
vn 0 -1 0
vt 0.5250001 -2
v 0.225014 -1.52316 2.97684
vn 0 -1 0
vt 0.5250001 0.5
v -0.225014 2.97684 -1.523161
vn -1 0 0
vt 0 1
v -0.225014 -1.52316 -1.52316
vn -1 0 0
vt -2.5 1
v -0.225014 -1.52316 2.97684
vn -1 0 0
vt -2.5 3.5
v -0.225014 -1.52316 -1.52316
vn 0 0 -1
vt 0.2750001 -1.5
v -0.225014 2.97684 -1.523161
vn 0 0 -1
vt 0.2750001 -4
v 0.225014 2.97684 -1.523161
vn 0 0 -1
vt 0.5250001 -4
v 0.225014 -1.52316 -1.52316
vn 0 0 -1
vt 0.5250001 -1.5
v 0.225014 2.97684 -1.523161
vn 0 0.7071 0.7071
vt 0.5250001 4
v -0.225014 2.97684 -1.523161
vn 0 0.7071 0.7071
vt 0.2750001 4
v -0.225014 -1.52316 2.97684
vn 0 0.7071 0.7071
vt 0.2750001 1.5
v 0.225014 -1.52316 2.97684
vn 0 0.7071 0.7071
vt 0.5250001 1.5
v 0.225014 -1.52316 -1.52316
vn 1 0 0
vt 0.5 1
v 0.225014 2.97684 -1.523161
vn 1 0 0
vt 3 1
v 0.225014 -1.52316 2.97684
vn 1 0 0
vt 0.5 3.5
f 1/1/1 2/2/2 3/3/3
f 1/1/1 3/3/3 4/4/4
f 5/5/5 6/6/6 7/7/7
f 8/8/8 9/9/9 10/10/10
f 8/8/8 10/10/10 11/11/11
f 12/12/12 13/13/13 14/14/14
f 12/12/12 14/14/14 15/15/15
f 16/16/16 17/17/17 18/18/18
