# Extracted on 9/8/2020 4:14:50 PM
v 0.450027 -0.314076 0.585924
vn 0 -1 0
vt 0.775 0.5
v -0.450027 -0.314076 0.585924
vn 0 -1 0
vt 0.275 0.5
v -0.450027 -0.314076 -0.314076
vn 0 -1 0
vt 0.275 0
v 0.450027 -0.314076 -0.314076
vn 0 -1 0
vt 0.775 0
v 0.450027 -0.314076 0.585924
vn 1 0 0
vt 0.5 0.5
v 0.450027 -0.314076 -0.314076
vn 1 0 0
vt 0.5 0
v 0.450027 0.585924 -0.314076
vn 1 0 0
vt 1 0
v -0.450027 -0.314076 0.585924
vn -1 0 0
vt 0.5 0.5
v -0.450027 0.585924 -0.314076
vn -1 0 0
vt 1 0
v -0.450027 -0.314076 -0.314076
vn -1 0 0
vt 0.5 0
v 0.450027 0.585924 -0.314076
vn 0 0 -1
vt 0.775 -1
v 0.450027 -0.314076 -0.314076
vn 0 0 -1
vt 0.775 -0.5
v -0.450027 -0.314076 -0.314076
vn 0 0 -1
vt 0.275 -0.5
v -0.450027 0.585924 -0.314076
vn 0 0 -1
vt 0.275 -1
v -0.450027 -0.314076 0.585924
vn 0 0.7071 0.7071
vt 0.275 4.5
v 0.450027 -0.314076 0.585924
vn 0 0.7071 0.7071
vt 0.775 4.5
v 0.450027 0.585924 -0.314076
vn 0 0.7071 0.7071
vt 0.775 5
v -0.450027 0.585924 -0.314076
vn 0 0.7071 0.7071
vt 0.275 5
f 1/1/1 2/2/2 3/3/3
f 1/1/1 3/3/3 4/4/4
f 5/5/5 6/6/6 7/7/7
f 8/8/8 9/9/9 10/10/10
f 11/11/11 12/12/12 13/13/13
f 11/11/11 13/13/13 14/14/14
f 15/15/15 16/16/16 17/17/17
f 15/15/15 17/17/17 18/18/18
