# Extracted on 9/8/2020 4:14:50 PM
v -0.450027 1.177048 -0.622952
vn -1 0 0
vt 0.5 1
v -0.450027 -0.622952 -0.622952
vn -1 0 0
vt -0.5 1
v -0.450027 -0.622952 1.177048
vn -1 0 0
vt -0.5 2
v 0.450027 1.177048 -0.622952
vn 0 0.7071 0.7071
vt 0.775 4
v -0.450027 1.177048 -0.622952
vn 0 0.7071 0.7071
vt 0.275 4
v -0.450027 -0.622952 1.177048
vn 0 0.7071 0.7071
vt 0.275 5
v 0.450027 -0.622952 1.177048
vn 0 0.7071 0.7071
vt 0.775 5
v 0.450027 -0.622952 -0.622952
vn 1 0 0
vt 0.5 1
v 0.450027 1.177048 -0.622952
vn 1 0 0
vt 1.5 1
v 0.450027 -0.622952 1.177048
vn 1 0 0
vt 0.5 2
v -0.450027 -0.622952 -0.622952
vn 0 0 -1
vt 0.275 -1.5
v -0.450027 1.177048 -0.622952
vn 0 0 -1
vt 0.275 -2.5
v 0.450027 1.177048 -0.622952
vn 0 0 -1
vt 0.775 -2.5
v 0.450027 -0.622952 -0.622952
vn 0 0 -1
vt 0.775 -1.5
v -0.450027 -0.622952 1.177048
vn 0 -1 0
vt 0.275 1
v -0.450027 -0.622952 -0.622952
vn 0 -1 0
vt 0.275 0
v 0.450027 -0.622952 -0.622952
vn 0 -1 0
vt 0.775 0
v 0.450027 -0.622952 1.177048
vn 0 -1 0
vt 0.775 1
f 1/1/1 2/2/2 3/3/3
f 4/4/4 5/5/5 6/6/6
f 4/4/4 6/6/6 7/7/7
f 8/8/8 9/9/9 10/10/10
f 11/11/11 12/12/12 13/13/13
f 11/11/11 13/13/13 14/14/14
f 15/15/15 16/16/16 17/17/17
f 15/15/15 17/17/17 18/18/18
