# Extracted on 9/8/2020 4:14:52 PM
v 0.045003 2.394275 -1.205725
vn 0 0.7071 0.7071
vt -0.025 1
v -0.045003 2.394275 -1.205725
vn 0 0.7071 0.7071
vt 0.025 1
v -0.045003 -1.205725 2.394275
vn 0 0.7071 0.7071
vt 0.025 3
v 0.045003 -1.205725 2.394275
vn 0 0.7071 0.7071
vt -0.025 3
v -0.045003 -1.205725 2.394275
vn 0 -1 0
vt -0.025 3
v -0.045003 -1.205725 -1.205725
vn 0 -1 0
vt -0.025 1
v 0.045003 -1.205725 -1.205725
vn 0 -1 0
vt 0.025 1
v 0.045003 -1.205725 2.394275
vn 0 -1 0
vt 0.025 3
v -0.045003 2.394275 -1.205725
vn -1 0 0
vt 2.25 3
v -0.045003 -1.205725 -1.205725
vn -1 0 0
vt 4.25 3
v -0.045003 -1.205725 2.394275
vn -1 0 0
vt 4.25 5
v -0.045003 -1.205725 -1.205725
vn 0 0 -1
vt -0.025 3
v -0.045003 2.394275 -1.205725
vn 0 0 -1
vt -0.025 5
v 0.045003 2.394275 -1.205725
vn 0 0 -1
vt 0.025 5
v 0.045003 -1.205725 -1.205725
vn 0 0 -1
vt 0.025 3
v 0.045003 -1.205725 2.394275
vn 1 0 0
vt 0 3
v 0.045003 -1.205725 -1.205725
vn 1 0 0
vt 0 1
v 0.045003 2.394275 -1.205725
vn 1 0 0
vt 2 1
f 1/1/1 2/2/2 3/3/3
f 1/1/1 3/3/3 4/4/4
f 5/5/5 6/6/6 7/7/7
f 5/5/5 7/7/7 8/8/8
f 9/9/9 10/10/10 11/11/11
f 12/12/12 13/13/13 14/14/14
f 12/12/12 14/14/14 15/15/15
f 16/16/16 17/17/17 18/18/18
