# Extracted on 9/8/2020 4:14:52 PM
v 0.045003 1.794422 -0.905578
vn 0 0.7071 0.7071
vt -0.275 -1
v -0.045003 1.794422 -0.905578
vn 0 0.7071 0.7071
vt -0.225 -1
v -0.045003 -0.905579 1.794421
vn 0 0.7071 0.7071
vt -0.225 0.5
v 0.045003 -0.905579 1.794421
vn 0 0.7071 0.7071
vt -0.275 0.5
v -0.045003 -0.905579 1.794421
vn 0 -1 0
vt -0.275 0.5
v -0.045003 -0.905579 -0.905579
vn 0 -1 0
vt -0.275 -1
v 0.045003 -0.905579 -0.905579
vn 0 -1 0
vt -0.225 -1
v 0.045003 -0.905579 1.794421
vn 0 -1 0
vt -0.225 0.5
v 0.045003 -0.905579 -0.905579
vn 1 0 0
vt 0 1
v 0.045003 1.794422 -0.905578
vn 1 0 0
vt 1.5 1
v 0.045003 -0.905579 1.794421
vn 1 0 0
vt 0 2.5
v -0.045003 -0.905579 -0.905579
vn 0 0 -1
vt -0.275 1
v -0.045003 1.794422 -0.905578
vn 0 0 -1
vt -0.275 2.5
v 0.045003 1.794422 -0.905578
vn 0 0 -1
vt -0.225 2.5
v 0.045003 -0.905579 -0.905579
vn 0 0 -1
vt -0.225 1
v -0.045003 1.794422 -0.905578
vn -1 0 0
vt 2.25 1
v -0.045003 -0.905579 -0.905579
vn -1 0 0
vt 3.75 1
v -0.045003 -0.905579 1.794421
vn -1 0 0
vt 3.75 2.5
f 1/1/1 2/2/2 3/3/3
f 1/1/1 3/3/3 4/4/4
f 5/5/5 6/6/6 7/7/7
f 5/5/5 7/7/7 8/8/8
f 9/9/9 10/10/10 11/11/11
f 12/12/12 13/13/13 14/14/14
f 12/12/12 14/14/14 15/15/15
f 16/16/16 17/17/17 18/18/18
