# Extracted on 9/8/2020 4:14:49 PM
v 0.045 -0.0002410114 0.259806
vn 0 -0.8664 0.4994
vt 0.1529 1.2598
v -0.045 -0.0002410114 0.25981
vn 0 -0.8664 0.4994
vt 0.2221 1.2598
v -0.045 -0.224898 -0.129902
vn 0 -0.8664 0.4994
vt 0.2221 1
v 0.045 -0.224898 -0.129906
vn 0 -0.8664 0.4994
vt 0.1529 1
v 0.045 -0.224898 -0.129906
vn 0 0 -1
vt 0.3605 1
v -0.045 -0.224898 -0.129902
vn 0 0 -1
vt 0.0146 1
v -0.045 0.225103 -0.129902
vn 0 0 -1
vt 0.0146 1.3
v 0.045 0.225103 -0.129906
vn 0 0 -1
vt 0.3605 1.3
v -0.045 -0.224898 -0.129902
vn -1 0 0
vt 0.1875 1
v -0.045 -0.0002410114 0.25981
vn -1 0 0
vt 0.3373 1.2598
v -0.045 0.225103 -0.129902
vn -1 0 0
vt 0.4875 1
v 0.045 0.225103 -0.129906
vn 0 0.8657 0.5006
vt 0.1529 1
v -0.045 0.225103 -0.129902
vn 0 0.8657 0.5006
vt 0.2221 1
v -0.045 -0.0002410114 0.25981
vn 0 0.8657 0.5006
vt 0.2221 1.2598
v 0.045 -0.0002410114 0.259806
vn 0 0.8657 0.5006
vt 0.1529 1.2598
v 0.045 -0.0002410114 0.259806
vn 1 0 0
vt 0.3373 1.2598
v 0.045 -0.224898 -0.129906
vn 1 0 0
vt 0.1875 1
v 0.045 0.225103 -0.129906
vn 1 0 0
vt 0.4875 1
f 1/1/1 2/2/2 3/3/3
f 1/1/1 3/3/3 4/4/4
f 5/5/5 6/6/6 7/7/7
f 5/5/5 7/7/7 8/8/8
f 9/9/9 10/10/10 11/11/11
f 12/12/12 13/13/13 14/14/14
f 12/12/12 14/14/14 15/15/15
f 16/16/16 17/17/17 18/18/18
