# Extracted on 9/8/2020 4:14:52 PM
v 0.045 -3.006008 5.993992
vn 1 0 0
vt 0 1
v 0.045 -3.006008 -3.006009
vn 1 0 0
vt 0 -4
v 0.045 5.993992 -3.006008
vn 1 0 0
vt 5 -4
v -0.045 -3.006008 5.993992
vn 0 -1 0
vt 0.4749999 1
v -0.045 -3.006008 -3.006009
vn 0 -1 0
vt 0.4749999 -4
v 0.045 -3.006008 -3.006009
vn 0 -1 0
vt 0.5249999 -4
v 0.045 -3.006008 5.993992
vn 0 -1 0
vt 0.5249999 1
v -0.045 -3.006008 5.993992
vn -1 0 0
vt 3.25 1
v -0.045 5.993992 -3.006008
vn -1 0 0
vt -1.75 -4
v -0.045 -3.006008 -3.006009
vn -1 0 0
vt 3.25 -4
v -0.045 5.993992 -3.006008
vn 0 0 -1
vt 0.4749999 1
v 0.045 5.993992 -3.006008
vn 0 0 -1
vt 0.5249999 1
v 0.045 -3.006008 -3.006009
vn 0 0 -1
vt 0.5249999 -4
v -0.045 -3.006008 -3.006009
vn 0 0 -1
vt 0.4749999 -4
v 0.045 -3.006008 5.993992
vn 0 0.7071 0.7071
vt 0.4749999 6
v 0.045 5.993992 -3.006008
vn 0 0.7071 0.7071
vt 0.4749999 1
v -0.045 5.993992 -3.006008
vn 0 0.7071 0.7071
vt 0.5249999 1
v -0.045 -3.006008 5.993992
vn 0 0.7071 0.7071
vt 0.5249999 6
f 1/1/1 2/2/2 3/3/3
f 4/4/4 5/5/5 6/6/6
f 4/4/4 6/6/6 7/7/7
f 8/8/8 9/9/9 10/10/10
f 11/11/11 12/12/12 13/13/13
f 11/11/11 13/13/13 14/14/14
f 15/15/15 16/16/16 17/17/17
f 15/15/15 17/17/17 18/18/18
