# Extracted on 10/7/2020 9:44:02 PM
v -0.09871035 -0.171376 0.3821065
vn -0.4406332 -0.8976874 7.19E-08
vt 0.00211383 0.6733853
v -0.07567063 -0.1826851 0.3821065
vn -0.3205658 -0.9472263 4.47E-08
vt 0.04204805 0.6733853
v -0.09871035 -0.171376 0.5949378
vn -0.4406331 -0.8976873 7.19E-08
vt 0.00211383 0.9921314
v -0.07567063 -0.1826851 0.5949378
vn -0.320566 -0.9472263 7.59E-08
vt 0.04204805 0.9921314
v 2.980232E-08 -0.1977369 0.5949378
vn 2.674E-07 -1 3.16E-08
vt 0.1614871 0.9921314
v 2.980232E-08 -0.1977369 0.3821065
vn 2.523E-07 -1 3.16E-08
vt 0.1614871 0.6733853
v 0.07567067 -0.1826851 0.5949378
vn 0.3194978 -0.947587 1.92E-08
vt 0.2809261 0.9921314
v 0.07567067 -0.1826851 0.3821065
vn 0.3194978 -0.947587 7.59E-08
vt 0.2809261 0.6733853
v 0.09835239 -0.1716151 0.3821065
vn 0.4386078 -0.8986786 6.81E-08
vt 0.3208603 0.6733853
v 0.09835239 -0.1716151 0.5949378
vn 0.4386073 -0.8986788 1.76E-08
vt 0.3208603 0.9921314
f 1/1/1 2/2/2 3/3/3
f 3/3/3 2/2/2 4/4/4
f 4/4/4 2/2/2 5/5/5
f 5/5/5 2/2/2 6/6/6
f 5/5/5 6/6/6 7/7/7
f 7/7/7 6/6/6 8/8/8
f 7/7/7 8/8/8 9/9/9
f 7/7/7 9/9/9 10/10/10
