# Extracted on 10/7/2020 9:44:06 PM
v -1.490116E-08 -0.1126949 0.002704224
vn -2.16E-08 -0.4343242 -0.9007567
vt 0.6230469 0.3183594
v -0.05634743 -0.09759665 0.002704224
vn 0.03968551 -0.3019731 -0.9524901
vt 0.6132813 0.28125
v 0.05634744 -0.09759665 0.002704224
vn -0.03968527 -0.3019733 -0.95249
vt 0.6132813 0.3554688
v 0.1126949 0 0.002704224
vn 0.4343244 -1.01E-08 -0.9007566
vt 0.5449219 0.3964844
v 0.09759663 -0.05634743 0.002704224
vn 0.3019732 0.0396854 -0.95249
vt 0.5820313 0.3867188
v -0.09759662 -0.05634747 0.002704224
vn -0.3019736 0.03968521 -0.95249
vt 0.5820313 0.2539063
v -0.1126949 -1.490116E-08 0.002704224
vn -0.4343243 -3.5E-08 -0.9007566
vt 0.5449219 0.2421875
v -0.05634747 0.09759665 0.002704224
vn 0.03968529 0.3019733 -0.95249
vt 0.4785156 0.28125
v -0.09759663 0.05634744 0.002704224
vn -0.3019733 -0.03968544 -0.95249
vt 0.5078125 0.2539063
v -2.980232E-08 0.1126949 0.002704224
vn -2.91E-08 0.4343242 -0.9007567
vt 0.46875 0.3183594
v 0.05634743 0.09759665 0.002704224
vn -0.03968539 0.3019733 -0.95249
vt 0.4785156 0.3554688
v 0.05634743 0.09759665 0.002704224
vn -0.03968539 0.3019733 -0.95249
vt 0.3828125 0.4472656
v 0.09759663 0.05634746 0.002704224
vn 0.3019733 -0.03968538 -0.95249
vt 0.4257813 0.4472656
v 0.07281497 0.1140642 0.002704224
vn -0.02154821 0.6904624 -0.7230473
vt 0.3828125 0.4609375
v 0.1140642 0.072815 0.002704224
vn 0.6904628 -0.02154903 -0.7230469
vt 0.4257813 0.4609375
v -0.09759663 0.05634744 0.002704224
vn -0.3019733 -0.03968544 -0.95249
vt 0.3828125 0.4472656
v -0.05634747 0.09759665 0.002704224
vn 0.03968529 0.3019733 -0.95249
vt 0.4257813 0.4472656
v -0.114062 0.07281275 0.002704224
vn -0.6904441 -0.02157167 -0.7230641
vt 0.3828125 0.4609375
v -0.07281277 0.114062 0.002704224
vn 0.02157128 0.6904438 -0.7230644
vt 0.4257813 0.4609375
v -0.05634743 -0.09759665 0.002704224
vn 0.03968551 -0.3019731 -0.9524901
vt 0.3828125 0.4472656
v -0.09759662 -0.05634747 0.002704224
vn -0.3019736 0.03968521 -0.95249
vt 0.4257813 0.4472656
v -0.07281584 -0.1140651 0.002704224
vn 0.02154051 -0.6904703 -0.7230399
vt 0.3828125 0.4609375
v -0.1140651 -0.07281593 0.002704224
vn -0.6904697 0.02153829 -0.7230406
vt 0.4257813 0.4609375
v 0.09759663 -0.05634743 0.002704224
vn 0.3019732 0.0396854 -0.95249
vt 0.3828125 0.4472656
v 0.05634744 -0.09759665 0.002704224
vn -0.03968527 -0.3019733 -0.95249
vt 0.4257813 0.4472656
v 0.1140642 -0.07281494 0.002704224
vn 0.6904623 0.02154922 -0.7230474
vt 0.3828125 0.4609375
v 0.07281497 -0.1140642 0.002704224
vn -0.02154826 -0.6904622 -0.7230475
vt 0.4257813 0.4609375
v 0.07281676 0.114066 0.4534838
vn -0.02152007 0.6905416 0.7229725
vt 0.3828125 0.4609375
v 0.114066 0.07281676 0.4534838
vn 0.6905423 -0.02152162 0.7229718
vt 0.4257813 0.4609375
v 0.05634743 0.09759665 0.4534838
vn -0.03970439 0.3020566 0.9524629
vt 0.3828125 0.4472656
v 0.09759663 0.05634746 0.4534838
vn 0.3020566 -0.03970459 0.9524628
vt 0.4257813 0.4472656
v -0.1140637 0.07281454 0.4534838
vn -0.6905231 -0.02154378 0.7229894
vt 0.3828125 0.4609375
v -0.07281455 0.1140638 0.4534838
vn 0.02154357 0.6905232 0.7229893
vt 0.4257813 0.4609375
v -0.09759663 0.05634744 0.4534838
vn -0.3020565 -0.03970444 0.9524629
vt 0.3828125 0.4472656
v -0.05634747 0.09759665 0.4534838
vn 0.03970439 0.3020565 0.9524629
vt 0.4257813 0.4472656
v -0.07281762 -0.1140669 0.4534838
vn 0.02151258 -0.6905495 0.7229652
vt 0.3828125 0.4609375
v -0.1140668 -0.0728177 0.4534838
vn -0.6905488 0.02151059 0.7229658
vt 0.4257813 0.4609375
v -0.05634743 -0.09759665 0.4534838
vn 0.03970451 -0.3020563 0.9524629
vt 0.3828125 0.4472656
v -0.09759662 -0.05634747 0.4534838
vn -0.3020566 0.03970428 0.9524628
vt 0.4257813 0.4472656
v 0.1140659 -0.07281676 0.4534838
vn 0.6905415 0.02152015 0.7229726
vt 0.3828125 0.4609375
v 0.07281674 -0.114066 0.4534838
vn -0.0215203 -0.6905416 0.7229725
vt 0.4257813 0.4609375
v 0.09759663 -0.05634743 0.4534838
vn 0.3020567 0.03970429 0.9524628
vt 0.3828125 0.4472656
v 0.05634744 -0.09759665 0.4534838
vn -0.03970442 -0.3020564 0.9524629
vt 0.4257813 0.4472656
v 0.09759663 0.05634746 0.4534838
vn 0.3020566 -0.03970459 0.9524628
vt 0.5078125 0.3867188
v 0.1126949 0 0.4534838
vn 0.4344442 8.58E-08 0.9006988
vt 0.5449219 0.3964844
v 0.05634743 0.09759665 0.4534838
vn -0.03970439 0.3020566 0.9524629
vt 0.4785156 0.3554688
v 0.05634744 -0.09759665 0.4534838
vn -0.03970442 -0.3020564 0.9524629
vt 0.6132813 0.3554688
v -0.1126949 -1.490116E-08 0.4534838
vn -0.4344439 -6.32E-08 0.9006989
vt 0.5449219 0.2421875
v -0.05634743 -0.09759665 0.4534838
vn 0.03970451 -0.3020563 0.9524629
vt 0.6132813 0.28125
v -0.09759662 -0.05634747 0.4534838
vn -0.3020566 0.03970428 0.9524628
vt 0.5820313 0.2539063
v 0.09759663 -0.05634743 0.4534838
vn 0.3020567 0.03970429 0.9524628
vt 0.5820313 0.3867188
v -2.980232E-08 0.1126949 0.4534838
vn -3.59E-08 0.4344438 0.900699
vt 0.46875 0.3183594
v -0.05634747 0.09759665 0.4534838
vn 0.03970439 0.3020565 0.9524629
vt 0.4785156 0.28125
v -0.09759663 0.05634744 0.4534838
vn -0.3020565 -0.03970444 0.9524629
vt 0.5078125 0.2539063
v 0.1497658 -1.490116E-08 0.4164013
vn 0.9321927 -8.89E-08 0.3619624
vt 0.3417969 0.4277344
v 0.1126949 0 0.4534838
vn 0.4344442 8.58E-08 0.9006988
vt 0.3417969 0.4472656
v 0.129701 -0.07488294 0.4164013
vn 0.8627367 -0.4273502 0.2702909
vt 0.3828125 0.4277344
v 0.09759663 -0.05634743 0.4534838
vn 0.3020567 0.03970429 0.9524628
vt 0.3828125 0.4472656
v 0.1140659 -0.07281676 0.4534838
vn 0.6905415 0.02152015 0.7229726
vt 0.3886719 0.4472656
v 0.07281497 0.1140642 0.002704224
vn -0.02154821 0.6904624 -0.7230473
vt 0.421875 0.2441406
v 0.1140642 0.072815 0.002704224
vn 0.6904628 -0.02154903 -0.7230469
vt 0.3886719 0.2441406
v 0.07488289 0.1297011 0.03976884
vn 0.4273336 0.8627127 -0.2703938
vt 0.4257813 0.2597656
v 0.129701 0.07488295 0.03976884
vn 0.8627126 0.4273338 -0.2703937
vt 0.3828125 0.2597656
v 0.07488291 0.1297011 0.4164013
vn 0.4273501 0.8627368 0.2702909
vt 0.4257813 0.4277344
v 0.129701 0.07488298 0.4164013
vn 0.8627368 0.4273502 0.2702907
vt 0.3828125 0.4277344
v 0.07281676 0.114066 0.4534838
vn -0.02152007 0.6905416 0.7229725
vt 0.421875 0.4472656
v 0.114066 0.07281676 0.4534838
vn 0.6905423 -0.02152162 0.7229718
vt 0.3886719 0.4472656
v 0.07281497 0.1140642 0.002704224
vn -0.02154821 0.6904624 -0.7230473
vt 0.421875 0.2441406
v 0.07488289 0.1297011 0.03976884
vn 0.4273336 0.8627127 -0.2703938
vt 0.4257813 0.2597656
v 0.05634743 0.09759665 0.002704224
vn -0.03968539 0.3019733 -0.95249
vt 0.4257813 0.2441406
v -2.980232E-08 0.1497659 0.03976884
vn 1.7E-09 0.9321535 -0.3620633
vt 0.4628906 0.2597656
v -2.980232E-08 0.1126949 0.002704224
vn -2.91E-08 0.4343242 -0.9007567
vt 0.4628906 0.2441406
v 0.1126949 0 0.4534838
vn 0.4344442 8.58E-08 0.9006988
vt 0.3417969 0.4472656
v 0.1497658 -1.490116E-08 0.4164013
vn 0.9321927 -8.89E-08 0.3619624
vt 0.3417969 0.4277344
v 0.09759663 0.05634746 0.4534838
vn 0.3020566 -0.03970459 0.9524628
vt 0.3828125 0.4472656
v 0.129701 0.07488298 0.4164013
vn 0.8627368 0.4273502 0.2702907
vt 0.3828125 0.4277344
v 0.114066 0.07281676 0.4534838
vn 0.6905423 -0.02152162 0.7229718
vt 0.3886719 0.4472656
v -0.07281277 0.114062 0.002704224
vn 0.02157128 0.6904438 -0.7230644
vt 0.421875 0.2441406
v -0.05634747 0.09759665 0.002704224
vn 0.03968529 0.3019733 -0.95249
vt 0.4257813 0.2441406
v -0.07488295 0.1297011 0.03976884
vn -0.4273418 0.8627037 -0.2704096
vt 0.4257813 0.2597656
v -2.980232E-08 0.1126949 0.002704224
vn -2.91E-08 0.4343242 -0.9007567
vt 0.4628906 0.2441406
v -2.980232E-08 0.1497659 0.03976884
vn 1.7E-09 0.9321535 -0.3620633
vt 0.4628906 0.2597656
v -0.1497659 -2.980232E-08 0.4164013
vn -0.9321926 -4.26E-08 0.3619626
vt 0.3417969 0.4277344
v -0.1126949 -1.490116E-08 0.4534838
vn -0.4344439 -6.32E-08 0.9006989
vt 0.3417969 0.4472656
v -0.1297011 0.07488292 0.4164013
vn -0.8627281 0.4273578 0.2703065
vt 0.3828125 0.4277344
v -0.09759663 0.05634744 0.4534838
vn -0.3020565 -0.03970444 0.9524629
vt 0.3828125 0.4472656
v -0.1140637 0.07281454 0.4534838
vn -0.6905231 -0.02154378 0.7229894
vt 0.3886719 0.4472656
v -0.1126949 -1.490116E-08 0.002704224
vn -0.4343243 -3.5E-08 -0.9007566
vt 0.3417969 0.2441406
v -0.09759663 0.05634744 0.002704224
vn -0.3019733 -0.03968544 -0.95249
vt 0.3828125 0.2441406
v -0.1497659 -1.490116E-08 0.03976884
vn -0.9321536 -6.44E-08 -0.3620632
vt 0.3417969 0.2597656
v -0.1297011 0.07488291 0.03976884
vn -0.862704 0.4273412 -0.2704095
vt 0.3828125 0.2597656
v -0.1297011 0.07488292 0.4164013
vn -0.8627281 0.4273578 0.2703065
vt 0.3828125 0.4277344
v -0.07488295 0.1297011 0.03976884
vn -0.4273418 0.8627037 -0.2704096
vt 0.4257813 0.2597656
v -0.07488298 0.1297011 0.4164013
vn -0.4273582 0.8627278 0.2703066
vt 0.4257813 0.4277344
v -2.980232E-08 0.1497659 0.4164013
vn 7.7E-09 0.9321926 0.3619627
vt 0.4628906 0.4277344
v -0.05634747 0.09759665 0.4534838
vn 0.03970439 0.3020565 0.9524629
vt 0.4257813 0.4472656
v -2.980232E-08 0.1126949 0.4534838
vn -3.59E-08 0.4344438 0.900699
vt 0.4628906 0.4472656
v -0.114062 0.07281275 0.002704224
vn -0.6904441 -0.02157167 -0.7230641
vt 0.3886719 0.2441406
v -0.07281277 0.114062 0.002704224
vn 0.02157128 0.6904438 -0.7230644
vt 0.421875 0.2441406
v -0.1140637 0.07281454 0.4534838
vn -0.6905231 -0.02154378 0.7229894
vt 0.3886719 0.4472656
v -0.07281455 0.1140638 0.4534838
vn 0.02154357 0.6905232 0.7229893
vt 0.421875 0.4472656
v 0.06745504 -0.03830218 0.4579374
vn 0.5466322 0.3155983 0.775623
vt 0.4965667 0.4532453
v 0.06981693 -0.0471169 0.4579374
vn 0.6311966 1.234E-07 0.7756229
vt 0.5080556 0.4562688
v 0.06100222 -0.03184936 0.4579374
vn 0.3155983 0.5466325 0.7756228
vt 0.4874964 0.4435704
v 0.06100222 -0.06238448 0.4579374
vn 0.3155982 -0.5466321 0.7756231
vt 0.5292195 0.4435704
v 0.03455804 -0.04711691 0.4579374
vn -0.6311967 9.72E-08 0.7756229
vt 0.5080556 0.4084988
v 0.04337277 -0.06238447 0.4579374
vn -0.3155982 -0.5466323 0.775623
vt 0.5292195 0.4205925
v 0.03691994 -0.05593164 0.4579374
vn -0.5466323 -0.3155985 0.7756228
vt 0.5195446 0.412127
v 0.06745504 -0.05593164 0.4579374
vn 0.5466322 -0.3155982 0.775623
vt 0.5195446 0.4532453
v 0.06185448 -0.06386061 0.4532454
vn 0.4699519 -0.8139803 0.3414399
vt 0.534727 0.4465157
v 0.06893118 -0.05678389 0.4532454
vn 0.8139807 -0.4699516 0.3414395
vt 0.5225163 0.4587265
v 0.06981693 -0.0471169 0.4579374
vn 0.6311966 1.234E-07 0.7756229
vt 0.5080556 0.4562688
v 0.07152143 -0.04711691 0.4532454
vn 0.9399039 1.509E-07 0.3414394
vt 0.508016 0.4625424
v 0.06745504 -0.03830218 0.4579374
vn 0.5466322 0.3155983 0.775623
vt 0.4965667 0.4532453
v 0.06893118 -0.03744993 0.4532454
vn 0.8139805 0.4699519 0.3414397
vt 0.4935157 0.4587265
v 0.06100222 -0.03184936 0.4579374
vn 0.3155983 0.5466325 0.7756228
vt 0.4874964 0.4435704
v 0.06185445 -0.03037322 0.4532454
vn 0.4699517 0.8139809 0.3414388
vt 0.482068 0.4465157
v 0.05218747 -0.02948746 0.4579374
vn 2.75E-08 0.6311969 0.7756227
vt 0.484473 0.4320815
v 0.05218747 -0.02778295 0.4532454
vn -2.728E-07 0.939904 0.3414388
vt 0.4782522 0.4320154
v 0.04337277 -0.03184936 0.4579374
vn -0.3155986 0.5466324 0.7756227
vt 0.4874964 0.4205925
v 0.04252049 -0.03037322 0.4532454
vn -0.4699522 0.8139806 0.3414388
vt 0.482068 0.4175151
v 0.03691994 -0.03830218 0.4579374
vn -0.5466325 0.3155983 0.7756227
vt 0.4965667 0.412127
v 0.03544378 -0.03744993 0.4532454
vn -0.8139809 0.4699518 0.3414389
vt 0.4935157 0.4068307
v 0.03285353 -0.04711691 0.4532454
vn -0.9399039 1.416E-07 0.3414392
vt 0.508016 0.4022516
v 0.03691994 -0.05593164 0.4579374
vn -0.5466323 -0.3155985 0.7756228
vt 0.5195446 0.412127
v 0.03544378 -0.0567839 0.4532454
vn -0.8139804 -0.4699523 0.3414393
vt 0.5225163 0.4068307
v 0.04337277 -0.06238447 0.4579374
vn -0.3155982 -0.5466323 0.775623
vt 0.5292195 0.4205925
v 0.04252051 -0.06386061 0.4532454
vn -0.4699516 -0.8139806 0.3414396
vt 0.534727 0.4175151
v 0.05218749 -0.06474637 0.4579374
vn -9.34E-08 -0.6311964 0.7756231
vt 0.5322429 0.4320815
v 0.05218749 -0.06645088 0.4532454
vn -1.396E-07 -0.9399036 0.3414401
vt 0.5385429 0.4320154
v 0.05218747 -0.02948746 0.4579374
vn 2.75E-08 0.6311969 0.7756227
vt 0.484473 0.4320815
v 0.1497658 0 0.03976884
vn 0.9321536 5.94E-08 -0.3620632
vt 0.3417969 0.2597656
v 0.1126949 0 0.002704224
vn 0.4343244 -1.01E-08 -0.9007566
vt 0.3417969 0.2441406
v 0.09759663 0.05634746 0.002704224
vn 0.3019733 -0.03968538 -0.95249
vt 0.3828125 0.2441406
v -2.980232E-08 0.1497659 0.4164013
vn 7.7E-09 0.9321926 0.3619627
vt 0.4628906 0.4277344
v -2.980232E-08 0.1126949 0.4534838
vn -3.59E-08 0.4344438 0.900699
vt 0.4628906 0.4472656
v 0.05634743 0.09759665 0.4534838
vn -0.03970439 0.3020566 0.9524629
vt 0.4257813 0.4472656
v -0.1497659 -2.980232E-08 0.4164013
vn -0.9321926 -4.26E-08 0.3619626
vt 0.3417969 0.4277344
v -0.1297011 -0.07488298 0.4164013
vn -0.8627401 -0.4273472 0.2702848
vt 0.3828125 0.4277344
v -0.1497659 -1.490116E-08 0.03976884
vn -0.9321536 -6.44E-08 -0.3620632
vt 0.3417969 0.2597656
v -0.129701 -0.07488294 0.03976884
vn -0.8627161 -0.4273307 -0.2703875
vt 0.3828125 0.2597656
v -0.1126949 -1.490116E-08 0.002704224
vn -0.4343243 -3.5E-08 -0.9007566
vt 0.3417969 0.2441406
v -0.09759662 -0.05634747 0.002704224
vn -0.3019736 0.03968521 -0.95249
vt 0.3828125 0.2441406
v -0.1140651 -0.07281593 0.002704224
vn -0.6904697 0.02153829 -0.7230406
vt 0.3886719 0.2441406
v -0.07281584 -0.1140651 0.002704224
vn 0.02154051 -0.6904703 -0.7230399
vt 0.421875 0.2441406
v -0.07488292 -0.1297011 0.03976884
vn -0.4273306 -0.8627161 -0.2703875
vt 0.4257813 0.2597656
v -0.07488295 -0.1297011 0.4164013
vn -0.4273471 -0.8627402 0.2702846
vt 0.4257813 0.4277344
v -0.07281762 -0.1140669 0.4534838
vn 0.02151258 -0.6905495 0.7229652
vt 0.421875 0.4472656
v -0.1140668 -0.0728177 0.4534838
vn -0.6905488 0.02151059 0.7229658
vt 0.3886719 0.4472656
v 0 -0.1497659 0.03976884
vn 8.06E-08 -0.9321535 -0.3620633
vt 0.4628906 0.2597656
v 0 -0.1497659 0.4164013
vn 6.93E-08 -0.9321926 0.3619626
vt 0.4628906 0.4277344
v -1.490116E-08 -0.1126949 0.4534838
vn 6.5E-09 -0.4344438 0.900699
vt 0.4628906 0.4472656
v -0.05634743 -0.09759665 0.4534838
vn 0.03970451 -0.3020563 0.9524629
vt 0.4257813 0.4472656
v -0.07281584 -0.1140651 0.002704224
vn 0.02154051 -0.6904703 -0.7230399
vt 0.421875 0.2441406
v -0.07488292 -0.1297011 0.03976884
vn -0.4273306 -0.8627161 -0.2703875
vt 0.4257813 0.2597656
v -0.05634743 -0.09759665 0.002704224
vn 0.03968551 -0.3019731 -0.9524901
vt 0.4257813 0.2441406
v -1.490116E-08 -0.1126949 0.002704224
vn -2.16E-08 -0.4343242 -0.9007567
vt 0.4628906 0.2441406
v -0.1126949 -1.490116E-08 0.4534838
vn -0.4344439 -6.32E-08 0.9006989
vt 0.3417969 0.4472656
v -0.09759662 -0.05634747 0.4534838
vn -0.3020566 0.03970428 0.9524628
vt 0.3828125 0.4472656
v -0.1297011 -0.07488298 0.4164013
vn -0.8627401 -0.4273472 0.2702848
vt 0.3828125 0.4277344
v -0.1140668 -0.0728177 0.4534838
vn -0.6905488 0.02151059 0.7229658
vt 0.3886719 0.4472656
v 0.1126949 0 0.002704224
vn 0.4343244 -1.01E-08 -0.9007566
vt 0.3417969 0.2441406
v 0.09759663 -0.05634743 0.002704224
vn 0.3019732 0.0396854 -0.95249
vt 0.3828125 0.2441406
v 0.1497658 0 0.03976884
vn 0.9321536 5.94E-08 -0.3620632
vt 0.3417969 0.2597656
v 0.1297011 -0.07488292 0.03976883
vn 0.8627127 -0.4273336 -0.270394
vt 0.3828125 0.2597656
v 0.129701 -0.07488294 0.4164013
vn 0.8627367 -0.4273502 0.2702909
vt 0.3828125 0.4277344
v 0.07488292 -0.1297011 0.03976883
vn 0.427334 -0.8627124 -0.270394
vt 0.4257813 0.2597656
v 0.07488292 -0.1297011 0.4164013
vn 0.4273504 -0.8627366 0.270291
vt 0.4257813 0.4277344
v 0 -0.1497659 0.03976884
vn 8.06E-08 -0.9321535 -0.3620633
vt 0.4628906 0.2597656
v 0 -0.1497659 0.4164013
vn 6.93E-08 -0.9321926 0.3619626
vt 0.4628906 0.4277344
v 0.05634744 -0.09759665 0.4534838
vn -0.03970442 -0.3020564 0.9524629
vt 0.4257813 0.4472656
v 0.07281674 -0.114066 0.4534838
vn -0.0215203 -0.6905416 0.7229725
vt 0.421875 0.4472656
v 0.1140659 -0.07281676 0.4534838
vn 0.6905415 0.02152015 0.7229726
vt 0.3886719 0.4472656
v 0.07281497 -0.1140642 0.002704224
vn -0.02154826 -0.6904622 -0.7230475
vt 0.421875 0.2441406
v 0.1140642 -0.07281494 0.002704224
vn 0.6904623 0.02154922 -0.7230474
vt 0.3886719 0.2441406
v 0.09759663 0.05634746 0.002704224
vn 0.3019733 -0.03968538 -0.95249
vt 0.5078125 0.3867188
v 0.05634744 -0.09759665 0.4534838
vn -0.03970442 -0.3020564 0.9524629
vt 0.4257813 0.4472656
v -1.490116E-08 -0.1126949 0.4534838
vn 6.5E-09 -0.4344438 0.900699
vt 0.4628906 0.4472656
v -1.490116E-08 -0.1126949 0.4534838
vn 6.5E-09 -0.4344438 0.900699
vt 0.6230469 0.3183594
v -1.490116E-08 -0.1126949 0.002704224
vn -2.16E-08 -0.4343242 -0.9007567
vt 0.4628906 0.2441406
v 0.07488292 -0.1297011 0.03976883
vn 0.427334 -0.8627124 -0.270394
vt 0.4257813 0.2597656
v 0.05634744 -0.09759665 0.002704224
vn -0.03968527 -0.3019733 -0.95249
vt 0.4257813 0.2441406
v 0.07281497 -0.1140642 0.002704224
vn -0.02154826 -0.6904622 -0.7230475
vt 0.421875 0.2441406
v 0.05218749 -0.06474637 0.4579374
vn -9.34E-08 -0.6311964 0.7756231
vt 0.5322429 0.4320815
v -0.05963674 -0.1351531 0.2990686
vn -0.266522 -0.9638289 -1.695E-07
vt 0.1478748 0.1252901
v -1.490116E-08 -0.1516441 0.2990686
vn -4.81252E-05 -1 -1.662E-07
vt 0.2060738 0.1252901
v -0.05963674 -0.1351531 0.4075365
vn -0.2665221 -0.9638288 -1.795E-07
vt 0.1479266 0.2432836
v -2.980232E-08 -0.1516441 0.4075365
vn -4.81769E-05 -1 -2.09E-07
vt 0.2056183 0.2432836
v 0.05955416 -0.1351821 0.2990686
vn 0.2664292 -0.9638545 -1.817E-07
vt 0.2637655 0.1252901
v 0.05955416 -0.1351821 0.4075365
vn 0.2664291 -0.9638546 -2.542E-07
vt 0.2638173 0.2432836
v -0.0595542 0.1351821 0.4075365
vn -0.2664292 0.9638545 -1.695E-07
vt 0.2638173 0.2432836
v -0.0595542 0.1351821 0.2990686
vn -0.2664292 0.9638545 -1.93E-07
vt 0.2637655 0.1252901
v -4.470348E-08 0.1516441 0.4075365
vn 4.79681E-05 1 -1.664E-07
vt 0.2056183 0.2432836
v -4.470348E-08 0.1516441 0.2990686
vn 4.80784E-05 1 -1.767E-07
vt 0.2060738 0.1252901
v 0.0596367 0.1351531 0.4075365
vn 0.2665219 0.9638289 -1.379E-07
vt 0.1479266 0.2432836
v 0.05963671 0.1351531 0.2990686
vn 0.2665218 0.9638289 -1.343E-07
vt 0.1478748 0.1252901
f 1/1/1 2/2/2 3/3/3
f 3/3/3 2/2/2 4/4/4
f 3/3/3 4/4/4 5/5/5
f 2/2/2 6/6/6 7/7/7
f 2/2/2 7/7/7 8/8/8
f 8/8/8 7/7/7 9/9/9
f 10/10/10 11/11/11 8/8/8
f 8/8/8 11/11/11 4/4/4
f 8/8/8 4/4/4 2/2/2
f 13/13/13 12/12/12 14/14/14
f 13/13/13 14/14/14 15/15/15
f 17/17/17 16/16/16 18/18/18
f 17/17/17 18/18/18 19/19/19
f 21/21/21 20/20/20 22/22/22
f 21/21/21 22/22/22 23/23/23
f 25/25/25 24/24/24 26/26/26
f 25/25/25 26/26/26 27/27/27
f 29/29/29 28/28/28 30/30/30
f 29/29/29 30/30/30 31/31/31
f 33/33/33 32/32/32 34/34/34
f 33/33/33 34/34/34 35/35/35
f 37/37/37 36/36/36 38/38/38
f 37/37/37 38/38/38 39/39/39
f 41/41/41 40/40/40 42/42/42
f 41/41/41 42/42/42 43/43/43
f 45/45/45 44/44/44 46/46/46
f 45/45/45 46/46/46 47/47/47
f 47/47/47 46/46/46 48/48/48
f 47/47/47 48/48/48 49/49/49
f 49/49/49 48/48/48 50/50/50
f 51/51/51 45/45/45 47/47/47
f 46/46/46 52/52/52 53/53/53
f 46/46/46 53/53/53 48/48/48
f 48/48/48 53/53/53 54/54/54
f 55/55/55 56/56/56 57/57/57
f 57/57/57 56/56/56 58/58/58
f 57/57/57 58/58/58 59/59/59
f 61/61/61 60/60/60 62/62/62
f 61/61/61 62/62/62 63/63/63
f 63/63/63 62/62/62 64/64/64
f 63/63/63 64/64/64 65/65/65
f 65/65/65 64/64/64 66/66/66
f 65/65/65 66/66/66 67/67/67
f 69/69/69 68/68/68 70/70/70
f 69/69/69 70/70/70 71/71/71
f 71/71/71 70/70/70 72/72/72
f 73/73/73 74/74/74 75/75/75
f 75/75/75 74/74/74 76/76/76
f 75/75/75 76/76/76 77/77/77
f 79/79/79 78/78/78 80/80/80
f 79/79/79 80/80/80 81/81/81
f 81/81/81 80/80/80 82/82/82
f 83/83/83 84/84/84 85/85/85
f 85/85/85 84/84/84 86/86/86
f 85/85/85 86/86/86 87/87/87
f 89/89/89 88/88/88 90/90/90
f 89/89/89 90/90/90 91/91/91
f 91/91/91 90/90/90 83/83/83
f 91/91/91 83/83/83 92/92/92
f 91/91/91 92/92/92 93/93/93
f 93/93/93 92/92/92 94/94/94
f 93/93/93 94/94/94 82/82/82
f 82/82/82 94/94/94 95/95/95
f 95/95/95 94/94/94 96/96/96
f 95/95/95 96/96/96 97/97/97
f 98/98/98 89/89/89 91/91/91
f 98/98/98 91/91/91 99/99/99
f 99/99/99 91/91/91 93/93/93
f 92/92/92 100/100/100 94/94/94
f 94/94/94 100/100/100 101/101/101
f 94/94/94 101/101/101 96/96/96
f 103/103/103 102/102/102 104/104/104
f 103/103/103 104/104/104 105/105/105
f 105/105/105 104/104/104 106/106/106
f 105/105/105 106/106/106 107/107/107
f 107/107/107 106/106/106 108/108/108
f 103/103/103 105/105/105 109/109/109
f 109/109/109 105/105/105 110/110/110
f 109/109/109 110/110/110 111/111/111
f 109/109/109 111/111/111 112/112/112
f 112/112/112 111/111/111 113/113/113
f 112/112/112 113/113/113 114/114/114
f 114/114/114 113/113/113 115/115/115
f 114/114/114 115/115/115 116/116/116
f 116/116/116 115/115/115 117/117/117
f 116/116/116 117/117/117 118/118/118
f 118/118/118 117/117/117 119/119/119
f 118/118/118 119/119/119 120/120/120
f 120/120/120 119/119/119 121/121/121
f 120/120/120 121/121/121 122/122/122
f 122/122/122 121/121/121 123/123/123
f 122/122/122 123/123/123 106/106/106
f 106/106/106 123/123/123 124/124/124
f 106/106/106 124/124/124 125/125/125
f 125/125/125 124/124/124 126/126/126
f 125/125/125 126/126/126 127/127/127
f 127/127/127 126/126/126 128/128/128
f 127/127/127 128/128/128 129/129/129
f 129/129/129 128/128/128 130/130/130
f 129/129/129 130/130/130 105/105/105
f 105/105/105 130/130/130 110/110/110
f 122/122/122 106/106/106 120/120/120
f 120/120/120 106/106/106 104/104/104
f 120/120/120 104/104/104 131/131/131
f 65/65/65 74/74/74 132/132/132
f 65/65/65 132/132/132 63/63/63
f 63/63/63 132/132/132 133/133/133
f 63/63/63 133/133/133 134/134/134
f 63/63/63 134/134/134 61/61/61
f 62/62/62 71/71/71 135/135/135
f 62/62/62 135/135/135 64/64/64
f 64/64/64 135/135/135 136/136/136
f 64/64/64 136/136/136 137/137/137
f 64/64/64 137/137/137 66/66/66
f 139/139/139 138/138/138 140/140/140
f 139/139/139 140/140/140 141/141/141
f 141/141/141 140/140/140 142/142/142
f 141/141/141 142/142/142 143/143/143
f 141/141/141 143/143/143 144/144/144
f 144/144/144 145/145/145 146/146/146
f 144/144/144 146/146/146 141/141/141
f 141/141/141 146/146/146 147/147/147
f 141/141/141 147/147/147 139/139/139
f 139/139/139 147/147/147 148/148/148
f 139/139/139 148/148/148 149/149/149
f 146/146/146 150/150/150 151/151/151
f 146/146/146 151/151/151 147/147/147
f 147/147/147 151/151/151 152/152/152
f 147/147/147 152/152/152 153/153/153
f 147/147/147 153/153/153 148/148/148
f 155/155/155 154/154/154 156/156/156
f 155/155/155 156/156/156 150/150/150
f 150/150/150 156/156/156 157/157/157
f 158/158/158 138/138/138 159/159/159
f 159/159/159 138/138/138 160/160/160
f 159/159/159 160/160/160 161/161/161
f 163/163/163 162/162/162 164/164/164
f 163/163/163 164/164/164 165/165/165
f 165/165/165 164/164/164 55/55/55
f 165/165/165 55/55/55 166/166/166
f 165/165/165 166/166/166 167/167/167
f 167/167/167 166/166/166 168/168/168
f 167/167/167 168/168/168 169/169/169
f 169/169/169 168/168/168 170/170/170
f 170/170/170 168/168/168 171/171/171
f 171/171/171 168/168/168 172/172/172
f 172/172/172 168/168/168 173/173/173
f 173/173/173 168/168/168 166/166/166
f 167/167/167 174/174/174 165/165/165
f 165/165/165 174/174/174 175/175/175
f 165/165/165 175/175/175 163/163/163
f 11/11/11 176/176/176 4/4/4
f 177/177/177 178/178/178 170/170/170
f 49/49/49 179/179/179 47/47/47
f 169/169/169 180/180/180 181/181/181
f 181/181/181 180/180/180 182/182/182
f 181/181/181 182/182/182 183/183/183
f 107/107/107 184/184/184 105/105/105
f 185/185/185 186/186/186 187/187/187
f 187/187/187 186/186/186 188/188/188
f 188/188/188 186/186/186 189/189/189
f 188/188/188 189/189/189 190/190/190
f 192/192/192 191/191/191 193/193/193
f 192/192/192 193/193/193 194/194/194
f 194/194/194 193/193/193 195/195/195
f 194/194/194 195/195/195 196/196/196
