# Extracted on 10/7/2020 9:44:03 PM
v -0.04223209 -0.02439474 -0.0001121617
vn -0.3087675 0.005352066 -0.9511226
vt 0.7832031 0.08203125
v -0.04595893 1.233071E-06 -0.0001121595
vn -0.3644001 9.860001E-06 -0.9312426
vt 0.7832031 0.04882813
v -0.02439472 -0.0422321 -0.0001121617
vn 0.005364598 -0.3087801 -0.9511184
vt 0.7988281 0.1113281
v -0.02438712 0.0422397 -0.0001121617
vn 0.004634418 0.3086151 -0.9511758
vt 0.8261719 0.005859375
v 0.04595893 1.240522E-06 -0.0001121595
vn 0.3644 -4.3501E-06 -0.9312426
vt 0.9003906 0.08203125
v 0.0243871 0.04223973 -0.0001121617
vn -0.004635213 0.3086163 -0.9511753
vt 0.8847656 0.0234375
v 0.04223209 0.02439474 -0.0001121617
vn 0.3087652 -0.005349454 -0.9511232
vt 0.9003906 0.04882813
v 0.04223209 -0.02439473 -0.0001121603
vn 0.3087742 0.005358283 -0.9511203
vt 0.8847656 0.1113281
v 0.02439473 -0.0422321 -0.0001121603
vn -0.005358809 -0.3087746 -0.9511201
vt 0.8554688 0.1269531
v 0 -0.04595773 -0.0001121595
vn -6.134301E-06 -0.364392 -0.9312457
vt 0.8242188 0.1269531
v -0.0422321 0.02439473 -0.0001121617
vn -0.3087723 -0.005355756 -0.9511209
vt 0.7988281 0.0234375
v 0 0.04603965 -0.0001121595
vn 7.552001E-07 0.3647822 -0.931093
vt 0.8554688 0.005859375
v -0.04109583 -0.02372669 0.1629711
vn -0.2650526 0.01516749 0.9641147
vt 0.7988281 0.0234375
v -0.02372668 -0.04109583 0.1629711
vn 0.01523529 -0.2651294 0.9640926
vt 0.8261719 0.005859375
v -0.04470696 1.233071E-06 0.1629711
vn -0.3199675 7.17214E-05 0.9474286
vt 0.7832031 0.04882813
v 0.02372669 -0.04109583 0.1629711
vn -0.01517334 -0.2650579 0.9641132
vt 0.8847656 0.0234375
v 0.02372669 0.04109583 0.1629711
vn -0.01467906 0.2646024 0.9642459
vt 0.8554688 0.1269531
v 0.04109583 0.02372669 0.1629711
vn 0.2650506 -0.01516533 0.9641153
vt 0.7460938 0.1699219
v 0.02372669 0.04109583 0.1629711
vn -0.01467906 0.2646024 0.9642459
vt 0.7128906 0.1699219
v 0.0437195 0.02992909 0.16297
vn 0.5092738 0.1785253 0.8418843
vt 0.7402344 0.1660156
v 0.02992908 0.04371952 0.16297
vn 0.1785251 0.5092741 0.8418841
vt 0.71875 0.1660156
v -0.02372668 0.04109583 0.1629711
vn 0.01467976 0.2646038 0.9642456
vt 0.7128906 0.1699219
v -0.04109583 0.02372669 0.1629711
vn -0.2651208 -0.01522621 0.9640951
vt 0.7460938 0.1699219
v -0.0299291 0.04371952 0.16297
vn -0.1785254 0.5092745 0.8418838
vt 0.71875 0.1660156
v -0.04371952 0.02992909 0.16297
vn -0.5092742 0.1785256 0.8418839
vt 0.7402344 0.1660156
v -0.04109583 -0.02372669 0.1629711
vn -0.2650526 0.01516749 0.9641147
vt 0.7460938 0.1699219
v -0.02372668 -0.04109583 0.1629711
vn 0.01523529 -0.2651294 0.9640926
vt 0.7128906 0.1699219
v -0.0437195 -0.0299291 0.16297
vn -0.5092738 -0.1785255 0.8418842
vt 0.7402344 0.1660156
v -0.02992908 -0.04371952 0.16297
vn -0.1785252 -0.5092744 0.8418839
vt 0.71875 0.1660156
v 0.02372669 -0.04109583 0.1629711
vn -0.01517334 -0.2650579 0.9641132
vt 0.7128906 0.1699219
v 0.04109583 -0.02372668 0.1629711
vn 0.265123 0.01522868 0.9640943
vt 0.7460938 0.1699219
v 0.0299291 -0.04371951 0.16297
vn 0.1785256 -0.5092741 0.841884
vt 0.71875 0.1660156
v 0.04371952 -0.02992908 0.16297
vn 0.5092742 -0.1785251 0.841884
vt 0.7402344 0.1660156
v 0.03023917 -0.04402957 2.095476E-09
vn 0.215393 -0.5247832 -0.8235342
vt 0.71875 0.0078125
v 0.04402959 -0.03023916 2.786692E-09
vn 0.5247838 -0.2153923 -0.8235339
vt 0.7402344 0.0078125
v 0.02439473 -0.0422321 -0.0001121603
vn -0.005358809 -0.3087746 -0.9511201
vt 0.7128906 0.00390625
v 0.04223209 -0.02439473 -0.0001121603
vn 0.3087742 0.005358283 -0.9511203
vt 0.7460938 0.00390625
v -0.04402958 -0.03023917 -5.238689E-10
vn -0.5247837 -0.2153922 -0.8235341
vt 0.7402344 0.0078125
v -0.03023916 -0.04402959 -2.095476E-09
vn -0.2153925 -0.5247833 -0.8235343
vt 0.71875 0.0078125
v -0.04223209 -0.02439474 -0.0001121617
vn -0.3087675 0.005352066 -0.9511226
vt 0.7460938 0.00390625
v -0.02439472 -0.0422321 -0.0001121617
vn 0.005364598 -0.3087801 -0.9511184
vt 0.7128906 0.00390625
v -0.04470696 1.233071E-06 0.1629711
vn -0.3199675 7.17214E-05 0.9474286
vt 0.7753906 0.1660156
v -0.04109583 -0.02372669 0.1629711
vn -0.2650526 0.01516749 0.9641147
vt 0.7460938 0.1660156
v -0.05248128 1.233071E-06 0.1521064
vn -0.8814774 6.59684E-05 0.4722264
vt 0.7753906 0.1542969
v -0.04822868 -0.02784486 0.1521064
vn -0.8618313 -0.3598068 0.3574715
vt 0.7460938 0.1542969
v -0.05248128 1.229346E-06 0.01129081
vn -0.9101052 1.20832E-05 -0.4143774
vt 0.7753906 0.01757813
v -0.04822868 -0.02784485 0.0112908
vn -0.8756723 -0.3719154 -0.3080213
vt 0.7460938 0.01757813
v -0.04595893 1.233071E-06 -0.0001121595
vn -0.3644001 9.860001E-06 -0.9312426
vt 0.7753906 0.0078125
v -0.04223209 -0.02439474 -0.0001121617
vn -0.3087675 0.005352066 -0.9511226
vt 0.7460938 0.0078125
v 0.04402958 0.03023916 -3.49246E-10
vn 0.5247837 0.2153922 -0.8235341
vt 0.7402344 0.0078125
v 0.03023915 0.04402958 -1.74623E-10
vn 0.2157301 0.5246317 -0.8235424
vt 0.71875 0.0078125
v 0.04223209 0.02439474 -0.0001121617
vn 0.3087652 -0.005349454 -0.9511232
vt 0.7460938 0.00390625
v 0.0243871 0.04223973 -0.0001121617
vn -0.004635213 0.3086163 -0.9511753
vt 0.7128906 0.00390625
v 0.02372669 0.04109583 0.1629711
vn -0.01467906 0.2646024 0.9642459
vt 0.7128906 0.1660156
v 0.02784484 0.0482287 0.1521064
vn 0.3609467 0.8612457 0.3577336
vt 0.7128906 0.1542969
v -3.72529E-09 0.04479289 0.1629711
vn -1.0569E-06 0.320505 0.9472469
vt 0.6835938 0.1660156
v -3.72529E-09 0.05256723 0.1521064
vn -1.1492E-06 0.8815884 0.472019
vt 0.6835938 0.1542969
v -3.72529E-09 0.04479289 0.1629711
vn -1.0569E-06 0.320505 0.9472469
vt 0.6835938 0.1660156
v -3.72529E-09 0.05256723 0.1521064
vn -1.1492E-06 0.8815884 0.472019
vt 0.6835938 0.1542969
v -0.02372668 0.04109583 0.1629711
vn 0.01467976 0.2646038 0.9642456
vt 0.7128906 0.1660156
v -0.02784485 0.04822868 0.1521064
vn -0.3609461 0.861246 0.3577336
vt 0.7128906 0.1542969
v -0.02372668 -0.04109583 0.1629711
vn 0.01523529 -0.2651294 0.9640926
vt 0.7128906 0.1660156
v -0.02784484 -0.0482287 0.1521064
vn -0.3597366 -0.8618418 0.3575169
vt 0.7128906 0.1542969
v 7.450581E-09 -0.04470573 0.1629711
vn -7.0276E-05 -0.3199603 0.947431
vt 0.6835938 0.1660156
v 7.450581E-09 -0.05248007 0.1521064
vn -6.11406E-05 -0.8814754 0.4722299
vt 0.6835938 0.1542969
v -3.72529E-09 0.05256721 0.0112908
vn 4.024E-07 0.9101083 -0.4143704
vt 0.6835938 0.01757813
v -0.02784485 0.04822868 0.1521064
vn -0.3609461 0.861246 0.3577336
vt 0.7128906 0.1542969
v -0.02784485 0.04822867 0.0112908
vn -0.3731734 0.8751302 -0.3080404
vt 0.7128906 0.01757813
v -0.04822869 0.02784485 0.1521064
vn -0.8618323 0.3597561 0.3575203
vt 0.7460938 0.1542969
v -0.04822869 0.02784485 0.0112908
vn -0.8756703 0.371915 -0.3080274
vt 0.7460938 0.01757813
v -0.05248128 1.233071E-06 0.1521064
vn -0.8814774 6.59684E-05 0.4722264
vt 0.7753906 0.1542969
v -0.05248128 1.229346E-06 0.01129081
vn -0.9101052 1.20832E-05 -0.4143774
vt 0.7753906 0.01757813
v -0.0422321 0.02439473 -0.0001121617
vn -0.3087723 -0.005355756 -0.9511209
vt 0.7460938 0.0078125
v -0.04595893 1.233071E-06 -0.0001121595
vn -0.3644001 9.860001E-06 -0.9312426
vt 0.7753906 0.0078125
v 7.450581E-09 -0.05248007 0.01129081
vn -5.184001E-06 -0.9101044 -0.4143793
vt 0.6835938 0.01757813
v -0.02784484 -0.0482287 0.0112908
vn -0.3718955 -0.8756799 -0.3080236
vt 0.7128906 0.01757813
v -0.02784484 -0.0482287 0.1521064
vn -0.3597366 -0.8618418 0.3575169
vt 0.7128906 0.1542969
v -0.03023916 0.04402957 -1.74623E-10
vn -0.2157296 0.5246322 -0.8235424
vt 0.71875 0.0078125
v -0.04402958 0.03023916 -8.65839E-10
vn -0.5247833 0.2153924 -0.8235343
vt 0.7402344 0.0078125
v -0.02438712 0.0422397 -0.0001121617
vn 0.004634418 0.3086151 -0.9511758
vt 0.7128906 0.00390625
v -0.0422321 0.02439473 -0.0001121617
vn -0.3087723 -0.005355756 -0.9511209
vt 0.7460938 0.00390625
v -0.03023916 0.04402957 -1.74623E-10
vn -0.2157296 0.5246322 -0.8235424
vt 0.71875 0.0078125
v -0.02438712 0.0422397 -0.0001121617
vn 0.004634418 0.3086151 -0.9511758
vt 0.7128906 0.0078125
v 0 0.04603965 -0.0001121595
vn 7.552001E-07 0.3647822 -0.931093
vt 0.6835938 0.0078125
v 0 -0.04595773 -0.0001121595
vn -6.134301E-06 -0.364392 -0.9312457
vt 0.6835938 0.0078125
v -0.02439472 -0.0422321 -0.0001121617
vn 0.005364598 -0.3087801 -0.9511184
vt 0.7128906 0.0078125
v -0.03023916 -0.04402959 -2.095476E-09
vn -0.2153925 -0.5247833 -0.8235343
vt 0.71875 0.0078125
v -0.04402958 -0.03023917 -5.238689E-10
vn -0.5247837 -0.2153922 -0.8235341
vt 0.7402344 0.0078125
v -0.02992908 -0.04371952 0.16297
vn -0.1785252 -0.5092744 0.8418839
vt 0.71875 0.1660156
v -0.0437195 -0.0299291 0.16297
vn -0.5092738 -0.1785255 0.8418842
vt 0.7402344 0.1660156
v 0.04595893 1.240522E-06 -0.0001121595
vn 0.3644 -4.3501E-06 -0.9312426
vt 0.7753906 0.0078125
v 0.04223209 -0.02439473 -0.0001121603
vn 0.3087742 0.005358283 -0.9511203
vt 0.7460938 0.0078125
v 0.05248128 1.240522E-06 0.01129081
vn 0.9101054 -9.540001E-08 -0.414377
vt 0.7753906 0.01757813
v 0.04822869 -0.02784484 0.01129081
vn 0.8756729 -0.3719095 -0.3080263
vt 0.7460938 0.01757813
v 0.05248128 1.240522E-06 0.1521064
vn 0.8814772 -5.42884E-05 0.4722266
vt 0.7753906 0.1542969
v 0.04822869 -0.02784484 0.1521064
vn 0.8618348 -0.3597508 0.3575194
vt 0.7460938 0.1542969
v 0.04470696 1.236796E-06 0.1629711
vn 0.3199677 -6.67092E-05 0.9474285
vt 0.7753906 0.1660156
v 0.04109583 -0.02372668 0.1629711
vn 0.265123 0.01522868 0.9640943
vt 0.7460938 0.1660156
v 0.04371952 -0.02992908 0.16297
vn 0.5092742 -0.1785251 0.841884
vt 0.7402344 0.1660156
v 0.02784484 -0.04822869 0.1521064
vn 0.3597933 -0.8618383 0.3574684
vt 0.7128906 0.1542969
v -0.04470696 1.233071E-06 0.1629711
vn -0.3199675 7.17214E-05 0.9474286
vt 0.7753906 0.1660156
v -0.04109583 0.02372669 0.1629711
vn -0.2651208 -0.01522621 0.9640951
vt 0.7460938 0.1660156
v -0.04371952 0.02992909 0.16297
vn -0.5092742 0.1785256 0.8418839
vt 0.7402344 0.1660156
v 7.450581E-09 -0.05248007 0.1521064
vn -6.11406E-05 -0.8814754 0.4722299
vt 0.6835938 0.1542969
v 7.450581E-09 -0.05248007 0.01129081
vn -5.184001E-06 -0.9101044 -0.4143793
vt 0.6835938 0.01757813
v 0.02784484 -0.04822868 0.01129081
vn 0.3719009 -0.8756792 -0.3080189
vt 0.7128906 0.01757813
v 0.03023917 -0.04402957 2.095476E-09
vn 0.215393 -0.5247832 -0.8235342
vt 0.71875 0.0078125
v 0.02439473 -0.0422321 -0.0001121603
vn -0.005358809 -0.3087746 -0.9511201
vt 0.7128906 0.0078125
v 0 -0.04595773 -0.0001121595
vn -6.134301E-06 -0.364392 -0.9312457
vt 0.6835938 0.0078125
v 7.450581E-09 -0.04470573 0.1629711
vn -7.0276E-05 -0.3199603 0.947431
vt 0.6835938 0.1660156
v 0.02372669 -0.04109583 0.1629711
vn -0.01517334 -0.2650579 0.9641132
vt 0.7128906 0.1660156
v 0.02784484 -0.04822869 0.1521064
vn 0.3597933 -0.8618383 0.3574684
vt 0.7128906 0.1542969
v 0.04470696 1.236796E-06 0.1629711
vn 0.3199677 -6.67092E-05 0.9474285
vt 0.7753906 0.1660156
v 0.04109583 0.02372669 0.1629711
vn 0.2650506 -0.01516533 0.9641153
vt 0.7460938 0.1660156
v 0.05248128 1.240522E-06 0.1521064
vn 0.8814772 -5.42884E-05 0.4722266
vt 0.7753906 0.1542969
v 0.04822868 0.02784485 0.1521064
vn 0.8618289 0.3598118 0.3574727
vt 0.7460938 0.1542969
v 0.05248128 1.240522E-06 0.01129081
vn 0.9101054 -9.540001E-08 -0.414377
vt 0.7753906 0.01757813
v 0.04822868 0.02784485 0.0112908
vn 0.8756699 0.3719206 -0.3080219
vt 0.7460938 0.01757813
v 0.04595893 1.240522E-06 -0.0001121595
vn 0.3644 -4.3501E-06 -0.9312426
vt 0.7753906 0.0078125
v 0.04223209 0.02439474 -0.0001121617
vn 0.3087652 -0.005349454 -0.9511232
vt 0.7460938 0.0078125
v 0.0437195 0.02992909 0.16297
vn 0.5092738 0.1785253 0.8418843
vt 0.7402344 0.1660156
v 0.02992908 0.04371952 0.16297
vn 0.1785251 0.5092741 0.8418841
vt 0.71875 0.1660156
v 0.02784484 0.0482287 0.1521064
vn 0.3609467 0.8612457 0.3577336
vt 0.7128906 0.1542969
v 0.02784484 0.0482287 0.0112908
vn 0.3731725 0.8751303 -0.3080411
vt 0.7128906 0.01757813
v 0.04402958 0.03023916 -3.49246E-10
vn 0.5247837 0.2153922 -0.8235341
vt 0.7402344 0.0078125
v 0.03023915 0.04402958 -1.74623E-10
vn 0.2157301 0.5246317 -0.8235424
vt 0.71875 0.0078125
v 0.0243871 0.04223973 -0.0001121617
vn -0.004635213 0.3086163 -0.9511753
vt 0.7128906 0.0078125
v -3.72529E-09 0.05256721 0.0112908
vn 4.024E-07 0.9101083 -0.4143704
vt 0.6835938 0.01757813
v 0 0.04603965 -0.0001121595
vn 7.552001E-07 0.3647822 -0.931093
vt 0.6835938 0.0078125
v 0.04109583 0.02372669 0.1629711
vn 0.2650506 -0.01516533 0.9641153
vt 0.8847656 0.1113281
v 0.04470696 1.236796E-06 0.1629711
vn 0.3199677 -6.67092E-05 0.9474285
vt 0.9003906 0.08203125
v 0.04109583 -0.02372668 0.1629711
vn 0.265123 0.01522868 0.9640943
vt 0.9003906 0.04882813
v -3.72529E-09 0.04479289 0.1629711
vn -1.0569E-06 0.320505 0.9472469
vt 0.8242188 0.1269531
v -0.02372668 0.04109583 0.1629711
vn 0.01467976 0.2646038 0.9642456
vt 0.7988281 0.1113281
v -0.04109583 0.02372669 0.1629711
vn -0.2651208 -0.01522621 0.9640951
vt 0.7832031 0.08203125
v 7.450581E-09 -0.04470573 0.1629711
vn -7.0276E-05 -0.3199603 0.947431
vt 0.8554688 0.005859375
v -0.039391 -0.03695734 0.1169631
vn -0.7071069 -0.7071068 0
vt 0.7804477 0.4857381
v -0.04840289 -0.02794544 0.1169631
vn -0.8922591 -0.4515239 -1.27E-08
vt 0.768729 0.4857381
v -0.039391 -0.03695734 0.04643399
vn -0.7071071 -0.7071065 -9.68E-08
vt 0.7804477 0.3607381
v -0.04840289 -0.02794544 0.04643399
vn -0.8922591 -0.4515237 -7.31E-08
vt 0.768729 0.3607381
v -0.05267086 1.236796E-06 0.04643398
vn -1 6.4921E-06 -9.1E-09
vt 0.7199008 0.3607381
v -0.05267086 1.236796E-06 0.1169631
vn -1 6.4511E-06 -3.61E-08
vt 0.7199008 0.4857381
v -0.04840291 0.02794542 0.04643399
vn -0.8922561 0.4515297 -2.47E-08
vt 0.6710727 0.3607381
v -0.04840291 0.02794542 0.1169631
vn -0.892256 0.4515298 -9.63E-08
vt 0.6710727 0.4857381
v -0.03939101 0.03695732 0.1169631
vn -0.7071066 0.7071069 -6.45E-08
vt 0.659354 0.4857381
v -0.039391 0.03695732 0.04643399
vn -0.7071068 0.7071068 0
vt 0.659354 0.3607381
v 0.03939101 0.03695732 0.1169631
vn 0.707107 0.7071066 -1.526E-07
vt 0.7804478 0.4857381
v 0.039391 0.03695732 0.04643399
vn 0.7071068 0.7071068 -5.580001E-08
vt 0.7804478 0.3607381
v 0.04840289 0.02794544 0.1169631
vn 0.892256 0.4515298 -1.113E-07
vt 0.7687291 0.4857381
v 0.04840289 0.02794544 0.04643399
vn 0.892256 0.4515299 -2.44E-08
vt 0.7687291 0.3607381
v 0.05267086 1.244247E-06 0.04643398
vn 1 6.762E-06 -7.33E-08
vt 0.719901 0.3607381
v 0.05267086 1.244247E-06 0.1169631
vn 1 6.8267E-06 -1.17E-07
vt 0.719901 0.4857381
v 0.04840291 -0.02794542 0.04643399
vn 0.8922591 -0.4515239 -1.769E-07
vt 0.6710728 0.3607381
v 0.04840291 -0.02794543 0.1169631
vn 0.8922591 -0.4515239 -1.694E-07
vt 0.6710728 0.4857381
v 0.03939101 -0.03695732 0.1169631
vn 0.7071066 -0.707107 -1.966E-07
vt 0.6593541 0.4857381
v 0.039391 -0.03695732 0.04643399
vn 0.7071066 -0.707107 -2.289E-07
vt 0.6593541 0.3607381
f 1/1/1 2/2/2 3/3/3
f 3/3/3 2/2/2 4/4/4
f 3/3/3 4/4/4 5/5/5
f 5/5/5 4/4/4 6/6/6
f 5/5/5 6/6/6 7/7/7
f 5/5/5 8/8/8 9/9/9
f 5/5/5 9/9/9 3/3/3
f 3/3/3 9/9/9 10/10/10
f 2/2/2 11/11/11 4/4/4
f 4/4/4 12/12/12 6/6/6
f 13/13/13 14/14/14 15/15/15
f 15/15/15 14/14/14 16/16/16
f 15/15/15 16/16/16 17/17/17
f 19/19/19 18/18/18 20/20/20
f 19/19/19 20/20/20 21/21/21
f 23/23/23 22/22/22 24/24/24
f 23/23/23 24/24/24 25/25/25
f 27/27/27 26/26/26 28/28/28
f 27/27/27 28/28/28 29/29/29
f 31/31/31 30/30/30 32/32/32
f 31/31/31 32/32/32 33/33/33
f 35/35/35 34/34/34 36/36/36
f 35/35/35 36/36/36 37/37/37
f 39/39/39 38/38/38 40/40/40
f 39/39/39 40/40/40 41/41/41
f 43/43/43 42/42/42 44/44/44
f 43/43/43 44/44/44 45/45/45
f 45/45/45 44/44/44 46/46/46
f 45/45/45 46/46/46 47/47/47
f 47/47/47 46/46/46 48/48/48
f 47/47/47 48/48/48 49/49/49
f 47/47/47 49/49/49 38/38/38
f 51/51/51 50/50/50 52/52/52
f 51/51/51 52/52/52 53/53/53
f 54/54/54 21/21/21 55/55/55
f 54/54/54 55/55/55 56/56/56
f 56/56/56 55/55/55 57/57/57
f 58/58/58 59/59/59 60/60/60
f 60/60/60 59/59/59 61/61/61
f 60/60/60 61/61/61 24/24/24
f 62/62/62 29/29/29 63/63/63
f 62/62/62 63/63/63 64/64/64
f 64/64/64 63/63/63 65/65/65
f 59/59/59 66/66/66 67/67/67
f 67/67/67 66/66/66 68/68/68
f 67/67/67 68/68/68 69/69/69
f 69/69/69 68/68/68 70/70/70
f 69/69/69 70/70/70 71/71/71
f 71/71/71 70/70/70 72/72/72
f 72/72/72 70/70/70 73/73/73
f 72/72/72 73/73/73 74/74/74
f 76/76/76 75/75/75 65/65/65
f 76/76/76 65/65/65 77/77/77
f 79/79/79 78/78/78 80/80/80
f 79/79/79 80/80/80 81/81/81
f 79/79/79 73/73/73 70/70/70
f 79/79/79 70/70/70 82/82/82
f 82/82/82 70/70/70 68/68/68
f 82/82/82 68/68/68 83/83/83
f 83/83/83 68/68/68 84/84/84
f 84/84/84 68/68/68 66/66/66
f 85/85/85 75/75/75 86/86/86
f 86/86/86 75/75/75 76/76/76
f 86/86/86 76/76/76 87/87/87
f 87/87/87 76/76/76 88/88/88
f 88/88/88 76/76/76 47/47/47
f 47/47/47 76/76/76 77/77/77
f 47/47/47 77/77/77 45/45/45
f 45/45/45 77/77/77 89/89/89
f 45/45/45 89/89/89 90/90/90
f 45/45/45 90/90/90 43/43/43
f 92/92/92 91/91/91 93/93/93
f 92/92/92 93/93/93 94/94/94
f 94/94/94 93/93/93 95/95/95
f 94/94/94 95/95/95 96/96/96
f 96/96/96 95/95/95 97/97/97
f 96/96/96 97/97/97 98/98/98
f 96/96/96 98/98/98 99/99/99
f 96/96/96 99/99/99 100/100/100
f 100/100/100 99/99/99 32/32/32
f 71/71/71 101/101/101 69/69/69
f 69/69/69 101/101/101 102/102/102
f 69/69/69 102/102/102 103/103/103
f 69/69/69 103/103/103 67/67/67
f 67/67/67 103/103/103 24/24/24
f 104/104/104 105/105/105 100/100/100
f 100/100/100 105/105/105 106/106/106
f 100/100/100 106/106/106 96/96/96
f 96/96/96 106/106/106 94/94/94
f 94/94/94 106/106/106 107/107/107
f 94/94/94 107/107/107 35/35/35
f 94/94/94 35/35/35 92/92/92
f 108/108/108 107/107/107 106/106/106
f 108/108/108 106/106/106 109/109/109
f 109/109/109 106/106/106 105/105/105
f 110/110/110 104/104/104 111/111/111
f 111/111/111 104/104/104 112/112/112
f 111/111/111 112/112/112 32/32/32
f 114/114/114 113/113/113 115/115/115
f 114/114/114 115/115/115 116/116/116
f 116/116/116 115/115/115 117/117/117
f 116/116/116 117/117/117 118/118/118
f 118/118/118 117/117/117 119/119/119
f 118/118/118 119/119/119 120/120/120
f 118/118/118 120/120/120 50/50/50
f 121/121/121 114/114/114 116/116/116
f 121/121/121 116/116/116 122/122/122
f 122/122/122 116/116/116 123/123/123
f 123/123/123 116/116/116 118/118/118
f 123/123/123 118/118/118 124/124/124
f 124/124/124 118/118/118 125/125/125
f 124/124/124 125/125/125 126/126/126
f 124/124/124 126/126/126 127/127/127
f 124/124/124 127/127/127 128/128/128
f 128/128/128 127/127/127 129/129/129
f 128/128/128 57/57/57 124/124/124
f 124/124/124 57/57/57 123/123/123
f 130/130/130 17/17/17 131/131/131
f 131/131/131 17/17/17 16/16/16
f 131/131/131 16/16/16 132/132/132
f 17/17/17 133/133/133 134/134/134
f 17/17/17 134/134/134 15/15/15
f 15/15/15 134/134/134 135/135/135
f 14/14/14 136/136/136 16/16/16
f 137/137/137 138/138/138 139/139/139
f 139/139/139 138/138/138 140/140/140
f 140/140/140 138/138/138 141/141/141
f 141/141/141 138/138/138 142/142/142
f 141/141/141 142/142/142 143/143/143
f 143/143/143 142/142/142 144/144/144
f 143/143/143 144/144/144 145/145/145
f 143/143/143 145/145/145 146/146/146
f 148/148/148 147/147/147 149/149/149
f 148/148/148 149/149/149 150/150/150
f 150/150/150 149/149/149 151/151/151
f 151/151/151 149/149/149 152/152/152
f 151/151/151 152/152/152 153/153/153
f 153/153/153 152/152/152 154/154/154
f 153/153/153 154/154/154 155/155/155
f 153/153/153 155/155/155 156/156/156
