# Extracted on 10/7/2020 9:44:03 PM
v -0.000613546 -0.000958113 -0.2575248
vn -0.1562327 -0.01470347 -0.9876108
vt 0.476324 0.0248934
v 0.005922269 0.003173873 -0.2518244
vn 0.6169064 0.6744417 -0.4056536
vt 0.766474 0.06850868
v 0.008006599 -0.003530387 -0.2520905
vn 0.820443 -0.3743391 -0.4321383
vt 1.000003 0.06188709
v 0.004966225 0.004972324 -0.2074376
vn 0.6204745 0.7842253 0.001509373
vt 0.8018365 0.1869369
v 0.008679431 -0.003476266 -0.2060177
vn 0.9589012 -0.2836118 0.008543941
vt 1.000002 0.1795309
v 0.001884542 0.007886244 -0.1578923
vn 0.1863489 0.9796554 -0.0744943
vt 0.8115157 0.3305304
v 0.01053379 0.001969723 -0.1562822
vn 0.9764226 0.206103 -0.06419086
vt 1.000003 0.3324443
v 0.0007137395 0.01036575 -0.1025898
vn 0.2463698 0.9691072 0.01154013
vt 0.8177787 0.4985476
v 0.01175278 0.001233008 -0.104139
vn 0.9892524 0.1325178 -0.06179532
vt 1.000004 0.5045087
v -0.00198889 0.01163075 -0.07793665
vn -0.09007516 0.99014 -0.1072819
vt 0.8186248 0.6583229
v 0.01769467 0.004949391 -0.07694754
vn 0.932546 0.3302884 -0.1458343
vt 1.000003 0.661555
v -0.00340216 0.01450133 -0.03553621
vn -0.08062526 0.98974 -0.1179593
vt 0.8205789 0.8290213
v 0.01766845 0.007614916 -0.03592508
vn 0.8520423 0.4971953 -0.1637704
vt 1.000003 0.8268912
v -0.006222086 0.02029066 -0.001114279
vn -0.1348256 0.9733545 -0.1854808
vt 0.8178874 0.9906771
v 0.02526721 0.01183316 -0.001114279
vn 0.7987762 0.5353293 -0.2745525
vt 1.000003 0.9906771
v -0.03139918 0.005621914 -0.001114279
vn -0.8576508 0.439739 -0.2665798
vt 0.6753443 0.9905762
v -0.02131853 0.005201494 -0.03553289
vn -0.8318698 0.5197974 -0.194431
vt 0.6484492 0.8310875
v -0.01467725 0.004222367 -0.07403813
vn -0.8419449 0.5298049 -0.1021543
vt 0.6391185 0.6588767
v -0.01268914 0.008255577 -0.1033148
vn -0.6394231 0.7685137 -0.02290841
vt 0.635484 0.4991035
v -0.005368736 0.006016141 -0.1568883
vn -0.6489897 0.7557878 -0.08716198
vt 0.6261437 0.3317244
v 0.004966225 0.004972324 -0.2074376
vn 0.6204745 0.7842253 0.001509373
vt 0.8018365 0.1869369
v -0.002935164 0.006434118 -0.2118102
vn -0.2780966 0.9603755 -0.018473
vt 0.6197978 0.193047
v 0.005922269 0.003173873 -0.2518244
vn 0.6169064 0.6744417 -0.4056536
vt 0.766474 0.06850868
v -0.001875389 0.00481165 -0.2508294
vn -0.2371649 0.9094699 -0.3414928
vt 0.5953603 0.07131976
v -0.01521607 -0.001790887 -0.07407354
vn -0.9244295 -0.3641062 -0.1133874
vt 0.5198454 0.66142
v -0.01571295 0.0005340092 -0.09999371
vn -0.998248 -0.05607628 -0.01887916
vt 0.5156194 0.5008119
v -0.007185318 -0.009137431 -0.07244638
vn -0.3212951 -0.9416571 -0.1002568
vt 0.3965975 0.6565401
v -0.01143104 -0.007934541 -0.100662
vn -0.6258249 -0.7798995 0.009993992
vt 0.3864994 0.4984702
v -0.007873638 -0.0001897272 -0.1569622
vn -0.9954568 -0.05042328 -0.08076632
vt 0.5046012 0.331659
v -0.004298571 -0.007458955 -0.1533244
vn -0.4865449 -0.8695275 -0.08483014
vt 0.3682671 0.332926
v -0.007419879 0.002276994 -0.2113462
vn -0.921314 0.3887816 -0.005424145
vt 0.4991648 0.1936595
v -0.007273179 -0.004590107 -0.2094399
vn -0.824363 -0.5660614 0.0003478737
vt 0.3662923 0.1933563
v -0.006062401 0.001606641 -0.2502951
vn -0.8563358 0.4039383 -0.3217498
vt 0.4896187 0.07163262
v -0.006029706 -0.003295487 -0.2502992
vn -0.8161902 -0.4871364 -0.3106956
vt 0.3742416 0.07131904
v -0.000613546 -0.000958113 -0.2575248
vn -0.1562327 -0.01470347 -0.9876108
vt 0.476324 0.0248934
v -0.002935164 0.006434118 -0.2118102
vn -0.2780966 0.9603755 -0.018473
vt 0.6197978 0.193047
v -0.005368736 0.006016141 -0.1568883
vn -0.6489897 0.7557878 -0.08716198
vt 0.6261437 0.3317244
v 0.02526721 0.01183316 -0.001114279
vn -2.64E-07 1.81E-08 1
vt 0.7998503 0.9887033
v 0.02338075 -0.01570584 -0.001114279
vn -1.347E-07 1.244E-07 1
vt 0.7955949 0.9886622
v -0.006222086 0.02029066 -0.001114279
vn 5.911E-07 1.396E-07 1
vt 0.6549411 0.9887143
v -0.010129 -0.0237972 -0.001114279
vn 1.0382E-06 4.628E-07 1
vt 0.644085 0.9886484
v -0.03139918 0.005621914 -0.001114279
vn 9.032E-07 3.653E-07 1
vt 0.5424616 0.9886912
v -0.03069507 -0.01389113 -0.001114249
vn 1.6821E-06 9.284E-07 1
vt 0.5487513 0.9886621
v 0.008006599 -0.003530387 -0.2520905
vn 0.820443 -0.3743391 -0.4321383
vt 4.8155E-06 0.06188709
v -0.000613546 -0.000958113 -0.2575248
vn -0.1562327 -0.01470347 -0.9876108
vt 0.476324 0.0248934
v 0.000714846 -0.006657856 -0.2511599
vn -0.04018667 -0.9432817 -0.3295523
vt 0.202471 0.06850779
v -0.006029706 -0.003295487 -0.2502992
vn -0.8161902 -0.4871364 -0.3106956
vt 0.3742416 0.07131904
v 0.001667298 -0.008253752 -0.2042627
vn 0.1065613 -0.9941728 0.01628171
vt 0.1901809 0.1874561
v 0.004831839 -0.007261474 -0.1521569
vn 0.4997038 -0.8646702 -0.05139657
vt 0.1867155 0.331231
v 0.002716344 -0.01130451 -0.09980175
vn 0.2925407 -0.9561359 0.01496946
vt 0.1919012 0.4992386
v 0.01022387 -0.008161675 -0.0740992
vn 0.5547964 -0.8280746 -0.08058163
vt 0.1975499 0.6580902
v 0.01366212 -0.01211598 -0.03504883
vn 0.658301 -0.7277036 -0.1925808
vt 0.1970327 0.8290011
v -0.008994002 -0.01536618 -0.03534925
vn -0.1992867 -0.9583502 -0.2045721
vt 0.3875546 0.8310599
v -0.02144908 -0.007568734 -0.03521873
vn -0.842059 -0.4758317 -0.2540098
vt 0.5177215 0.8314285
v -0.03069507 -0.01389113 -0.001114249
vn -0.7946121 -0.5174087 -0.317616
vt 0.5212898 0.9905158
v -0.010129 -0.0237972 -0.001114279
vn -0.1159594 -0.9590009 -0.2585938
vt 0.3857559 0.9905199
v 0.02338075 -0.01570584 -0.001114279
vn 0.7406739 -0.6021671 -0.2979881
vt 0.2001526 0.9906588
v 0.02526721 0.01183316 -0.001114279
vn 0.7987762 0.5353293 -0.2745525
vt 4.907E-06 0.9906771
v 0.01766845 0.007614916 -0.03592508
vn 0.8520423 0.4971953 -0.1637704
vt 4.8155E-06 0.8268912
v 0.01769467 0.004949391 -0.07694754
vn 0.932546 0.3302884 -0.1458343
vt 5.0137E-06 0.661555
v 0.01175278 0.001233008 -0.104139
vn 0.9892524 0.1325178 -0.06179532
vt 4.6326E-06 0.5045087
v 0.01053379 0.001969723 -0.1562822
vn 0.9764226 0.206103 -0.06419086
vt 4.8231E-06 0.3324443
v 0.001667298 -0.008253752 -0.2042627
vn 0.1065613 -0.9941728 0.01628171
vt 0.1901809 0.1874561
v 0.008679431 -0.003476266 -0.2060177
vn 0.9589012 -0.2836118 0.008543941
vt 5.1509E-06 0.1795309
v 0.000714846 -0.006657856 -0.2511599
vn -0.04018667 -0.9432817 -0.3295523
vt 0.202471 0.06850779
f 1/1/1 2/2/2 3/3/3
f 3/3/3 2/2/2 4/4/4
f 3/3/3 4/4/4 5/5/5
f 5/5/5 4/4/4 6/6/6
f 5/5/5 6/6/6 7/7/7
f 7/7/7 6/6/6 8/8/8
f 7/7/7 8/8/8 9/9/9
f 9/9/9 8/8/8 10/10/10
f 9/9/9 10/10/10 11/11/11
f 11/11/11 10/10/10 12/12/12
f 11/11/11 12/12/12 13/13/13
f 13/13/13 12/12/12 14/14/14
f 13/13/13 14/14/14 15/15/15
f 16/16/16 14/14/14 12/12/12
f 16/16/16 12/12/12 17/17/17
f 17/17/17 12/12/12 10/10/10
f 17/17/17 10/10/10 18/18/18
f 18/18/18 10/10/10 8/8/8
f 18/18/18 8/8/8 19/19/19
f 19/19/19 8/8/8 6/6/6
f 19/19/19 6/6/6 20/20/20
f 20/20/20 6/6/6 21/21/21
f 20/20/20 21/21/21 22/22/22
f 22/22/22 21/21/21 23/23/23
f 22/22/22 23/23/23 24/24/24
f 24/24/24 23/23/23 1/1/1
f 18/18/18 19/19/19 25/25/25
f 25/25/25 19/19/19 26/26/26
f 25/25/25 26/26/26 27/27/27
f 27/27/27 26/26/26 28/28/28
f 28/28/28 26/26/26 29/29/29
f 28/28/28 29/29/29 30/30/30
f 30/30/30 29/29/29 31/31/31
f 30/30/30 31/31/31 32/32/32
f 32/32/32 31/31/31 33/33/33
f 32/32/32 33/33/33 34/34/34
f 34/34/34 33/33/33 35/35/35
f 35/35/35 33/33/33 24/24/24
f 24/24/24 33/33/33 31/31/31
f 24/24/24 31/31/31 36/36/36
f 36/36/36 31/31/31 29/29/29
f 36/36/36 29/29/29 37/37/37
f 37/37/37 29/29/29 26/26/26
f 37/37/37 26/26/26 19/19/19
f 39/39/39 38/38/38 40/40/40
f 39/39/39 40/40/40 41/41/41
f 41/41/41 40/40/40 42/42/42
f 41/41/41 42/42/42 43/43/43
f 45/45/45 44/44/44 46/46/46
f 45/45/45 46/46/46 47/47/47
f 47/47/47 46/46/46 48/48/48
f 47/47/47 48/48/48 32/32/32
f 32/32/32 48/48/48 49/49/49
f 32/32/32 49/49/49 30/30/30
f 30/30/30 49/49/49 50/50/50
f 30/30/30 50/50/50 28/28/28
f 28/28/28 50/50/50 51/51/51
f 28/28/28 51/51/51 27/27/27
f 27/27/27 51/51/51 52/52/52
f 27/27/27 52/52/52 53/53/53
f 27/27/27 53/53/53 25/25/25
f 25/25/25 53/53/53 54/54/54
f 25/25/25 54/54/54 18/18/18
f 18/18/18 54/54/54 17/17/17
f 16/16/16 17/17/17 55/55/55
f 55/55/55 17/17/17 54/54/54
f 55/55/55 54/54/54 56/56/56
f 56/56/56 54/54/54 53/53/53
f 56/56/56 53/53/53 57/57/57
f 57/57/57 53/53/53 52/52/52
f 57/57/57 52/52/52 58/58/58
f 58/58/58 52/52/52 59/59/59
f 59/59/59 52/52/52 51/51/51
f 59/59/59 51/51/51 60/60/60
f 60/60/60 51/51/51 50/50/50
f 60/60/60 50/50/50 61/61/61
f 61/61/61 50/50/50 49/49/49
f 61/61/61 49/49/49 62/62/62
f 62/62/62 49/49/49 63/63/63
f 62/62/62 63/63/63 64/64/64
f 64/64/64 63/63/63 65/65/65
f 64/64/64 65/65/65 44/44/44
