# Extracted on 10/7/2020 9:44:03 PM
v -0.01746042 -0.01497013 -0.001101032
vn 1.85E-07 -2.076E-07 1
vt 0.6005436 0.9902885
v 0.004711831 -0.01985767 -0.001101032
vn -2.108E-07 -4.769E-07 1
vt 0.4258788 0.990272
v -0.01615533 0.01082827 -0.001101032
vn -9.67E-08 -6.04E-08 1
vt 0.590021 0.9903751
v 0.02216593 0.0003744867 -0.001101017
vn -2.916E-07 -8.97E-08 1
vt 0.2881588 0.9903398
v 0.007425433 0.01419765 -0.001101032
vn 5.05E-08 1.1645E-06 1
vt 0.4041811 0.9903863
v -0.01615533 0.01082827 -0.001101032
vn -0.7019156 0.6142166 -0.360628
vt 0.7998507 0.9906622
v -0.01746042 -0.01497013 -0.001101032
vn -0.7197835 -0.5648093 -0.4036114
vt 0.9999973 0.990677
v -0.009475655 0.006140009 -0.02157536
vn -0.6719483 0.6747339 -0.3053191
vt 0.8029706 0.8604785
v -0.01231891 -0.00794767 -0.02220084
vn -0.8498551 -0.4380972 -0.2929457
vt 1.000001 0.8587795
v -0.0040173 0.002311034 -0.04553106
vn -0.5628489 0.8207979 -0.09742738
vt 0.8024535 0.7228432
v -0.007314971 -0.005035162 -0.04640678
vn -0.9319028 -0.3429168 -0.1181748
vt 0.9999929 0.7256333
v -0.002739732 0.004069809 -0.07101908
vn -0.5113254 0.8590128 -0.02536746
vt 0.8105282 0.5345287
v -0.007095092 -0.004736278 -0.07409645
vn -0.9569863 -0.2806263 -0.07366196
vt 1.000004 0.5381098
v 0.001148639 0.001430644 -0.1139577
vn -0.3183513 0.9467074 -0.04896513
vt 0.811722 0.2816243
v -0.002448393 -0.002159964 -0.1145073
vn -0.9977553 0.02027321 -0.06382243
vt 0.9999937 0.2748544
v 0.001846435 0.000475185 -0.1525258
vn 0.03216615 0.9753309 -0.2183917
vt 0.7975323 0.05747581
v -0.001173114 -0.0008279104 -0.1529764
vn -0.8600566 0.3924941 -0.3259616
vt 1.000001 0.05088067
v 0.002456928 -0.001892494 -0.1570651
vn 0.1312158 0.01042819 -0.991299
vt 0.5236793 0.01403016
v 0.004642438 -0.0009186845 -0.1521091
vn 0.8348364 0.5064372 -0.2157999
vt 0.6257617 0.06027615
v 0.006001044 0.0007812884 -0.1142504
vn 0.7296039 0.6818294 -0.05279044
vt 0.6347601 0.2900046
v 0.006688893 0.003965082 -0.07149792
vn 0.5674363 0.8234056 0.00439982
vt 0.6205835 0.5362841
v -0.0040173 0.002311034 -0.04553106
vn -0.5628489 0.8207979 -0.09742738
vt 0.8024535 0.7228432
v 0.004778309 0.002638217 -0.04537587
vn 0.4505745 0.8900012 -0.0698602
vt 0.6034058 0.7215948
v -0.009475655 0.006140009 -0.02157536
vn -0.6719483 0.6747339 -0.3053191
vt 0.8029706 0.8604785
v 0.003832012 0.008479066 -0.02178979
vn 0.2997594 0.9137511 -0.2742321
vt 0.6124487 0.8621364
v -0.01615533 0.01082827 -0.001101032
vn -0.7019156 0.6142166 -0.360628
vt 0.7998507 0.9906622
v 0.007425433 0.01419765 -0.001101032
vn 0.3157328 0.8918785 -0.3238295
vt 0.6142474 0.9905505
v 0.012688 -0.001634343 -0.02180876
vn 0.9554639 -0.04355317 -0.2918763
vt 0.416918 0.8622961
v 0.02216593 0.0003744867 -0.001101017
vn 0.8967945 0.05741553 -0.4387062
vt 0.4016863 0.9905715
v -0.01746042 -0.01497013 -0.001101032
vn -0.7197835 -0.5648093 -0.4036114
vt 6.719001E-07 0.990677
v -0.01231891 -0.00794767 -0.02220084
vn -0.8498551 -0.4380972 -0.2929457
vt -1.3753E-06 0.8587795
v 0.004711831 -0.01985767 -0.001101032
vn 0.2879625 -0.8821947 -0.3725723
vt 0.182116 0.990677
v 0.0012965 -0.01284566 -0.02192327
vn 0.1960893 -0.9487685 -0.2477646
vt 0.1794245 0.8604947
v 0.02216593 0.0003744867 -0.001101017
vn 0.8967945 0.05741553 -0.4387062
vt 0.4016863 0.9905715
v 0.012688 -0.001634343 -0.02180876
vn 0.9554639 -0.04355317 -0.2918763
vt 0.416918 0.8622961
v 0.001541549 -0.008957382 -0.04808003
vn 0.1220668 -0.9911133 -0.05286035
vt 0.1813786 0.7230306
v 0.009062015 -0.003323032 -0.04623549
vn 0.9854807 -0.1628059 -0.04818781
vt 0.4205214 0.7245005
v 0.0009875502 -0.009481927 -0.07427149
vn 0.0164089 -0.9989174 -0.0435294
vt 0.1838228 0.5334008
v 0.009830693 -0.00383598 -0.07279078
vn 0.9549407 -0.29629 -0.01733453
vt 0.4277651 0.535385
v 0.0007870775 -0.005619557 -0.1143656
vn -0.2397535 -0.9689541 -0.06038431
vt 0.1948605 0.2804515
v 0.006309966 -0.003792591 -0.1146165
vn 0.8282304 -0.5582656 -0.0487249
vt 0.4393527 0.2880024
v -0.0003062747 -0.003612697 -0.1528476
vn -0.6418882 -0.7123699 -0.2837408
vt 0.2335293 0.05747664
v 0.002925206 -0.004289439 -0.1523658
vn 0.2260735 -0.9484509 -0.2221074
vt 0.4046431 0.06027693
v 0.004658379 -0.002955634 -0.1521071
vn 0.8803217 -0.4152647 -0.2293228
vt 0.5103846 0.0605886
v 0.002456928 -0.001892494 -0.1570651
vn 0.1312158 0.01042819 -0.991299
vt 0.5236793 0.01403016
v 0.004642438 -0.0009186845 -0.1521091
vn 0.8348364 0.5064372 -0.2157999
vt 0.6257617 0.06027615
v 0.006001044 0.0007812884 -0.1142504
vn 0.7296039 0.6818294 -0.05279044
vt 0.6347601 0.2900046
v 0.006309966 -0.003792591 -0.1146165
vn 0.8282304 -0.5582656 -0.0487249
vt 0.4393527 0.2880024
v 0.009830693 -0.00383598 -0.07279078
vn 0.9549407 -0.29629 -0.01733453
vt 0.4277651 0.535385
v 0.004778309 0.002638217 -0.04537587
vn 0.4505745 0.8900012 -0.0698602
vt 0.6034058 0.7215948
v 0.009062015 -0.003323032 -0.04623549
vn 0.9854807 -0.1628059 -0.04818781
vt 0.4205214 0.7245005
v 0.002456928 -0.001892494 -0.1570651
vn 0.1312158 0.01042819 -0.991299
vt 0.5236793 0.01403016
v -0.001173114 -0.0008279104 -0.1529764
vn -0.8600566 0.3924941 -0.3259616
vt 1.0763E-06 0.05088067
v 0.0007870775 -0.005619557 -0.1143656
vn -0.2397535 -0.9689541 -0.06038431
vt 0.1948605 0.2804515
v -0.002448393 -0.002159964 -0.1145073
vn -0.9977553 0.02027321 -0.06382243
vt 2.8552E-06 0.2748544
v -0.007095092 -0.004736278 -0.07409645
vn -0.9569863 -0.2806263 -0.07366196
vt -3.5823E-06 0.5381098
v -0.007314971 -0.005035162 -0.04640678
vn -0.9319028 -0.3429168 -0.1181748
vt 3.3667E-06 0.7256333
f 1/1/1 2/2/2 3/3/3
f 3/3/3 2/2/2 4/4/4
f 3/3/3 4/4/4 5/5/5
f 7/7/7 6/6/6 8/8/8
f 7/7/7 8/8/8 9/9/9
f 9/9/9 8/8/8 10/10/10
f 9/9/9 10/10/10 11/11/11
f 11/11/11 10/10/10 12/12/12
f 11/11/11 12/12/12 13/13/13
f 13/13/13 12/12/12 14/14/14
f 13/13/13 14/14/14 15/15/15
f 15/15/15 14/14/14 16/16/16
f 15/15/15 16/16/16 17/17/17
f 17/17/17 16/16/16 18/18/18
f 18/18/18 16/16/16 19/19/19
f 19/19/19 16/16/16 14/14/14
f 19/19/19 14/14/14 20/20/20
f 20/20/20 14/14/14 12/12/12
f 20/20/20 12/12/12 21/21/21
f 21/21/21 12/12/12 22/22/22
f 21/21/21 22/22/22 23/23/23
f 23/23/23 22/22/22 24/24/24
f 23/23/23 24/24/24 25/25/25
f 25/25/25 24/24/24 26/26/26
f 25/25/25 26/26/26 27/27/27
f 25/25/25 27/27/27 28/28/28
f 28/28/28 27/27/27 29/29/29
f 30/30/30 31/31/31 32/32/32
f 32/32/32 31/31/31 33/33/33
f 32/32/32 33/33/33 34/34/34
f 34/34/34 33/33/33 35/35/35
f 35/35/35 33/33/33 36/36/36
f 35/35/35 36/36/36 37/37/37
f 37/37/37 36/36/36 38/38/38
f 37/37/37 38/38/38 39/39/39
f 39/39/39 38/38/38 40/40/40
f 39/39/39 40/40/40 41/41/41
f 41/41/41 40/40/40 42/42/42
f 41/41/41 42/42/42 43/43/43
f 41/41/41 43/43/43 44/44/44
f 44/44/44 43/43/43 45/45/45
f 44/44/44 45/45/45 46/46/46
f 44/44/44 46/46/46 47/47/47
f 44/44/44 47/47/47 48/48/48
f 48/48/48 47/47/47 21/21/21
f 48/48/48 21/21/21 49/49/49
f 49/49/49 21/21/21 50/50/50
f 49/49/49 50/50/50 51/51/51
f 51/51/51 50/50/50 25/25/25
f 51/51/51 25/25/25 28/28/28
f 52/52/52 43/43/43 42/42/42
f 52/52/52 42/42/42 53/53/53
f 53/53/53 42/42/42 54/54/54
f 53/53/53 54/54/54 55/55/55
f 55/55/55 54/54/54 38/38/38
f 55/55/55 38/38/38 56/56/56
f 56/56/56 38/38/38 36/36/36
f 56/56/56 36/36/36 57/57/57
f 57/57/57 36/36/36 33/33/33
f 57/57/57 33/33/33 31/31/31
