# Extracted on 10/7/2020 9:44:03 PM
v 2.09808E-07 0.6730701 -0.9143852
vn 1 0 0
vt 0.0004995763 0.0004996061
v 2.09808E-07 0.67307 0.6287233
vn 1 0 0
vt 0.0004994869 0.9995003
v 2.09808E-07 -0.6723364 -0.9143852
vn 1 0 0
vt 0.9995005 0.0004997253
v 2.09808E-07 -0.6723363 0.6287233
vn 1 0 0
vt 0.9995002 0.9995005
v 2.09808E-07 0.6730701 -0.9143852
vn -1 0 0
vt 0.0004995763 0.0004996061
v 2.09808E-07 -0.6723364 -0.9143852
vn -1 0 0
vt 0.9995005 0.0004997253
v 2.09808E-07 0.67307 0.6287233
vn -1 0 0
vt 0.0004994869 0.9995003
v 2.09808E-07 -0.6723363 0.6287233
vn -1 0 0
vt 0.9995002 0.9995005
f 1/1/1 2/2/2 3/3/3
f 3/3/3 2/2/2 4/4/4
f 5/5/5 6/6/6 7/7/7
f 7/7/7 6/6/6 8/8/8
