# Extracted on 10/7/2020 9:44:02 PM
v -0.05113835 -0.05947465 0.01195923
vn 0.04400141 0.005555295 -0.9990161
vt 0.8357874 0.2011422
v -0.06427681 0.07476978 0.0111132
vn 0.519795 -0.1046329 -0.8478593
vt 0.2217607 0.09677064
v -0.05125656 0.05966833 0.01195923
vn 0.04377687 -0.005671392 -0.9990252
vt 0.2758496 0.2088712
v -0.05903916 0.08416033 0.0111132
vn 0.3469074 -0.3307141 -0.877658
vt 0.1420555 0.09922993
v -0.04707885 0.06715851 0.01195923
vn 0.02382627 -0.02180385 -0.9994783
vt 0.1868412 0.2136332
v -0.04328926 0.09312405 0.0111132
vn 0.1073517 -0.4675322 -0.8774334
vt 0.03231314 0.09921479
v -0.03451267 0.07428046 0.01195923
vn 0.00645903 -0.03177435 -0.9994742
vt 0.07317887 0.2130778
v -0.05902409 -0.08403691 0.0111132
vn 0.35203 0.3262438 -0.8772912
vt 0.9629126 0.08136803
v -0.0470891 -0.06701732 0.01195923
vn 0.02434663 0.02143723 -0.9994738
vt 0.9284143 0.1955249
v -0.0641286 -0.07460187 0.0111132
vn 0.5198038 0.1023897 -0.8481276
vt 0.8815759 0.09106421
v -0.06427681 0.07476978 0.0111132
vn 0.519795 -0.1046329 -0.8478593
vt 0.2217607 0.09677064
v -0.04328926 0.09312405 0.0111132
vn -0.1073517 0.4675322 0.8774334
vt 0.03231314 0.09921479
v -0.04622637 0.09943017 0.0003518057
vn -0.2011641 0.7463422 0.6344339
vt 0.009124193 0.03558069
v -0.05903916 0.08416033 0.0111132
vn -0.3469074 0.3307141 0.877658
vt 0.1420555 0.09922993
v -0.06304175 0.08985008 0.0003518057
vn -0.5400503 0.5520948 0.6352458
vt 0.1082303 0.02204883
v -0.06427681 0.07476978 0.0111132
vn -0.519795 0.1046329 0.8478593
vt 0.2217607 0.09677064
v -0.0686341 0.07982357 0.0003518057
vn -0.7901513 0.2460097 0.5613735
vt 0.1881764 0.01429367
v -0.0641286 -0.07460187 0.0111132
vn -0.5198038 -0.1023897 0.8481276
vt 0.8815759 0.09106421
v -0.06847589 -0.07966431 0.0003518057
vn -0.792936 -0.2417731 0.5592839
vt 0.9057431 0.01611626
v -0.05902409 -0.08403691 0.0111132
vn -0.35203 -0.3262438 0.8772912
vt 0.9629126 0.08136803
v -0.0630182 -0.08973262 0.0003518057
vn -0.546626 -0.5466237 0.6343521
vt 0.9782982 0.01600534
v -0.0470891 -0.06701732 0.01195923
vn -0.02434663 -0.02143723 0.9994738
vt 0.9284143 0.1955249
v -0.05113835 -0.05947465 0.01195923
vn -0.04400141 -0.005555295 0.9990161
vt 0.8357874 0.2011422
v -0.04622637 0.09943017 0.0003518057
vn 0.2011641 -0.7463422 -0.6344339
vt 0.009124193 0.03558069
v -0.06304175 0.08985008 0.0003518057
vn 0.5400503 -0.5520948 -0.6352458
vt 0.1082303 0.02204883
v -0.0686341 0.07982357 0.0003518057
vn 0.7901513 -0.2460097 -0.5613735
vt 0.1881764 0.01429367
v -0.06847589 -0.07966431 0.0003518057
vn 0.792936 0.2417731 -0.5592839
vt 0.9057431 0.01611626
v -0.0630182 -0.08973262 0.0003518057
vn 0.546626 0.5466237 -0.6343521
vt 0.9782982 0.01600534
v -0.06427681 0.07476978 0.0111132
vn -0.519795 0.1046329 0.8478593
vt 0.2217607 0.09677064
v -0.05125656 0.05966833 0.01195923
vn -0.04377687 0.005671392 0.9990252
vt 0.2758496 0.2088712
v -0.04707885 0.06715851 0.01195923
vn -0.02382627 0.02180385 0.9994783
vt 0.1868412 0.2136332
v -0.03451267 0.07428046 0.01195923
vn -0.00645903 0.03177435 0.9994742
vt 0.07317887 0.2130778
v 0.07706126 -0.01462624 0.01195923
vn -0.02678689 0.03530152 -0.9990177
vt 0.8357874 0.2011422
v -0.03270643 -0.09301785 0.0111132
vn -0.1687845 0.5026398 -0.8478591
vt 0.2217607 0.09677064
v -0.02611964 -0.0741978 0.01195923
vn -0.01693643 0.04076438 -0.9990252
vt 0.2758496 0.2088712
v -0.04345785 -0.09316654 0.0111132
vn 0.1133274 0.4656728 -0.8776706
vt 0.1420555 0.09922993
v -0.03469529 -0.07431637 0.01195923
vn 0.006995615 0.03153151 -0.9994783
vt 0.1868412 0.2136332
v -0.05902409 -0.08403691 0.0111132
vn 0.35203 0.3262438 -0.8772912
vt 0.03231314 0.09921479
v -0.0470891 -0.06701732 0.01195923
vn 0.02434663 0.02143723 -0.9994738
vt 0.07317887 0.2130778
v 0.1022879 -0.009123191 0.0111132
vn -0.4585004 0.1410243 -0.8774336
vt 0.9629126 0.08136803
v 0.08158148 -0.007291853 0.01195923
vn -0.03074181 0.01030872 -0.9994742
vt 0.9284143 0.1955249
v 0.09665328 -0.01833197 0.0111132
vn -0.348761 0.398931 -0.8480683
vt 0.8815759 0.09106421
v -0.03270643 -0.09301785 0.0111132
vn -0.1687845 0.5026398 -0.8478591
vt 0.2217607 0.09677064
v -0.05902409 -0.08403691 0.0111132
vn -0.35203 -0.3262438 0.8772912
vt 0.03231314 0.09921479
v -0.0630182 -0.08973262 0.0003518057
vn -0.546626 -0.5466237 0.6343521
vt 0.009124193 0.03558069
v -0.04345785 -0.09316654 0.0111132
vn -0.1133274 -0.4656728 0.8776706
vt 0.1420555 0.09922993
v -0.04639028 -0.09947485 0.0003518057
vn -0.2087194 -0.7435805 0.6352356
vt 0.1082303 0.02204883
v -0.03270643 -0.09301785 0.0111132
vn 0.1687845 -0.5026398 0.8478591
vt 0.2217607 0.09677064
v -0.03491073 -0.09931609 0.0003518057
vn 0.1812245 -0.8074762 0.5613732
vt 0.1881764 0.01429367
v 0.09665328 -0.01833197 0.0111132
vn 0.348761 -0.398931 0.8480683
vt 0.8815759 0.09106421
v 0.1032099 -0.0195721 0.0003518057
vn 0.6060585 -0.5651752 0.5597054
vt 0.9057431 0.01611626
v 0.1022879 -0.009123191 0.0111132
vn 0.4585004 -0.1410243 0.8774336
vt 0.9629126 0.08136803
v 0.1092174 -0.009736046 0.0003518057
vn 0.7468342 -0.1993281 0.6344345
vt 0.9782982 0.01600534
v 0.08158148 -0.007291853 0.01195923
vn 0.03074181 -0.01030872 0.9994742
vt 0.9284143 0.1955249
v 0.07706126 -0.01462624 0.01195923
vn 0.02678689 -0.03530152 0.9990177
vt 0.8357874 0.2011422
v -0.0630182 -0.08973262 0.0003518057
vn 0.546626 0.5466237 -0.6343521
vt 0.009124193 0.03558069
v -0.04639028 -0.09947485 0.0003518057
vn 0.2087194 0.7435805 -0.6352356
vt 0.1082303 0.02204883
v -0.03491073 -0.09931609 0.0003518057
vn -0.1812245 0.8074762 -0.5613732
vt 0.1881764 0.01429367
v 0.1032099 -0.0195721 0.0003518057
vn -0.6060585 0.5651752 -0.5597054
vt 0.9057431 0.01611626
v 0.1092174 -0.009736046 0.0003518057
vn -0.7468342 0.1993281 -0.6344345
vt 0.9782982 0.01600534
v -0.03270643 -0.09301785 0.0111132
vn 0.1687845 -0.5026398 0.8478591
vt 0.2217607 0.09677064
v -0.02611964 -0.0741978 0.01195923
vn 0.01693643 -0.04076438 0.9990252
vt 0.2758496 0.2088712
v -0.03469529 -0.07431637 0.01195923
vn -0.006995615 -0.03153151 0.9994783
vt 0.1868412 0.2136332
v -0.0470891 -0.06701732 0.01195923
vn -0.02434663 -0.02143723 0.9994738
vt 0.07317887 0.2130778
v -0.02590069 0.07403728 0.01195923
vn -0.01715832 -0.04085739 -0.9990177
vt 0.8357874 0.2011422
v 0.09689999 0.0182324 0.0111132
vn -0.3507097 -0.3976655 -0.847859
vt 0.2217607 0.09677064
v 0.07730978 0.01451697 0.01195923
vn -0.0268174 -0.03506288 -0.9990252
vt 0.2758496 0.2088712
v 0.102409 0.008998446 0.0111132
vn -0.4599271 -0.134845 -0.8776582
vt 0.1420555 0.09922993
v 0.08170395 0.007151701 0.01195923
vn -0.03080066 -0.009716962 -0.9994783
vt 0.1868412 0.2136332
v 0.1022879 -0.009123191 0.0111132
vn -0.4585004 0.1410243 -0.8774336
vt 0.03231314 0.09921479
v 0.08158148 -0.007291853 0.01195923
vn -0.03074181 0.01030872 -0.9994742
vt 0.07317887 0.2130778
v -0.04328926 0.09312405 0.0111132
vn 0.1073517 -0.4675322 -0.8774334
vt 0.9629126 0.08136803
v -0.03451267 0.07428046 0.01195923
vn 0.00645903 -0.03177435 -0.9994742
vt 0.9284143 0.1955249
v -0.03249677 0.09285405 0.0111132
vn -0.1708552 -0.5015858 -0.8480685
vt 0.8815759 0.09106421
v 0.09689999 0.0182324 0.0111132
vn -0.3507097 -0.3976655 -0.847859
vt 0.2217607 0.09677064
v 0.1022879 -0.009123191 0.0111132
vn 0.4585004 -0.1410243 0.8774336
vt 0.03231314 0.09921479
v 0.1092174 -0.009736046 0.0003518057
vn 0.7468342 -0.1993281 0.6344345
vt 0.009124193 0.03558069
v 0.102409 0.008998446 0.0111132
vn 0.4599271 0.134845 0.8776582
vt 0.1420555 0.09922993
v 0.1093381 0.009616487 0.0003518057
vn 0.748248 0.1912787 0.635246
vt 0.1082303 0.02204883
v 0.09689999 0.0182324 0.0111132
vn 0.3507097 0.3976655 0.847859
vt 0.2217607 0.09677064
v 0.1034559 0.01947578 0.0003518057
vn 0.6084049 0.5609852 0.5613726
vt 0.1881764 0.01429367
v -0.03249677 0.09285405 0.0111132
vn 0.1708552 0.5015858 0.8480685
vt 0.8815759 0.09106421
v -0.03470422 0.09915124 0.0003518057
vn 0.1860265 0.8075418 0.5597057
vt 0.9057431 0.01611626
v -0.04328926 0.09312405 0.0111132
vn -0.1073517 0.4675322 0.8774334
vt 0.9629126 0.08136803
v -0.04622637 0.09943017 0.0003518057
vn -0.2011641 0.7463422 0.6344339
vt 0.9782982 0.01600534
v -0.03451267 0.07428046 0.01195923
vn -0.00645903 0.03177435 0.9994742
vt 0.9284143 0.1955249
v -0.02590069 0.07403728 0.01195923
vn 0.01715832 0.04085739 0.9990177
vt 0.8357874 0.2011422
v 0.1092174 -0.009736046 0.0003518057
vn -0.7468342 0.1993281 -0.6344345
vt 0.009124193 0.03558069
v 0.1093381 0.009616487 0.0003518057
vn -0.748248 -0.1912787 -0.635246
vt 0.1082303 0.02204883
v 0.1034559 0.01947578 0.0003518057
vn -0.6084049 -0.5609852 -0.5613726
vt 0.1881764 0.01429367
v -0.03470422 0.09915124 0.0003518057
vn -0.1860265 -0.8075418 -0.5597057
vt 0.9057431 0.01611626
v -0.04622637 0.09943017 0.0003518057
vn 0.2011641 -0.7463422 -0.6344339
vt 0.9782982 0.01600534
v 0.09689999 0.0182324 0.0111132
vn 0.3507097 0.3976655 0.847859
vt 0.2217607 0.09677064
v 0.07730978 0.01451697 0.01195923
vn 0.0268174 0.03506288 0.9990252
vt 0.2758496 0.2088712
v 0.08170395 0.007151701 0.01195923
vn 0.03080066 0.009716962 0.9994783
vt 0.1868412 0.2136332
v 0.08158148 -0.007291853 0.01195923
vn 0.03074181 -0.01030872 0.9994742
vt 0.07317887 0.2130778
v -0.002792865 0.01819855 0.2130856
vn -0.1375788 0.9218889 0.3622055
vt 0.3910003 0.9861883
v -0.03451267 0.07428046 0.01195923
vn -0.2364727 0.8986928 0.369367
vt 0.07317887 0.2130778
v -0.01383425 0.01258847 0.2130856
vn -0.6912748 0.6225151 0.3668981
vt 0.46266 0.9961156
v -0.04707885 0.06715851 0.01195923
vn -0.6509383 0.6611829 0.3729834
vt 0.1868412 0.2136332
v -0.0182077 0.002557017 0.2130856
vn -0.9517299 0.1639319 0.2594928
vt 0.5356439 0.9980039
v -0.05125656 0.05966833 0.01195923
vn -0.915207 0.2750269 0.2945443
vt 0.2758496 0.2088712
v -0.05113835 -0.05947465 0.01195923
vn -0.9195374 -0.2668932 0.2884771
vt 0.8357874 0.2011422
v -0.01820289 -0.002297856 0.2130856
vn -0.9531151 -0.1569505 0.2587243
vt 0.5893317 0.9951101
v -0.01436706 -0.01151376 0.2130856
vn -0.7297935 -0.5798908 0.3621163
vt 0.6506954 0.9842156
v -0.0470891 -0.06701732 0.01195923
vn -0.6610947 -0.6531477 0.3692586
vt 0.9284143 0.1955249
v -0.01436706 -0.01151376 0.2130856
vn -0.7297935 -0.5798908 0.3621163
vt 0.3910003 0.9861883
v -0.0470891 -0.06701732 0.01195923
vn -0.6610947 -0.6531477 0.3692586
vt 0.07317887 0.2130778
v -0.004002959 -0.0182711 0.2130856
vn -0.1942419 -0.9097641 0.366878
vt 0.46266 0.9961156
v -0.03469529 -0.07431637 0.01195923
vn -0.2478721 -0.894121 0.3729708
vt 0.1868412 0.2136332
v 0.006872475 -0.01705369 0.2130856
vn 0.3329968 -0.906519 0.2594928
vt 0.5356439 0.9980039
v -0.02611964 -0.0741978 0.01195923
vn 0.2185 -0.9303232 0.2945445
vt 0.2758496 0.2088712
v 0.07706126 -0.01462624 0.01195923
vn 0.691304 -0.6623301 0.2888212
vt 0.8357874 0.2011422
v 0.01107693 -0.01462624 0.2130856
vn 0.6118507 -0.7474464 0.2587714
vt 0.5893317 0.9951101
v 0.0171535 -0.006689131 0.2130856
vn 0.8669991 -0.3422277 0.3622055
vt 0.6506954 0.9842156
v 0.08158148 -0.007291853 0.01195923
vn 0.8964058 -0.2449992 0.369367
vt 0.9284143 0.1955249
v 0.0171535 -0.006689131 0.2130856
vn 0.8669991 -0.3422277 0.3622055
vt 0.3910003 0.9861883
v 0.08158148 -0.007291853 0.01195923
vn 0.8964058 -0.2449992 0.369367
vt 0.07317887 0.2130778
v 0.01782186 0.005677715 0.2130856
vn 0.8848938 0.286965 0.3668982
vt 0.46266 0.9961156
v 0.08170395 0.007151701 0.01195923
vn 0.8981858 0.2326921 0.3729834
vt 0.1868412 0.2136332
v 0.01132546 0.01448418 0.2130856
vn 0.6182025 0.7419496 0.2594929
vt 0.5356439 0.9980039
v 0.07730978 0.01451697 0.01195923
vn 0.6961085 0.6547341 0.2945443
vt 0.2758496 0.2088712
v -0.02590069 0.07403728 0.01195923
vn 0.2274825 0.9299647 0.2888211
vt 0.8357874 0.2011422
v 0.007119805 0.01690955 0.2130856
vn 0.3409343 0.9037706 0.2587713
vt 0.5893317 0.9951101
v -0.002792865 0.01819855 0.2130856
vn -0.1375788 0.9218889 0.3622055
vt 0.6506954 0.9842156
v -0.03451267 0.07428046 0.01195923
vn -0.2364727 0.8986928 0.369367
vt 0.9284143 0.1955249
v -0.002792865 0.01819855 0.2130856
vn 0.1375788 -0.9218889 -0.3622055
vt 0.3910003 0.9861883
v -0.01383425 0.01258847 0.2130856
vn 0.6912748 -0.6225151 -0.3668981
vt 0.46266 0.9961156
v -0.03451267 0.07428046 0.01195923
vn 0.2364727 -0.8986928 -0.369367
vt 0.07317887 0.2130778
v -0.04707885 0.06715851 0.01195923
vn 0.6509383 -0.6611829 -0.3729834
vt 0.1868412 0.2136332
v -0.0182077 0.002557017 0.2130856
vn 0.9517299 -0.1639319 -0.2594928
vt 0.5356439 0.9980039
v -0.05125656 0.05966833 0.01195923
vn 0.915207 -0.2750269 -0.2945443
vt 0.2758496 0.2088712
v -0.05113835 -0.05947465 0.01195923
vn 0.9195374 0.2668932 -0.2884771
vt 0.8357874 0.2011422
v -0.01820289 -0.002297856 0.2130856
vn 0.9531151 0.1569505 -0.2587243
vt 0.5893317 0.9951101
v -0.01436706 -0.01151376 0.2130856
vn 0.7297935 0.5798908 -0.3621163
vt 0.6506954 0.9842156
v -0.0470891 -0.06701732 0.01195923
vn 0.6610947 0.6531477 -0.3692586
vt 0.9284143 0.1955249
v -0.01436706 -0.01151376 0.2130856
vn 0.7297935 0.5798908 -0.3621163
vt 0.3910003 0.9861883
v -0.0470891 -0.06701732 0.01195923
vn 0.6610947 0.6531477 -0.3692586
vt 0.07317887 0.2130778
v -0.004002959 -0.0182711 0.2130856
vn 0.1942419 0.9097641 -0.366878
vt 0.46266 0.9961156
v -0.03469529 -0.07431637 0.01195923
vn 0.2478721 0.894121 -0.3729708
vt 0.1868412 0.2136332
v 0.006872475 -0.01705369 0.2130856
vn -0.3329968 0.906519 -0.2594928
vt 0.5356439 0.9980039
v -0.02611964 -0.0741978 0.01195923
vn -0.2185 0.9303232 -0.2945445
vt 0.2758496 0.2088712
v 0.07706126 -0.01462624 0.01195923
vn -0.691304 0.6623301 -0.2888212
vt 0.8357874 0.2011422
v 0.01107693 -0.01462624 0.2130856
vn -0.6118507 0.7474464 -0.2587714
vt 0.5893317 0.9951101
v 0.0171535 -0.006689131 0.2130856
vn -0.8669991 0.3422277 -0.3622055
vt 0.6506954 0.9842156
v 0.08158148 -0.007291853 0.01195923
vn -0.8964058 0.2449992 -0.369367
vt 0.9284143 0.1955249
v 0.0171535 -0.006689131 0.2130856
vn -0.8669991 0.3422277 -0.3622055
vt 0.3910003 0.9861883
v 0.08158148 -0.007291853 0.01195923
vn -0.8964058 0.2449992 -0.369367
vt 0.07317887 0.2130778
v 0.01782186 0.005677715 0.2130856
vn -0.8848938 -0.286965 -0.3668982
vt 0.46266 0.9961156
v 0.08170395 0.007151701 0.01195923
vn -0.8981858 -0.2326921 -0.3729834
vt 0.1868412 0.2136332
v 0.01132546 0.01448418 0.2130856
vn -0.6182025 -0.7419496 -0.2594929
vt 0.5356439 0.9980039
v 0.07730978 0.01451697 0.01195923
vn -0.6961085 -0.6547341 -0.2945443
vt 0.2758496 0.2088712
v -0.02590069 0.07403728 0.01195923
vn -0.2274825 -0.9299647 -0.2888211
vt 0.8357874 0.2011422
v 0.007119805 0.01690955 0.2130856
vn -0.3409343 -0.9037706 -0.2587713
vt 0.5893317 0.9951101
v -0.002792865 0.01819855 0.2130856
vn 0.1375788 -0.9218889 -0.3622055
vt 0.6506954 0.9842156
v -0.03451267 0.07428046 0.01195923
vn 0.2364727 -0.8986928 -0.369367
vt 0.9284143 0.1955249
f 1/1/1 2/2/2 3/3/3
f 3/3/3 2/2/2 4/4/4
f 3/3/3 4/4/4 5/5/5
f 5/5/5 4/4/4 6/6/6
f 5/5/5 6/6/6 7/7/7
f 9/9/9 8/8/8 10/10/10
f 9/9/9 10/10/10 1/1/1
f 1/1/1 10/10/10 11/11/11
f 12/12/12 13/13/13 14/14/14
f 14/14/14 13/13/13 15/15/15
f 14/14/14 15/15/15 16/16/16
f 16/16/16 15/15/15 17/17/17
f 16/16/16 17/17/17 18/18/18
f 18/18/18 17/17/17 19/19/19
f 18/18/18 19/19/19 20/20/20
f 20/20/20 19/19/19 21/21/21
f 20/20/20 22/22/22 18/18/18
f 18/18/18 22/22/22 23/23/23
f 18/18/18 23/23/23 16/16/16
f 24/24/24 6/6/6 4/4/4
f 24/24/24 4/4/4 25/25/25
f 25/25/25 4/4/4 11/11/11
f 25/25/25 11/11/11 26/26/26
f 26/26/26 11/11/11 10/10/10
f 26/26/26 10/10/10 27/27/27
f 27/27/27 10/10/10 8/8/8
f 27/27/27 8/8/8 28/28/28
f 29/29/29 23/23/23 30/30/30
f 29/29/29 30/30/30 14/14/14
f 14/14/14 30/30/30 31/31/31
f 14/14/14 31/31/31 12/12/12
f 12/12/12 31/31/31 32/32/32
f 33/33/33 34/34/34 35/35/35
f 35/35/35 34/34/34 36/36/36
f 35/35/35 36/36/36 37/37/37
f 37/37/37 36/36/36 38/38/38
f 37/37/37 38/38/38 39/39/39
f 41/41/41 40/40/40 42/42/42
f 41/41/41 42/42/42 33/33/33
f 33/33/33 42/42/42 43/43/43
f 44/44/44 45/45/45 46/46/46
f 46/46/46 45/45/45 47/47/47
f 46/46/46 47/47/47 48/48/48
f 48/48/48 47/47/47 49/49/49
f 48/48/48 49/49/49 50/50/50
f 50/50/50 49/49/49 51/51/51
f 50/50/50 51/51/51 52/52/52
f 52/52/52 51/51/51 53/53/53
f 52/52/52 54/54/54 50/50/50
f 50/50/50 54/54/54 55/55/55
f 50/50/50 55/55/55 48/48/48
f 56/56/56 38/38/38 36/36/36
f 56/56/56 36/36/36 57/57/57
f 57/57/57 36/36/36 43/43/43
f 57/57/57 43/43/43 58/58/58
f 58/58/58 43/43/43 42/42/42
f 58/58/58 42/42/42 59/59/59
f 59/59/59 42/42/42 40/40/40
f 59/59/59 40/40/40 60/60/60
f 61/61/61 55/55/55 62/62/62
f 61/61/61 62/62/62 46/46/46
f 46/46/46 62/62/62 63/63/63
f 46/46/46 63/63/63 44/44/44
f 44/44/44 63/63/63 64/64/64
f 65/65/65 66/66/66 67/67/67
f 67/67/67 66/66/66 68/68/68
f 67/67/67 68/68/68 69/69/69
f 69/69/69 68/68/68 70/70/70
f 69/69/69 70/70/70 71/71/71
f 73/73/73 72/72/72 74/74/74
f 73/73/73 74/74/74 65/65/65
f 65/65/65 74/74/74 75/75/75
f 76/76/76 77/77/77 78/78/78
f 78/78/78 77/77/77 79/79/79
f 78/78/78 79/79/79 80/80/80
f 80/80/80 79/79/79 81/81/81
f 80/80/80 81/81/81 82/82/82
f 82/82/82 81/81/81 83/83/83
f 82/82/82 83/83/83 84/84/84
f 84/84/84 83/83/83 85/85/85
f 84/84/84 86/86/86 82/82/82
f 82/82/82 86/86/86 87/87/87
f 82/82/82 87/87/87 80/80/80
f 88/88/88 70/70/70 68/68/68
f 88/88/88 68/68/68 89/89/89
f 89/89/89 68/68/68 75/75/75
f 89/89/89 75/75/75 90/90/90
f 90/90/90 75/75/75 74/74/74
f 90/90/90 74/74/74 91/91/91
f 91/91/91 74/74/74 72/72/72
f 91/91/91 72/72/72 92/92/92
f 93/93/93 87/87/87 94/94/94
f 93/93/93 94/94/94 78/78/78
f 78/78/78 94/94/94 95/95/95
f 78/78/78 95/95/95 76/76/76
f 76/76/76 95/95/95 96/96/96
f 97/97/97 98/98/98 99/99/99
f 99/99/99 98/98/98 100/100/100
f 99/99/99 100/100/100 101/101/101
f 101/101/101 100/100/100 102/102/102
f 101/101/101 102/102/102 103/103/103
f 101/101/101 103/103/103 104/104/104
f 104/104/104 103/103/103 105/105/105
f 105/105/105 103/103/103 106/106/106
f 107/107/107 108/108/108 109/109/109
f 109/109/109 108/108/108 110/110/110
f 109/109/109 110/110/110 111/111/111
f 111/111/111 110/110/110 112/112/112
f 111/111/111 112/112/112 113/113/113
f 111/111/111 113/113/113 114/114/114
f 114/114/114 113/113/113 115/115/115
f 115/115/115 113/113/113 116/116/116
f 117/117/117 118/118/118 119/119/119
f 119/119/119 118/118/118 120/120/120
f 119/119/119 120/120/120 121/121/121
f 121/121/121 120/120/120 122/122/122
f 121/121/121 122/122/122 123/123/123
f 121/121/121 123/123/123 124/124/124
f 124/124/124 123/123/123 125/125/125
f 125/125/125 123/123/123 126/126/126
f 127/127/127 128/128/128 129/129/129
f 129/129/129 128/128/128 130/130/130
f 130/130/130 128/128/128 131/131/131
f 130/130/130 131/131/131 132/132/132
f 132/132/132 131/131/131 133/133/133
f 133/133/133 131/131/131 134/134/134
f 133/133/133 134/134/134 135/135/135
f 133/133/133 135/135/135 136/136/136
f 138/138/138 137/137/137 139/139/139
f 138/138/138 139/139/139 140/140/140
f 140/140/140 139/139/139 141/141/141
f 140/140/140 141/141/141 142/142/142
f 142/142/142 141/141/141 143/143/143
f 143/143/143 141/141/141 144/144/144
f 143/143/143 144/144/144 145/145/145
f 143/143/143 145/145/145 146/146/146
f 148/148/148 147/147/147 149/149/149
f 148/148/148 149/149/149 150/150/150
f 150/150/150 149/149/149 151/151/151
f 150/150/150 151/151/151 152/152/152
f 152/152/152 151/151/151 153/153/153
f 153/153/153 151/151/151 154/154/154
f 153/153/153 154/154/154 155/155/155
f 153/153/153 155/155/155 156/156/156
