# Extracted on 10/7/2020 9:44:03 PM
v 0 0.03051315 0.09692832
vn 0 1 0
vt 0.9104383 0.05310094
v -0.07629323 0.03051315 0.09692831
vn 0 1 0
vt 0.8736329 0.05310094
v 0 0.03051315 0.8884452
vn 0 1 0
vt 0.9104383 0.4489472
v -1.052131 0.03051315 0.09692832
vn 0 1 0
vt 0.4028698 0.05310094
v -0.5859401 0.03051315 0.09692832
vn 0 1 0
vt 0.6277692 0.05310094
v -1.052131 0.03051315 0
vn 0 1 0
vt 0.4028698 0.006340742
v -0.5859401 0.03051315 0
vn 0 1 0
vt 0.6277692 0.006340742
v -0.07629323 0.03051315 0
vn 0 1 0
vt 0.8736329 0.006340742
v 0 0.03051315 0
vn 0 1 0
vt 0.9104383 0.006340742
v -1.052131 0.03051315 1.784543
vn 0 1 0
vt 0.4028698 0.8873839
v -0.5859401 0.03051315 1.784543
vn 0 1 0
vt 0.6277692 0.8873841
v -1.052131 0.03051315 0.8884452
vn 0 1 0
vt 0.4028698 0.4489471
v -0.5859401 0.03051315 0.8884452
vn 0 1 0
vt 0.6277692 0.4489472
v -0.07629323 0.03051315 0.8884452
vn 0 1 0
vt 0.8736329 0.4489472
v 0 0.03051315 1.784543
vn 0 1 0
vt 0.9104383 0.8873841
v -0.07629323 0.03051315 1.784543
vn 0 1 0
vt 0.8736329 0.8873841
v -1.114211 0.03051315 0
vn 0 1 0
vt 0.3729208 0.006340742
v -1.114211 0.03051315 0.09692832
vn 0 1 0
vt 0.3729208 0.05310094
v -1.114211 0.03051315 0.8884452
vn 0 1 0
vt 0.3729208 0.4489471
v -1.114211 0.03051315 1.784543
vn 0 1 0
vt 0.3729208 0.8873839
v -1.114211 0.03051315 1.858244
vn 0 1 0
vt 0.3729208 0.922939
v -1.052131 0.03051315 1.858244
vn 0 1 0
vt 0.4028698 0.922939
v -0.5859401 0.03051315 1.858244
vn 0 1 0
vt 0.6277692 0.9229391
v -0.07629323 0.03051315 1.858244
vn 0 1 0
vt 0.8736329 0.9229392
v 0 0.03051315 1.858244
vn 0 1 0
vt 0.9104383 0.9229392
v -1.170701 0.03051315 1.75637
vn 0 1 9.000001E-10
vt 0.1201668 0.878311
v -1.207473 0.03051315 1.890786
vn 0 1 0
vt 0.1379061 0.9431564
v -1.170701 0.03051315 1.9
vn 0 1 0
vt 0.1201669 0.9476012
v -1.185925 0.03051315 1.9
vn 0 1 0
vt 0.1275113 0.9476012
v -1.296132 0.03051315 0
vn 0 1 4.000001E-10
vt 0.180677 0.03100294
v -1.296132 0.03051315 0.2923561
vn 0 1 4.000001E-10
vt 0.180677 0.1720414
v -1.170701 0.03051315 0
vn 0 1 4.000001E-10
vt 0.1201666 0.03100294
v -1.302503 0.03051315 0.3082362
vn 0 1 4.000001E-10
vt 0.1837508 0.1797024
v -1.170701 0.03051315 0.3944868
vn 0 1 1.1E-09
vt 0.1201667 0.2213113
v -1.293236 0.03051315 0.4625619
vn 0 1 1E-09
vt 0.1792801 0.2541522
v -1.217906 0.03051315 1.717032
vn 0 1 9.000001E-10
vt 0.1429396 0.8593338
v -1.391196 0.03051315 1.70513
vn 0 1 0
vt 0.2265379 0.8535921
v -1.391442 0.03051315 1.572418
vn 0 1 -1.5E-09
vt 0.226657 0.7895692
v -1.399999 0.03051315 1.683174
vn 0 1 0
vt 0.230785 0.8429997
v -1.399999 0.03051315 1.565288
vn 0 1 -1.5E-09
vt 0.230785 0.7861292
v -1.393404 0.03051315 0.5182108
vn 0 1 6.500001E-09
vt 0.2276032 0.2809983
v -1.399999 0.03051315 0.521875
vn 0 1 6.500001E-09
vt 0.230785 0.2827659
v -1.399999 0.03051315 0.4137033
vn 0 1 1.61E-08
vt 0.230785 0.2305816
v -1.393628 0.03051315 0.3978232
vn 0 1 3E-09
vt 0.2277113 0.2229209
v -1.185925 -0.03051315 1.9
vn 0 -1 0
vt 0.2472195 0.03100294
v -1.207473 -0.03051315 1.890786
vn 0 -1 -3E-09
vt 0.2576144 0.03544772
v -1.170701 -0.03051315 1.9
vn 0 -1 -3E-09
vt 0.2398751 0.03100294
v -1.170701 -0.03051315 1.75637
vn 0 -1 -1.7E-09
vt 0.2398751 0.1002931
v -1.296132 -0.03051315 0
vn 0 -1 2.3E-09
vt 0.3003853 0.9476012
v -1.170701 -0.03051315 0
vn 0 -1 2.3E-09
vt 0.2398749 0.9476012
v -1.296132 -0.03051315 0.2923561
vn 0 -1 2.3E-09
vt 0.3003853 0.8065627
v -1.302503 -0.03051315 0.3082362
vn 0 -1 2.3E-09
vt 0.3034589 0.7989017
v -1.170701 -0.03051315 0.3944868
vn 0 -1 1E-09
vt 0.2398749 0.7572928
v -1.293236 -0.03051315 0.4625619
vn 0 -1 1.6E-09
vt 0.2989883 0.7244519
v -1.217906 -0.03051315 1.717032
vn 0 -1 -1E-10
vt 0.2626478 0.1192703
v -1.391196 -0.03051315 1.70513
vn 0 -1 -3E-10
vt 0.346246 0.1250119
v -1.391442 -0.03051315 1.572418
vn 0 -1 -1E-10
vt 0.3463651 0.1890348
v -1.399999 -0.03051315 1.683174
vn 0 -1 0
vt 0.3504931 0.1356044
v -1.399999 -0.03051315 1.565288
vn 0 -1 -1.5E-09
vt 0.3504931 0.1924748
v -1.393404 -0.03051315 0.5182108
vn 0 -1 6.500001E-09
vt 0.3473113 0.697606
v -1.399999 -0.03051315 0.521875
vn 0 -1 6.500001E-09
vt 0.3504931 0.6958383
v -1.399999 -0.03051315 0.4137033
vn 0 -1 1.61E-08
vt 0.3504931 0.7480224
v -1.393628 -0.03051315 0.3978232
vn 0 -1 3E-09
vt 0.3474194 0.7556834
v -1.141404 0.003465116 0
vn 0 0 -1
vt 0.33002 0.8073905
v -1.141404 -0.00346512 0
vn 0 0 -1
vt 0.334406 0.8085557
v -1.170701 0.03051315 0
vn 0 0 -1
vt 0.3168759 0.8214351
v -1.170701 -0.03051315 0
vn 0 0 -1
vt 0.3456203 0.8208729
v -1.296132 -0.03051315 0
vn 0 0 -1
vt 0.3459066 0.8821431
v -1.296132 0.03051315 0
vn 0 0 -1
vt 0.316467 0.8819443
v -1.141404 -0.00346512 0
vn 1 0 0
vt 0.07871777 0.9476032
v -1.141404 0.003465116 0
vn 1 0 0
vt 0.07692134 0.9476012
v -1.141404 -0.00346512 0.3782108
vn 1 1.2558E-06 0
vt 0.07902568 0.7651463
v -1.141404 0.003465116 0.3782107
vn 1 1.2558E-06 0
vt 0.07692134 0.7651447
v -1.141404 -0.00346512 1.780784
vn 1 1.2558E-06 0
vt 0.08016756 0.08851516
v -1.141404 0.003465116 1.780784
vn 1 1.2558E-06 0
vt 0.07692134 0.08851504
v -1.141404 0.003465116 1.9
vn 1 0 0
vt 0.07692134 0.03100288
v -1.141404 -0.00346512 1.9
vn 1 0 0
vt 0.08026463 0.03100288
v -1.141404 -0.00346512 1.9
vn 0.678337 -0.734751 1.038E-07
vt 0.08026463 0.03100288
v -1.170701 -0.03051315 1.9
vn 0.678337 -0.734751 1.038E-07
vt 0.0933131 0.03100288
v -1.141404 -0.00346512 1.780784
vn 0.6783387 -0.7347494 1.059E-07
vt 0.08016756 0.08851516
v -1.170701 -0.03051315 1.75637
vn 0.6783387 -0.7347494 1.059E-07
vt 0.09346899 0.1002928
v -1.141404 -0.00346512 0.3782108
vn 0.678342 -0.7347464 1.112E-07
vt 0.07902568 0.7651463
v -1.170701 -0.03051315 0.3944868
vn 0.678342 -0.7347464 1.112E-07
vt 0.09494718 0.7572904
v -1.170701 -0.03051315 0
vn 0.6783435 -0.734745 1.145E-07
vt 0.09537536 0.9475982
v -1.141404 -0.00346512 0
vn 0.6783435 -0.734745 1.145E-07
vt 0.07871777 0.9476032
v -1.141404 0.003465116 0
vn 0.6783437 0.7347448 9.98E-08
vt 0.07692134 0.9476012
v -1.170701 0.03051315 0
vn 0.6783437 0.7347448 9.98E-08
vt 0.06387281 0.9476012
v -1.141404 0.003465116 0.3782107
vn 0.6783422 0.7347462 1.038E-07
vt 0.07692134 0.7651447
v -1.170701 0.03051315 0.3944868
vn 0.6783422 0.7347462 1.038E-07
vt 0.06387281 0.7572928
v -1.170701 0.03051315 1.75637
vn 0.678339 0.7347491 1.295E-07
vt 0.06387281 0.100293
v -1.141404 0.003465116 1.780784
vn 0.678339 0.7347491 1.295E-07
vt 0.07692134 0.08851504
v -1.170701 0.03051315 1.9
vn 0.6783373 0.7347507 1.512E-07
vt 0.06387281 0.03100288
v -1.141404 0.003465116 1.9
vn 0.6783373 0.7347507 1.512E-07
vt 0.07692134 0.03100288
v -0.07629323 -0.03051315 1.784543
vn 0 -1 0
vt 0.8736329 0.8873841
v -0.5859401 -0.03051315 1.784543
vn 0 -1 0
vt 0.6277692 0.8873839
v -0.07629323 -0.03051315 0.8884452
vn 0 -1 0
vt 0.8736329 0.4489472
v -0.5859401 -0.03051315 0.8884452
vn 0 -1 0
vt 0.6277692 0.4489471
v -0.07629323 -0.03051315 0.09692832
vn 0 -1 0
vt 0.8736329 0.05310088
v -0.5859401 -0.03051315 0.09692832
vn 0 -1 0
vt 0.6277692 0.05310082
v 0 -0.03051315 1.784543
vn 0 -1 0
vt 0.9104383 0.8873841
v 0 -0.03051315 0.8884452
vn 0 -1 0
vt 0.9104383 0.4489472
v 0 -0.03051315 0.09692832
vn 0 -1 0
vt 0.9104383 0.05310094
v 0 -0.03051315 0
vn 0 -1 0
vt 0.9104383 0.006340742
v -0.07629323 -0.03051315 0
vn 0 -1 0
vt 0.8736329 0.006340742
v -0.5859401 -0.03051315 0
vn 0 -1 0
vt 0.6277692 0.006340623
v -1.052131 -0.03051315 0
vn 0 -1 0
vt 0.4028698 0.006340504
v -1.052131 -0.03051315 0.09692832
vn 0 -1 0
vt 0.4028698 0.05310071
v -1.052131 -0.03051315 0.8884452
vn 0 -1 0
vt 0.4028698 0.448947
v -1.052131 -0.03051315 1.784543
vn 0 -1 0
vt 0.4028698 0.8873839
v 0 -0.03051315 1.858244
vn 0 -1 0
vt 0.9104383 0.9229392
v -0.07629323 -0.03051315 1.858244
vn 0 -1 0
vt 0.8736329 0.9229392
v -0.5859401 -0.03051315 1.858244
vn 0 -1 0
vt 0.6277692 0.9229391
v -1.05213 -0.03051315 1.858244
vn 0 -1 0
vt 0.4028698 0.922939
v -1.114211 -0.03051315 1.858244
vn 0 -1 0
vt 0.3729208 0.922939
v -1.114211 -0.03051315 1.784543
vn 0 -1 0
vt 0.3729208 0.8873839
v -1.114211 -0.03051315 0.8884452
vn 0 -1 0
vt 0.3729208 0.448947
v -1.114211 -0.03051315 0.09692832
vn 0 -1 0
vt 0.3729208 0.05310071
v -1.114211 -0.03051315 0
vn 0 -1 0
vt 0.3729208 0.006340504
v -1.141404 -0.00346512 1.858244
vn -1 0 0
vt 0.9793955 0.94934
v -1.141404 0.003465116 1.858244
vn -1 0 0
vt 0.9760523 0.94934
v -1.141404 -0.00346512 1.784543
vn -1 0 0
vt 0.9793955 0.9137849
v -1.141404 0.003465116 1.784543
vn -1 0 0
vt 0.9760523 0.9137849
v -1.141404 -0.00346512 0.8884452
vn -1 0 0
vt 0.9793955 0.4753481
v -1.141404 0.003465116 0.8884452
vn -1 0 0
vt 0.9760523 0.4753481
v -1.141404 -0.00346512 0.09692832
vn -1 0 0
vt 0.9793955 0.07950193
v -1.141404 0.003465116 0.09692832
vn -1 0 0
vt 0.9760523 0.07950193
v -1.141404 -0.00346512 0
vn -1 0 0
vt 0.9793955 0.03274173
v -1.141404 0.003465116 0
vn -1 0 0
vt 0.9760523 0.03274173
v -1.114211 -0.03051315 1.858244
vn -0.7052223 -0.7089863 0
vt 0.9924442 0.94934
v -1.141404 -0.00346512 1.858244
vn -0.7052223 -0.7089863 0
vt 0.9793955 0.94934
v -1.114211 -0.03051315 1.784543
vn -0.7052227 -0.7089859 0
vt 0.9924442 0.9137849
v -1.141404 -0.00346512 1.784543
vn -0.7052227 -0.7089859 0
vt 0.9793955 0.9137849
v -1.114211 -0.03051315 0.8884452
vn -0.7052227 -0.7089859 0
vt 0.9924442 0.4753481
v -1.141404 -0.00346512 0.8884452
vn -0.7052227 -0.7089859 0
vt 0.9793955 0.4753481
v -1.114211 -0.03051315 0.09692832
vn -0.7052223 -0.7089863 0
vt 0.9924442 0.07950193
v -1.141404 -0.00346512 0.09692832
vn -0.7052223 -0.7089863 0
vt 0.9793955 0.07950193
v -1.114211 -0.03051315 0
vn -0.7052221 -0.7089865 0
vt 0.9924442 0.03274173
v -1.141404 -0.00346512 0
vn -0.7052221 -0.7089865 0
vt 0.9793955 0.03274173
v 0 0.03051315 1.858244
vn 1 0 0
vt 0.9168071 0.006484866
v 0 -0.03051315 1.858244
vn 1 0 0
vt 0.9462472 0.006484866
v 0 0.03051315 1.784543
vn 1 0 0
vt 0.9168071 0.04203999
v 0 -0.03051315 1.784543
vn 1 0 0
vt 0.9462472 0.04203999
v 0 0.03051315 0.8884452
vn 1 0 0
vt 0.9168071 0.4804768
v 0 -0.03051315 0.8884452
vn 1 0 0
vt 0.9462472 0.4804768
v 0 0.03051315 0.09692832
vn 1 0 0
vt 0.9168071 0.876323
v 0 -0.03051315 0.09692832
vn 1 0 0
vt 0.9462472 0.876323
v 0 0.03051315 0
vn 1 0 0
vt 0.9168071 0.9230832
v 0 -0.03051315 0
vn 1 0 0
vt 0.9462472 0.9230832
v -1.141404 0.003465116 1.858244
vn -0.7052223 0.7089863 0
vt 0.9760523 0.94934
v -1.114211 0.03051315 1.858244
vn -0.7052223 0.7089863 0
vt 0.9630036 0.94934
v -1.141404 0.003465116 1.784543
vn -0.7052223 0.7089863 0
vt 0.9760523 0.9137849
v -1.114211 0.03051315 1.784543
vn -0.7052223 0.7089863 0
vt 0.9630036 0.9137849
v -1.141404 0.003465116 0.8884452
vn -0.7052223 0.7089863 0
vt 0.9760523 0.4753481
v -1.114211 0.03051315 0.8884452
vn -0.7052223 0.7089863 0
vt 0.9630036 0.4753481
v -1.141404 0.003465116 0.09692832
vn -0.7052223 0.7089863 0
vt 0.9760523 0.07950193
v -1.114211 0.03051315 0.09692832
vn -0.7052223 0.7089863 0
vt 0.9630036 0.07950193
v -1.141404 0.003465116 0
vn -0.7052221 0.7089865 0
vt 0.9760523 0.03274173
v -1.114211 0.03051315 0
vn -0.7052221 0.7089865 0
vt 0.9630036 0.03274173
v 0 0.03051315 0
vn 0 0 -1
vt 0.3705226 0.995383
v 0 -0.03051315 0
vn 0 0 -1
vt 0.3705224 0.9659427
v -0.07629323 0.03051315 0
vn 0 0 -1
vt 0.4073279 0.995383
v -0.07629323 -0.03051315 0
vn 0 0 -1
vt 0.4073278 0.9659426
v -0.5859401 0.03051315 0
vn 0 0 -1
vt 0.6531916 0.995383
v -0.5859401 -0.03051315 0
vn 0 0 -1
vt 0.6531918 0.9659426
v -1.052131 0.03051315 0
vn 0 0 -1
vt 0.878091 0.995383
v -1.052131 -0.03051315 0
vn 0 0 -1
vt 0.8780915 0.9659427
v -1.114211 0.03051315 0
vn 0 0 -1
vt 0.90804 0.995383
v -1.114211 -0.03051315 0
vn 0 0 -1
vt 0.9080405 0.9659427
v -1.141404 -0.00346512 0
vn 0 0 -1
vt 0.9211404 0.9789909
v -1.141404 0.003465116 0
vn 0 0 -1
vt 0.9211406 0.9823344
v 0 -0.03051315 1.858244
vn 0 0 1
vt 0.370549 0.9581869
v 0 0.03051315 1.858244
vn 0 0 1
vt 0.3705489 0.9287469
v -0.07629323 -0.03051315 1.858244
vn 0 0 1
vt 0.4073545 0.9581869
v -0.07629323 0.03051315 1.858244
vn 0 0 1
vt 0.4073541 0.9287468
v -0.5859401 -0.03051315 1.858244
vn 0 0 1
vt 0.6532196 0.9581869
v -0.5859401 0.03051315 1.858244
vn 0 0 1
vt 0.6532166 0.9287467
v -1.05213 -0.03051315 1.858244
vn 0 0 1
vt 0.8781203 0.9581869
v -1.052131 0.03051315 1.858244
vn 0 0 1
vt 0.8781151 0.9287466
v -1.114211 -0.03051315 1.858244
vn 0 0 1
vt 0.9080695 0.9581869
v -1.114211 0.03051315 1.858244
vn 0 0 1
vt 0.908064 0.9287466
v -1.141404 0.003465116 1.858244
vn 0 0 1
vt 0.9211844 0.9417903
v -1.141404 -0.00346512 1.858244
vn 0 0 1
vt 0.9211856 0.9451335
v -1.399999 -0.03051315 1.683174
vn -0.9818788 0 0.1895106
vt 0.03879988 0.8394842
v -1.391196 -0.03051315 1.70513
vn -0.8360534 0 0.5486482
vt 0.0388 0.850077
v -1.399999 0.03051315 1.683174
vn -0.9818788 0 0.1895106
vt 0.009359479 0.839485
v -1.391196 0.03051315 1.70513
vn -0.8360534 0 0.5486482
vt 0.009359598 0.8500768
v -1.207473 -0.03051315 1.890786
vn -0.5624529 0 0.8268294
vt 0.03879708 0.9387094
v -1.207473 0.03051315 1.890786
vn -0.5624529 0 0.8268294
vt 0.009356797 0.9387084
v -1.185925 -0.03051315 1.9
vn -0.2006625 0 0.9796605
vt 0.03879672 0.9491042
v -1.185925 0.03051315 1.9
vn -0.2006625 0 0.9796605
vt 0.009356558 0.9491034
v -1.170701 0.03051315 1.9
vn -3.0656E-06 0 1
vt 0.00935638 0.956448
v -1.170701 -0.03051315 1.9
vn -3.0656E-06 0 1
vt 0.03879654 0.9564482
v -1.141404 0.003465116 1.9
vn -6.131201E-06 0 1
vt 0.02240473 0.9705818
v -1.141404 -0.00346512 1.9
vn -6.131201E-06 0 1
vt 0.02574807 0.9705818
v -1.399999 -0.03051315 1.565288
vn -1 0 0
vt 0.03879821 0.7826138
v -1.399999 0.03051315 1.565288
vn -1 0 0
vt 0.009357817 0.7826146
v -1.399999 -0.03051315 0.521875
vn -1 0 0
vt 0.03878341 0.2792504
v -1.399999 0.03051315 0.521875
vn -1 0 0
vt 0.009343097 0.2792511
v -1.399999 -0.03051315 0.4137033
vn -0.9818567 0 -0.1896246
vt 0.03878188 0.2270662
v -1.399999 0.03051315 0.4137033
vn -0.9818567 0 -0.1896246
vt 0.009341571 0.2270669
v -1.393628 0.03051315 0.3978232
vn -0.8321993 0 -0.5544766
vt 0.009341225 0.2194062
v -1.393628 -0.03051315 0.3978232
vn -0.8321993 0 -0.5544766
vt 0.03878166 0.2194049
v -1.302503 0.03051315 0.3082362
vn -0.8321993 0 -0.5544766
vt 0.009338424 0.1761883
v -1.302503 -0.03051315 0.3082362
vn -0.8321993 0 -0.5544766
vt 0.03877886 0.1761861
v -1.296132 -0.03051315 0.2923561
vn -0.9818567 0 -0.1896246
vt 0.03877813 0.1685249
v -1.296132 0.03051315 0.2923561
vn -0.9818567 0 -0.1896246
vt 0.009337902 0.1685278
v -1.296132 -0.03051315 0
vn -1 0 0
vt 0.03876212 0.02748603
v -1.296132 0.03051315 0
vn -1 0 0
vt 0.009321779 0.02748942
f 1/1/1 2/2/2 3/3/3
f 4/4/4 5/5/5 6/6/6
f 6/6/6 5/5/5 7/7/7
f 7/7/7 5/5/5 2/2/2
f 7/7/7 2/2/2 8/8/8
f 8/8/8 2/2/2 1/1/1
f 8/8/8 1/1/1 9/9/9
f 10/10/10 11/11/11 12/12/12
f 12/12/12 11/11/11 13/13/13
f 12/12/12 13/13/13 4/4/4
f 4/4/4 13/13/13 5/5/5
f 5/5/5 13/13/13 2/2/2
f 2/2/2 13/13/13 14/14/14
f 2/2/2 14/14/14 3/3/3
f 3/3/3 14/14/14 15/15/15
f 15/15/15 14/14/14 16/16/16
f 16/16/16 14/14/14 11/11/11
f 11/11/11 14/14/14 13/13/13
f 6/6/6 17/17/17 4/4/4
f 4/4/4 17/17/17 18/18/18
f 4/4/4 18/18/18 12/12/12
f 12/12/12 18/18/18 19/19/19
f 12/12/12 19/19/19 10/10/10
f 10/10/10 19/19/19 20/20/20
f 10/10/10 20/20/20 21/21/21
f 10/10/10 21/21/21 22/22/22
f 10/10/10 22/22/22 11/11/11
f 11/11/11 22/22/22 23/23/23
f 11/11/11 23/23/23 16/16/16
f 16/16/16 23/23/23 24/24/24
f 16/16/16 24/24/24 15/15/15
f 15/15/15 24/24/24 25/25/25
f 26/26/26 27/27/27 28/28/28
f 28/28/28 27/27/27 29/29/29
f 30/30/30 31/31/31 32/32/32
f 32/32/32 31/31/31 33/33/33
f 32/32/32 33/33/33 34/34/34
f 34/34/34 33/33/33 35/35/35
f 34/34/34 35/35/35 26/26/26
f 26/26/26 35/35/35 36/36/36
f 26/26/26 36/36/36 27/27/27
f 27/27/27 36/36/36 37/37/37
f 37/37/37 36/36/36 38/38/38
f 37/37/37 38/38/38 39/39/39
f 39/39/39 38/38/38 40/40/40
f 40/40/40 38/38/38 41/41/41
f 40/40/40 41/41/41 42/42/42
f 42/42/42 41/41/41 43/43/43
f 36/36/36 35/35/35 38/38/38
f 38/38/38 35/35/35 41/41/41
f 43/43/43 41/41/41 44/44/44
f 44/44/44 41/41/41 35/35/35
f 44/44/44 35/35/35 33/33/33
f 45/45/45 46/46/46 47/47/47
f 47/47/47 46/46/46 48/48/48
f 49/49/49 50/50/50 51/51/51
f 51/51/51 50/50/50 52/52/52
f 52/52/52 50/50/50 53/53/53
f 52/52/52 53/53/53 54/54/54
f 54/54/54 53/53/53 48/48/48
f 54/54/54 48/48/48 55/55/55
f 55/55/55 48/48/48 46/46/46
f 55/55/55 46/46/46 56/56/56
f 55/55/55 56/56/56 57/57/57
f 57/57/57 56/56/56 58/58/58
f 57/57/57 58/58/58 59/59/59
f 57/57/57 59/59/59 60/60/60
f 60/60/60 59/59/59 61/61/61
f 60/60/60 61/61/61 62/62/62
f 60/60/60 54/54/54 57/57/57
f 57/57/57 54/54/54 55/55/55
f 62/62/62 63/63/63 60/60/60
f 60/60/60 63/63/63 54/54/54
f 54/54/54 63/63/63 52/52/52
f 64/64/64 65/65/65 66/66/66
f 66/66/66 65/65/65 67/67/67
f 66/66/66 67/67/67 68/68/68
f 66/66/66 68/68/68 69/69/69
f 70/70/70 71/71/71 72/72/72
f 72/72/72 71/71/71 73/73/73
f 72/72/72 73/73/73 74/74/74
f 74/74/74 73/73/73 75/75/75
f 74/74/74 75/75/75 76/76/76
f 74/74/74 76/76/76 77/77/77
f 78/78/78 79/79/79 80/80/80
f 80/80/80 79/79/79 81/81/81
f 80/80/80 81/81/81 82/82/82
f 82/82/82 81/81/81 83/83/83
f 82/82/82 83/83/83 84/84/84
f 82/82/82 84/84/84 85/85/85
f 86/86/86 87/87/87 88/88/88
f 88/88/88 87/87/87 89/89/89
f 88/88/88 89/89/89 90/90/90
f 88/88/88 90/90/90 91/91/91
f 91/91/91 90/90/90 92/92/92
f 91/91/91 92/92/92 93/93/93
f 94/94/94 95/95/95 96/96/96
f 96/96/96 95/95/95 97/97/97
f 96/96/96 97/97/97 98/98/98
f 98/98/98 97/97/97 99/99/99
f 100/100/100 94/94/94 101/101/101
f 101/101/101 94/94/94 96/96/96
f 101/101/101 96/96/96 102/102/102
f 102/102/102 96/96/96 98/98/98
f 102/102/102 98/98/98 103/103/103
f 103/103/103 98/98/98 104/104/104
f 104/104/104 98/98/98 99/99/99
f 104/104/104 99/99/99 105/105/105
f 105/105/105 99/99/99 106/106/106
f 106/106/106 99/99/99 107/107/107
f 107/107/107 99/99/99 97/97/97
f 107/107/107 97/97/97 108/108/108
f 108/108/108 97/97/97 95/95/95
f 108/108/108 95/95/95 109/109/109
f 100/100/100 110/110/110 94/94/94
f 94/94/94 110/110/110 111/111/111
f 94/94/94 111/111/111 95/95/95
f 95/95/95 111/111/111 112/112/112
f 95/95/95 112/112/112 109/109/109
f 109/109/109 112/112/112 113/113/113
f 109/109/109 113/113/113 114/114/114
f 109/109/109 114/114/114 115/115/115
f 109/109/109 115/115/115 108/108/108
f 108/108/108 115/115/115 116/116/116
f 108/108/108 116/116/116 107/107/107
f 107/107/107 116/116/116 117/117/117
f 107/107/107 117/117/117 106/106/106
f 106/106/106 117/117/117 118/118/118
f 119/119/119 120/120/120 121/121/121
f 121/121/121 120/120/120 122/122/122
f 121/121/121 122/122/122 123/123/123
f 123/123/123 122/122/122 124/124/124
f 123/123/123 124/124/124 125/125/125
f 125/125/125 124/124/124 126/126/126
f 125/125/125 126/126/126 127/127/127
f 127/127/127 126/126/126 128/128/128
f 129/129/129 130/130/130 131/131/131
f 131/131/131 130/130/130 132/132/132
f 131/131/131 132/132/132 133/133/133
f 133/133/133 132/132/132 134/134/134
f 133/133/133 134/134/134 135/135/135
f 135/135/135 134/134/134 136/136/136
f 135/135/135 136/136/136 137/137/137
f 137/137/137 136/136/136 138/138/138
f 139/139/139 140/140/140 141/141/141
f 141/141/141 140/140/140 142/142/142
f 141/141/141 142/142/142 143/143/143
f 143/143/143 142/142/142 144/144/144
f 143/143/143 144/144/144 145/145/145
f 145/145/145 144/144/144 146/146/146
f 145/145/145 146/146/146 147/147/147
f 147/147/147 146/146/146 148/148/148
f 149/149/149 150/150/150 151/151/151
f 151/151/151 150/150/150 152/152/152
f 151/151/151 152/152/152 153/153/153
f 153/153/153 152/152/152 154/154/154
f 153/153/153 154/154/154 155/155/155
f 155/155/155 154/154/154 156/156/156
f 155/155/155 156/156/156 157/157/157
f 157/157/157 156/156/156 158/158/158
f 159/159/159 160/160/160 161/161/161
f 161/161/161 160/160/160 162/162/162
f 161/161/161 162/162/162 163/163/163
f 163/163/163 162/162/162 164/164/164
f 163/163/163 164/164/164 165/165/165
f 165/165/165 164/164/164 166/166/166
f 165/165/165 166/166/166 167/167/167
f 167/167/167 166/166/166 168/168/168
f 167/167/167 168/168/168 169/169/169
f 167/167/167 169/169/169 170/170/170
f 171/171/171 172/172/172 173/173/173
f 173/173/173 172/172/172 174/174/174
f 173/173/173 174/174/174 175/175/175
f 175/175/175 174/174/174 176/176/176
f 175/175/175 176/176/176 177/177/177
f 177/177/177 176/176/176 178/178/178
f 177/177/177 178/178/178 179/179/179
f 179/179/179 178/178/178 180/180/180
f 179/179/179 180/180/180 181/181/181
f 179/179/179 181/181/181 182/182/182
f 183/183/183 184/184/184 185/185/185
f 185/185/185 184/184/184 186/186/186
f 186/186/186 184/184/184 187/187/187
f 186/186/186 187/187/187 188/188/188
f 188/188/188 187/187/187 189/189/189
f 188/188/188 189/189/189 190/190/190
f 190/190/190 189/189/189 191/191/191
f 191/191/191 189/189/189 192/192/192
f 191/191/191 192/192/192 193/193/193
f 193/193/193 192/192/192 194/194/194
f 183/183/183 185/185/185 195/195/195
f 195/195/195 185/185/185 196/196/196
f 195/195/195 196/196/196 197/197/197
f 197/197/197 196/196/196 198/198/198
f 197/197/197 198/198/198 199/199/199
f 199/199/199 198/198/198 200/200/200
f 199/199/199 200/200/200 201/201/201
f 199/199/199 201/201/201 202/202/202
f 202/202/202 201/201/201 203/203/203
f 202/202/202 203/203/203 204/204/204
f 204/204/204 203/203/203 205/205/205
f 205/205/205 203/203/203 206/206/206
f 205/205/205 206/206/206 207/207/207
f 207/207/207 206/206/206 208/208/208
