# Extracted on 10/7/2020 9:44:02 PM
v -0.0003318489 0.04989978 0.1915767
vn -1 -2.293E-07 -1.84E-08
vt 0.01265885 0.9995005
v -0.0003318489 0.04989978 0.05600498
vn -1 -1.487E-07 1.14E-08
vt 0.01265817 0.0004996061
v -0.000331834 -0.000128217 0.1915767
vn -1 -1.748E-07 -9.7E-09
vt 0.9995005 0.9995004
v -0.000331834 -0.000128217 0.056005
vn -1 -1.748E-07 2E-08
vt 0.9994998 0.0004995465
v -0.0003318489 0.04989978 0.1915767
vn 1 2.293E-07 1.84E-08
vt 0.01265885 0.9995005
v -0.000331834 -0.000128217 0.1915767
vn 1 1.748E-07 9.7E-09
vt 0.9995005 0.9995004
v -0.0003318489 0.04989978 0.05600498
vn 1 1.487E-07 -1.14E-08
vt 0.01265817 0.0004996061
v -0.000331834 -0.000128217 0.056005
vn 1 1.748E-07 -2E-08
vt 0.9994998 0.0004995465
v -0.000331834 -0.000128217 0.056005
vn -1 -1.748E-07 2E-08
vt 0.9994998 0.0004995465
v -0.0003318265 -0.05015621 0.05600498
vn -1 -2.01E-07 1.14E-08
vt 0.01265817 0.0004996061
v -0.000331834 -0.000128217 0.1915767
vn -1 -1.748E-07 -9.7E-09
vt 0.9995005 0.9995004
v -0.0003318265 -0.05015621 0.1915767
vn -1 -1.204E-07 -1.84E-08
vt 0.01265885 0.9995005
v -0.000331834 -0.000128217 0.056005
vn 1 1.748E-07 -2E-08
vt 0.9994998 0.0004995465
v -0.000331834 -0.000128217 0.1915767
vn 1 1.748E-07 9.7E-09
vt 0.9995005 0.9995004
v -0.0003318265 -0.05015621 0.05600498
vn 1 2.01E-07 -1.14E-08
vt 0.01265817 0.0004996061
v -0.0003318265 -0.05015621 0.1915767
vn 1 1.204E-07 1.84E-08
vt 0.01265885 0.9995005
v 0.04969614 -0.0001282245 0.1915767
vn 1.407E-07 1 -3.96E-08
vt 0.01265885 0.9995005
v 0.04969614 -0.0001282319 0.05600499
vn 2.238E-07 1 -8.9E-09
vt 0.01265817 0.0004996061
v -0.000331834 -0.000128217 0.1915767
vn 0 1 -3.07E-08
vt 0.9995005 0.9995004
v -0.000331834 -0.000128217 0.056005
vn 0 1 0
vt 0.9994998 0.0004995465
v 0.04969614 -0.0001282245 0.1915767
vn -1.407E-07 -1 3.96E-08
vt 0.01265885 0.9995005
v -0.000331834 -0.000128217 0.1915767
vn 0 -1 3.07E-08
vt 0.9995005 0.9995004
v 0.04969614 -0.0001282319 0.05600499
vn -2.238E-07 -1 8.9E-09
vt 0.01265817 0.0004996061
v -0.000331834 -0.000128217 0.056005
vn 0 -1 0
vt 0.9994998 0.0004995465
v -0.000331834 -0.000128217 0.056005
vn 0 1 0
vt 0.9994998 0.0004995465
v -0.05035981 -0.0001282319 0.05600499
vn -2.238E-07 1 -8.9E-09
vt 0.01265817 0.0004996061
v -0.000331834 -0.000128217 0.1915767
vn 0 1 -3.07E-08
vt 0.9995005 0.9995004
v -0.0503598 -0.0001282245 0.1915767
vn -1.407E-07 1 -3.96E-08
vt 0.01265885 0.9995005
v -0.000331834 -0.000128217 0.056005
vn 0 -1 0
vt 0.9994998 0.0004995465
v -0.000331834 -0.000128217 0.1915767
vn 0 -1 3.07E-08
vt 0.9995005 0.9995004
v -0.05035981 -0.0001282319 0.05600499
vn 2.238E-07 -1 8.9E-09
vt 0.01265817 0.0004996061
v -0.0503598 -0.0001282245 0.1915767
vn 1.407E-07 -1 3.96E-08
vt 0.01265885 0.9995005
v 0.03486174 -0.03568396 0.1915767
vn 0.7107174 0.7034776 -3.96E-08
vt 0.01265885 0.9995005
v 0.03486174 -0.03568397 0.05600499
vn 0.7107175 0.7034776 -8.9E-09
vt 0.01265817 0.0004996061
v -0.000331834 -0.000128217 0.1915767
vn 0.7107173 0.7034777 -3.07E-08
vt 0.9995005 0.9995004
v -0.000331834 -0.000128217 0.056005
vn 0.7107173 0.7034777 0
vt 0.9994998 0.0004995465
v 0.03486174 -0.03568396 0.1915767
vn -0.7107174 -0.7034776 3.96E-08
vt 0.01265885 0.9995005
v -0.000331834 -0.000128217 0.1915767
vn -0.7107173 -0.7034777 3.07E-08
vt 0.9995005 0.9995004
v 0.03486174 -0.03568397 0.05600499
vn -0.7107175 -0.7034776 8.9E-09
vt 0.01265817 0.0004996061
v -0.000331834 -0.000128217 0.056005
vn -0.7107173 -0.7034777 0
vt 0.9994998 0.0004995465
v -0.000331834 -0.000128217 0.056005
vn 0.7107173 0.7034777 0
vt 0.9994998 0.0004995465
v -0.03552541 0.03542752 0.05600499
vn 0.7107171 0.7034779 -8.9E-09
vt 0.01265817 0.0004996061
v -0.000331834 -0.000128217 0.1915767
vn 0.7107173 0.7034777 -3.07E-08
vt 0.9995005 0.9995004
v -0.0355254 0.03542752 0.1915767
vn 0.7107172 0.7034779 -3.96E-08
vt 0.01265885 0.9995005
v -0.000331834 -0.000128217 0.056005
vn -0.7107173 -0.7034777 0
vt 0.9994998 0.0004995465
v -0.000331834 -0.000128217 0.1915767
vn -0.7107173 -0.7034777 3.07E-08
vt 0.9995005 0.9995004
v -0.03552541 0.03542752 0.05600499
vn -0.7107171 -0.7034779 8.9E-09
vt 0.01265817 0.0004996061
v -0.0355254 0.03542752 0.1915767
vn -0.7107172 -0.7034779 3.96E-08
vt 0.01265885 0.9995005
v 0.03522391 0.03506536 0.1915767
vn -0.7034779 0.7107171 -1.84E-08
vt 0.01265885 0.9995005
v 0.03522392 0.03506538 0.05600498
vn -0.7034779 0.7107172 1.14E-08
vt 0.01265817 0.0004996061
v -0.000331834 -0.000128217 0.1915767
vn -0.7034779 0.7107172 -9.7E-09
vt 0.9995005 0.9995004
v -0.000331834 -0.000128217 0.056005
vn -0.7034779 0.7107172 2E-08
vt 0.9994998 0.0004995465
v 0.03522391 0.03506536 0.1915767
vn 0.7034779 -0.7107171 1.84E-08
vt 0.01265885 0.9995005
v -0.000331834 -0.000128217 0.1915767
vn 0.7034779 -0.7107172 9.7E-09
vt 0.9995005 0.9995004
v 0.03522392 0.03506538 0.05600498
vn 0.7034779 -0.7107172 -1.14E-08
vt 0.01265817 0.0004996061
v -0.000331834 -0.000128217 0.056005
vn 0.7034779 -0.7107172 -2E-08
vt 0.9994998 0.0004995465
v -0.000331834 -0.000128217 0.056005
vn -0.7034779 0.7107172 2E-08
vt 0.9994998 0.0004995465
v -0.03588759 -0.03532179 0.05600498
vn -0.7034779 0.7107172 1.14E-08
vt 0.01265817 0.0004996061
v -0.000331834 -0.000128217 0.1915767
vn -0.7034779 0.7107172 -9.7E-09
vt 0.9995005 0.9995004
v -0.03588759 -0.03532179 0.1915767
vn -0.7034778 0.7107173 -1.84E-08
vt 0.01265885 0.9995005
v -0.000331834 -0.000128217 0.056005
vn 0.7034779 -0.7107172 -2E-08
vt 0.9994998 0.0004995465
v -0.000331834 -0.000128217 0.1915767
vn 0.7034779 -0.7107172 9.7E-09
vt 0.9995005 0.9995004
v -0.03588759 -0.03532179 0.05600498
vn 0.7034779 -0.7107172 -1.14E-08
vt 0.01265817 0.0004996061
v -0.03588759 -0.03532179 0.1915767
vn 0.7034778 -0.7107173 1.84E-08
vt 0.01265885 0.9995005
f 1/1/1 2/2/2 3/3/3
f 3/3/3 2/2/2 4/4/4
f 5/5/5 6/6/6 7/7/7
f 7/7/7 6/6/6 8/8/8
f 9/9/9 10/10/10 11/11/11
f 11/11/11 10/10/10 12/12/12
f 13/13/13 14/14/14 15/15/15
f 15/15/15 14/14/14 16/16/16
f 17/17/17 18/18/18 19/19/19
f 19/19/19 18/18/18 20/20/20
f 21/21/21 22/22/22 23/23/23
f 23/23/23 22/22/22 24/24/24
f 25/25/25 26/26/26 27/27/27
f 27/27/27 26/26/26 28/28/28
f 29/29/29 30/30/30 31/31/31
f 31/31/31 30/30/30 32/32/32
f 33/33/33 34/34/34 35/35/35
f 35/35/35 34/34/34 36/36/36
f 37/37/37 38/38/38 39/39/39
f 39/39/39 38/38/38 40/40/40
f 41/41/41 42/42/42 43/43/43
f 43/43/43 42/42/42 44/44/44
f 45/45/45 46/46/46 47/47/47
f 47/47/47 46/46/46 48/48/48
f 49/49/49 50/50/50 51/51/51
f 51/51/51 50/50/50 52/52/52
f 53/53/53 54/54/54 55/55/55
f 55/55/55 54/54/54 56/56/56
f 57/57/57 58/58/58 59/59/59
f 59/59/59 58/58/58 60/60/60
f 61/61/61 62/62/62 63/63/63
f 63/63/63 62/62/62 64/64/64
