# Extracted on 9/8/2020 4:14:52 PM
v 0.045003 -9 -9
vn 1 0 0
vt 0 -8
v 0.045003 9 9
vn 1 0 0
vt 10 2
v 0.045003 -9 9
vn 1 0 0
vt 0 2
v -0.045003 -9 -9
vn 0 -1 0
vt 0.4750004 -8
v 0.045003 -9 9
vn 0 -1 0
vt 0.5249996 2
v -0.045003 -9 9
vn 0 -1 0
vt 0.4750004 2
v 0.045003 9 9
vn 0 0 1
vt 0.5249996 11.5
v -0.045003 -9 9
vn 0 0 1
vt 0.4750004 1.5
v 0.045003 -9 9
vn 0 0 1
vt 0.5249996 1.5
v -0.045003 9 -9
vn -1 0 0
vt 0 -8
v -0.045003 -9 9
vn -1 0 0
vt -10 2
v -0.045003 9 9
vn -1 0 0
vt 0 2
v 0.045003 9 -9
vn 0 0 -1
vt 0.5249996 1.5
v -0.045003 -9 -9
vn 0 0 -1
vt 0.4750004 -8.5
v -0.045003 9 -9
vn 0 0 -1
vt 0.4750004 1.5
v 0.045003 9 -9
vn 0 1 0
vt 0.5249996 -8
v -0.045003 9 9
vn 0 1 0
vt 0.4750004 2
v 0.045003 9 9
vn 0 1 0
vt 0.5249996 2
v 0.045003 9 -9
vn 1 0 0
vt 10 -8
v 0.045003 -9 -9
vn 0 -1 0
vt 0.5249996 -8
v -0.045003 9 9
vn 0 0 1
vt 0.4750004 11.5
v -0.045003 -9 -9
vn -1 0 0
vt -10 -8
v 0.045003 -9 -9
vn 0 0 -1
vt 0.5249996 -8.5
v -0.045003 9 -9
vn 0 1 0
vt 0.4750004 -8
f 1/1/1 2/2/2 3/3/3
f 4/4/4 5/5/5 6/6/6
f 7/7/7 8/8/8 9/9/9
f 10/10/10 11/11/11 12/12/12
f 13/13/13 14/14/14 15/15/15
f 16/16/16 17/17/17 18/18/18
f 1/1/1 19/19/19 2/2/2
f 4/4/4 20/20/20 5/5/5
f 7/7/7 21/21/21 8/8/8
f 10/10/10 22/22/22 11/11/11
f 13/13/13 23/23/23 14/14/14
f 16/16/16 24/24/24 17/17/17
