# Extracted on 9/8/2020 4:14:51 PM
v 0.045003 0.9 0.45
vn 0 0 1
vt 0.5249999 2.75
v -0.045003 -0.9 0.45
vn 0 0 1
vt 0.4749999 1.75
v 0.045003 -0.9 0.45
vn 0 0 1
vt 0.5249999 1.75
v 0.045003 -0.9 -0.45
vn 0 -1 0
vt 0.5249999 1
v -0.045003 -0.9 0.45
vn 0 -1 0
vt 0.4749999 1.5
v -0.045003 -0.9 -0.45
vn 0 -1 0
vt 0.4749999 1
v -0.045003 0.9 -0.45
vn 0 1 0
vt 0.4749999 1
v 0.045003 0.9 0.45
vn 0 1 0
vt 0.5249999 1.5
v 0.045003 0.9 -0.45
vn 0 1 0
vt 0.5249999 1
v -0.045003 -0.9 -0.45
vn -1 0 0
vt -1.25 1
v -0.045003 0.9 0.45
vn -1 0 0
vt -2.25 1.5
v -0.045003 0.9 -0.45
vn -1 0 0
vt -2.25 1
v -0.045003 0.9 -0.45
vn 0 0 -1
vt 0.4749999 1.75
v 0.045003 -0.9 -0.45
vn 0 0 -1
vt 0.5249999 0.75
v -0.045003 -0.9 -0.45
vn 0 0 -1
vt 0.4749999 0.75
v 0.045003 0.9 -0.45
vn 1 0 0
vt 1 1
v 0.045003 -0.9 0.45
vn 1 0 0
vt 0 1.5
v 0.045003 -0.9 -0.45
vn 1 0 0
vt 0 1
v -0.045003 0.9 0.45
vn 0 0 1
vt 0.4749999 2.75
v 0.045003 -0.9 0.45
vn 0 -1 0
vt 0.5249999 1.5
v -0.045003 0.9 0.45
vn 0 1 0
vt 0.4749999 1.5
v -0.045003 -0.9 0.45
vn -1 0 0
vt -1.25 1.5
v 0.045003 0.9 -0.45
vn 0 0 -1
vt 0.5249999 1.75
v 0.045003 0.9 0.45
vn 1 0 0
vt 1 1.5
f 1/1/1 2/2/2 3/3/3
f 4/4/4 5/5/5 6/6/6
f 7/7/7 8/8/8 9/9/9
f 10/10/10 11/11/11 12/12/12
f 13/13/13 14/14/14 15/15/15
f 16/16/16 17/17/17 18/18/18
f 1/1/1 19/19/19 2/2/2
f 4/4/4 20/20/20 5/5/5
f 7/7/7 21/21/21 8/8/8
f 10/10/10 22/22/22 11/11/11
f 13/13/13 23/23/23 14/14/14
f 16/16/16 24/24/24 17/17/17
