# Extracted on 9/8/2020 4:14:49 PM
v -0.175647 -0.045 -1.35
vn -1 0 0
vt -0.2499 1.325
v -0.175648 -0.045 1.349999
vn -1 0 0
vt 1.2501 1.325
v -0.175648 0.045 1.349999
vn -1 0 0
vt 1.2501 1.425
v -0.175647 0.045 -1.35
vn -1 0 0
vt -0.2499 1.425
v 0.142551 0.045 0.954594
vn 0 1 0
vt 1.0297 1.1767
v 0.240098 0.045 0.516624
vn 0 1 0
vt 0.7865001 1.2309
v 0.274352 0.045 9.536743E-07
vn 0 1 0
vt 0.4997 1.2499
v 0.240098 0.045 -0.516623
vn 0 1 0
vt 0.2128 1.2309
v 0.142551 0.045 -0.954593
vn 0 1 0
vt -0.03029996 1.1767
v -0.003439993 0.045 -1.247237
vn 0 1 0
vt -0.1928 1.0957
v -0.175647 0.045 -1.35
vn 0 1 0
vt -0.2499 1.0001
v -0.175648 0.045 1.349999
vn 0 1 0
vt 1.2493 1.0001
v -0.003439993 0.045 1.247237
vn 0 1 0
vt 1.1922 1.0957
v -0.003439993 -0.045 -1.247237
vn 0 -1 0
vt 1.1922 1.0957
v 0.14255 -0.045 -0.954593
vn 0 -1 0
vt 1.0297 1.1767
v 0.240098 -0.045 -0.516623
vn 0 -1 0
vt 0.7865001 1.2309
v 0.274352 -0.045 9.536743E-07
vn 0 -1 0
vt 0.4997 1.2499
v 0.240098 -0.045 0.516624
vn 0 -1 0
vt 0.2128 1.2309
v 0.142551 -0.045 0.954594
vn 0 -1 0
vt -0.03029996 1.1767
v -0.003439993 -0.045 1.247237
vn 0 -1 0
vt -0.1928 1.0957
v -0.175648 -0.045 1.349999
vn 0 -1 0
vt -0.2499 1.0001
v -0.175647 -0.045 -1.35
vn 0 -1 0
vt 1.2493 1.0001
v -0.003439993 -0.045 -1.247237
vn 0.5578 -0.6489 -0.5173
vt 1.6248 1.325
v -0.175647 -0.045 -1.35
vn -0.411 -0.5542 -0.7238
vt 1.9998 1.325
v -0.175647 0.045 -1.35
vn -0.411 0.5542 -0.7238
vt 1.9998 1.425
v -0.003439993 0.045 -1.247237
vn 0.5578 0.6489 -0.5173
vt 1.6248 1.425
v 0.14255 -0.045 -0.954593
vn 0.6903 -0.6807 -0.2449
vt 1.2499 1.325
v -0.003439993 -0.045 -1.247237
vn 0.5578 -0.6489 -0.5173
vt 1.6248 1.325
v -0.003439993 0.045 -1.247237
vn 0.5578 0.6489 -0.5173
vt 1.6248 1.425
v 0.142551 0.045 -0.954593
vn 0.6903 0.6807 -0.2449
vt 1.2499 1.425
v 0.240098 0.045 -0.516623
vn 0.7161 0.6903 -0.1029
vt 0.8749001 1.425
v 0.240098 -0.045 -0.516623
vn 0.7161 -0.6903 -0.1029
vt 0.8749001 1.325
v 0.14255 -0.045 -0.954593
vn 0.6903 -0.6807 -0.2449
vt 1.2499 1.325
v 0.142551 0.045 -0.954593
vn 0.6903 0.6807 -0.2449
vt 1.2499 1.425
v -0.175648 -0.045 1.349999
vn -0.411 -0.5542 0.7238
vt -0.9999 1.325
v -0.003439993 -0.045 1.247237
vn 0.5578 -0.6489 0.5173
vt -0.6249 1.325
v -0.003439993 0.045 1.247237
vn 0.5578 0.6489 0.5173
vt -0.6249 1.425
v -0.175648 0.045 1.349999
vn -0.411 0.5542 0.7238
vt -0.9999 1.425
v 0.274352 -0.045 9.536743E-07
vn 0.7214 -0.6925 0
vt 0.4999 1.325
v 0.274352 0.045 9.536743E-07
vn 0.7214 0.6925 0
vt 0.4999 1.425
v 0.240098 -0.045 0.516624
vn 0.7161 -0.6903 0.1029
vt 0.125 1.325
v 0.240098 0.045 0.516624
vn 0.7161 0.6903 0.1029
vt 0.125 1.425
v 0.142551 -0.045 0.954594
vn 0.6903 -0.6807 0.2449
vt -0.25 1.325
v 0.142551 0.045 0.954594
vn 0.6903 0.6807 0.2449
vt -0.25 1.425
v -0.003439993 -0.045 1.247237
vn 0.5578 -0.6489 0.5173
vt -0.6249 1.325
v 0.142551 -0.045 0.954594
vn 0.6903 -0.6807 0.2449
vt -0.25 1.325
v 0.142551 0.045 0.954594
vn 0.6903 0.6807 0.2449
vt -0.25 1.425
v -0.003439993 0.045 1.247237
vn 0.5578 0.6489 0.5173
vt -0.6249 1.425
f 1/1/1 2/2/2 3/3/3
f 1/1/1 3/3/3 4/4/4
f 13/13/13 5/5/5 6/6/6
f 13/13/13 6/6/6 7/7/7
f 13/13/13 7/7/7 8/8/8
f 13/13/13 8/8/8 9/9/9
f 13/13/13 9/9/9 10/10/10
f 13/13/13 10/10/10 11/11/11
f 11/11/11 12/12/12 13/13/13
f 22/22/22 14/14/14 15/15/15
f 22/22/22 15/15/15 16/16/16
f 22/22/22 16/16/16 17/17/17
f 22/22/22 17/17/17 18/18/18
f 22/22/22 18/18/18 19/19/19
f 22/22/22 19/19/19 20/20/20
f 20/20/20 21/21/21 22/22/22
f 23/23/23 24/24/24 25/25/25
f 23/23/23 25/25/25 26/26/26
f 27/27/27 28/28/28 29/29/29
f 27/27/27 29/29/29 30/30/30
f 31/31/31 32/32/32 33/33/33
f 31/31/31 33/33/33 34/34/34
f 35/35/35 36/36/36 37/37/37
f 35/35/35 37/37/37 38/38/38
f 39/39/39 32/32/32 31/31/31
f 39/39/39 31/31/31 40/40/40
f 41/41/41 39/39/39 40/40/40
f 41/41/41 40/40/40 42/42/42
f 43/43/43 41/41/41 42/42/42
f 43/43/43 42/42/42 44/44/44
f 45/45/45 46/46/46 47/47/47
f 45/45/45 47/47/47 48/48/48
