# Extracted on 9/8/2020 4:14:50 PM
v -0.178405 -0.45 -0.45
vn -1 0 0
vt 0.2502 2.625
v -0.178405 0.45 0.45
vn -1 0 0
vt 0.7502 3.125
v -0.178405 0.45 -0.45
vn -1 0 0
vt 0.2502 3.125
v -0.006196991 0.45 -0.415746
vn 0 1 0
vt 0.269 1.0957
v -0.006196991 0.45 0.415746
vn 0 1 0
vt 0.7307 1.0957
v 0.139793 0.45 0.318198
vn 0 1 0
vt 0.6765 1.1767
v -0.006196991 -0.45 0.415746
vn 0 -1 0
vt 0.269 1.0957
v -0.178405 -0.45 0.45
vn 0 -1 0
vt 0.25 1.0001
v -0.006196991 -0.45 -0.415746
vn 0 -1 0
vt 0.7307 1.0957
v -0.178405 -0.45 0.45
vn -1 0 0
vt 0.7502 2.625
v 0.237341 0.45 0.172208
vn 0 1 0
vt 0.5955 1.2309
v 0.271595 0.45 0
vn 0 1 0
vt 0.4999 1.2499
v 0.237341 0.45 -0.172208
vn 0 1 0
vt 0.4042 1.2309
v 0.139793 0.45 -0.318198
vn 0 1 0
vt 0.3232 1.1767
v -0.178405 0.45 -0.45
vn 0 1 0
vt 0.25 1.0001
v -0.178405 0.45 0.45
vn 0 1 0
vt 0.7497 1.0001
v 0.139793 -0.45 -0.318198
vn 0 -1 0
vt 0.6765 1.1767
v 0.237341 -0.45 -0.172208
vn 0 -1 0
vt 0.5955 1.2309
v 0.139793 -0.45 0.318198
vn 0 -1 0
vt 0.3232 1.1767
v 0.271595 -0.45 0
vn 0 -1 0
vt 0.4999 1.2499
v 0.237341 -0.45 0.172208
vn 0 -1 0
vt 0.4042 1.2309
v -0.178405 -0.45 -0.45
vn 0 -1 0
vt 0.7497 1.0001
v 0.271595 -0.45 0
vn 0.7462 -0.6657 0
vt 0.4999 2.625
v 0.237341 0.45 -0.172208
vn 0.6894 0.6657 -0.2855
vt 0.6249 3.125
v 0.271595 0.45 0
vn 0.7462 0.6657 0
vt 0.4999 3.125
v 0.237341 -0.45 -0.172208
vn 0.6894 -0.6657 -0.2855
vt 0.6249 2.625
v 0.139793 0.45 -0.318198
vn 0.5276 0.6657 -0.5276
vt 0.7499 3.125
v 0.139793 -0.45 -0.318198
vn 0.5276 -0.6657 -0.5276
vt 0.7499 2.625
v -0.006196991 0.45 -0.415746
vn 0.2855 0.6657 -0.6894
vt 0.8749 3.125
v 0.139793 0.45 -0.318198
vn 0.5276 0.6657 -0.5276
vt 0.7499 3.125
v -0.006196991 -0.45 -0.415746
vn 0.2855 -0.6657 -0.6894
vt 0.8749 2.625
v -0.178405 0.45 -0.45
vn -0.5222 0.5677 -0.6363
vt 0.9999 3.125
v -0.178405 -0.45 0.45
vn -0.5222 -0.5677 0.6363
vt 0 2.625
v -0.006196991 0.45 0.415746
vn 0.2855 0.6657 0.6894
vt 0.125 3.125
v -0.178405 0.45 0.45
vn -0.5222 0.5677 0.6363
vt 0 3.125
v -0.006196991 -0.45 0.415746
vn 0.2855 -0.6657 0.6894
vt 0.125 2.625
v 0.139793 0.45 0.318198
vn 0.5276 0.6657 0.5276
vt 0.25 3.125
v 0.139793 -0.45 0.318198
vn 0.5276 -0.6657 0.5276
vt 0.25 2.625
v 0.237341 0.45 0.172208
vn 0.6894 0.6657 0.2855
vt 0.375 3.125
v 0.139793 0.45 0.318198
vn 0.5276 0.6657 0.5276
vt 0.25 3.125
v 0.237341 -0.45 0.172208
vn 0.6894 -0.6657 0.2855
vt 0.375 2.625
v 0.139793 -0.45 -0.318198
vn 0.5276 -0.6657 -0.5276
vt 0.7499 2.625
v -0.178405 -0.45 -0.45
vn -0.5222 -0.5677 -0.6363
vt 0.9999 2.625
v 0.139793 -0.45 0.318198
vn 0.5276 -0.6657 0.5276
vt 0.25 2.625
f 1/1/1 2/2/2 3/3/3
f 4/4/4 5/5/5 6/6/6
f 7/7/7 8/8/8 9/9/9
f 1/1/1 10/10/10 2/2/2
f 11/11/11 12/12/12 13/13/13
f 13/13/13 14/14/14 6/6/6
f 4/4/4 15/15/15 16/16/16
f 16/16/16 5/5/5 4/4/4
f 6/6/6 11/11/11 13/13/13
f 14/14/14 4/4/4 6/6/6
f 17/17/17 18/18/18 19/19/19
f 20/20/20 21/21/21 18/18/18
f 19/19/19 7/7/7 9/9/9
f 8/8/8 22/22/22 9/9/9
f 9/9/9 17/17/17 19/19/19
f 21/21/21 19/19/19 18/18/18
f 23/23/23 24/24/24 25/25/25
f 26/26/26 27/27/27 24/24/24
f 28/28/28 29/29/29 30/30/30
f 31/31/31 32/32/32 29/29/29
f 33/33/33 34/34/34 35/35/35
f 36/36/36 37/37/37 34/34/34
f 38/38/38 39/39/39 40/40/40
f 41/41/41 25/25/25 39/39/39
f 23/23/23 26/26/26 24/24/24
f 26/26/26 42/42/42 27/27/27
f 28/28/28 31/31/31 29/29/29
f 31/31/31 43/43/43 32/32/32
f 33/33/33 36/36/36 34/34/34
f 36/36/36 44/44/44 37/37/37
f 38/38/38 41/41/41 39/39/39
f 41/41/41 23/23/23 25/25/25
