# Extracted on 9/8/2020 4:14:49 PM
v 0.172207 0.415746 0.225
vn 0 0 1
vt 0.5944 0.7325
v 0.08779103 0.441353 0.225
vn 0 0 1
vt 0.5472 0.7469
v 0 0.45 0.225
vn 0 0 1
vt 0.4981 0.7517
v -0.08778998 0.441353 0.225
vn 0 0 1
vt 0.449 0.7469
v -0.172207 0.415746 0.225
vn 0 0 1
vt 0.4018 0.7325
v -0.250007 0.374161 0.225
vn 0 0 1
vt 0.3583 0.7093
v -0.318198 0.318198 0.225
vn 0 0 1
vt 0.3202 0.678
v -0.374161 0.250007 0.225
vn 0 0 1
vt 0.2889 0.6399
v -0.415746 0.172208 0.225
vn 0 0 1
vt 0.2656 0.5964
v -0.441353 0.08779103 0.225
vn 0 0 1
vt 0.2513 0.5492
v -0.45 0 0.225
vn 0 0 1
vt 0.2465 0.5001
v -0.441353 -0.087791 0.225
vn 0 0 1
vt 0.2513 0.451
v -0.415746 -0.172208 0.225
vn 0 0 1
vt 0.2656 0.4038
v -0.374161 -0.250007 0.225
vn 0 0 1
vt 0.2889 0.3603
v -0.318198 -0.318198 0.225
vn 0 0 1
vt 0.3202 0.3222
v -0.250007 -0.374161 0.225
vn 0 0 1
vt 0.3583 0.2909
v -0.172207 -0.415746 0.225
vn 0 0 1
vt 0.4018 0.2676
v -0.08778998 -0.441353 0.225
vn 0 0 1
vt 0.449 0.2533
v 0 -0.45 0.225
vn 0 0 1
vt 0.4981 0.2485
v 0.08779103 -0.441353 0.225
vn 0 0 1
vt 0.5472 0.2533
v 0.172207 -0.415746 0.225
vn 0 0 1
vt 0.5944 0.2676
v 0.250007 -0.374161 0.225
vn 0 0 1
vt 0.6379 0.2909
v 0.318198 -0.318198 0.225
vn 0 0 1
vt 0.676 0.3222
v 0.374161 -0.250007 0.225
vn 0 0 1
vt 0.7073 0.3603
v 0.415746 -0.172208 0.225
vn 0 0 1
vt 0.7306 0.4038
v 0.441353 -0.087791 0.225
vn 0 0 1
vt 0.7449 0.451
v 0.45 0 0.225
vn 0 0 1
vt 0.7497 0.5001
v 0.441353 0.08779103 0.225
vn 0 0 1
vt 0.7449 0.5492
v 0.415746 0.172207 0.225
vn 0 0 1
vt 0.7306 0.5964
v 0.374161 0.250007 0.225
vn 0 0 1
vt 0.7073 0.6399
v 0.318198 0.318198 0.225
vn 0 0 1
vt 0.676 0.678
v 0.250007 0.374161 0.225
vn 0 0 1
vt 0.6379 0.7093
v 0 0.45 -0.225
vn 0 0 -1
vt 0.4981 0.7517
v 0.08779103 0.441353 -0.225
vn 0 0 -1
vt 0.5472 0.7469
v 0.172207 0.415746 -0.225
vn 0 0 -1
vt 0.5944 0.7325
v 0.250007 0.374161 -0.225
vn 0 0 -1
vt 0.6379 0.7093
v 0.318198 0.318198 -0.225
vn 0 0 -1
vt 0.676 0.678
v 0.374161 0.250007 -0.225
vn 0 0 -1
vt 0.7073 0.6399
v 0.415746 0.172207 -0.225
vn 0 0 -1
vt 0.7306 0.5964
v 0.441353 0.08779103 -0.225
vn 0 0 -1
vt 0.7449 0.5492
v 0.45 0 -0.225
vn 0 0 -1
vt 0.7497 0.5001
v 0.441353 -0.087791 -0.225
vn 0 0 -1
vt 0.7449 0.451
v 0.415746 -0.172208 -0.225
vn 0 0 -1
vt 0.7306 0.4038
v 0.374161 -0.250007 -0.225
vn 0 0 -1
vt 0.7073 0.3603
v 0.318198 -0.318198 -0.225
vn 0 0 -1
vt 0.676 0.3222
v 0.250007 -0.374161 -0.225
vn 0 0 -1
vt 0.6379 0.2909
v 0.172207 -0.415746 -0.225
vn 0 0 -1
vt 0.5944 0.2676
v 0.08779103 -0.441353 -0.225
vn 0 0 -1
vt 0.5472 0.2533
v 0 -0.45 -0.225
vn 0 0 -1
vt 0.4981 0.2485
v -0.08778998 -0.441353 -0.225
vn 0 0 -1
vt 0.449 0.2533
v -0.172207 -0.415746 -0.225
vn 0 0 -1
vt 0.4018 0.2676
v -0.250007 -0.374161 -0.225
vn 0 0 -1
vt 0.3583 0.2909
v -0.318198 -0.318198 -0.225
vn 0 0 -1
vt 0.3202 0.3222
v -0.374161 -0.250007 -0.225
vn 0 0 -1
vt 0.2889 0.3603
v -0.415746 -0.172208 -0.225
vn 0 0 -1
vt 0.2656 0.4038
v -0.441353 -0.087791 -0.225
vn 0 0 -1
vt 0.2513 0.451
v -0.45 0 -0.225
vn 0 0 -1
vt 0.2465 0.5001
v -0.441353 0.08779103 -0.225
vn 0 0 -1
vt 0.2513 0.5492
v -0.415746 0.172208 -0.225
vn 0 0 -1
vt 0.2656 0.5964
v -0.374161 0.250007 -0.225
vn 0 0 -1
vt 0.2889 0.6399
v -0.318198 0.318198 -0.225
vn 0 0 -1
vt 0.3202 0.678
v -0.250007 0.374161 -0.225
vn 0 0 -1
vt 0.3583 0.7093
v -0.172207 0.415746 -0.225
vn 0 0 -1
vt 0.4018 0.7325
v -0.08778998 0.441353 -0.225
vn 0 0 -1
vt 0.449 0.7469
v -0.441353 -0.087791 -0.225
vn -0.9808 -0.1951 0
vt 0.9955001 1
v -0.441353 -0.087791 0.225
vn -0.9808 -0.1951 0
vt 0.9955001 1.25
v -0.45 0 0.225
vn -1 0 0
vt 1.0433 1.25
v -0.45 0 -0.225
vn -1 0 0
vt 1.0433 1
v -0.08778998 -0.441353 -0.225
vn -0.1951 -0.9808 0
vt 0.4955 1
v -0.08778998 -0.441353 0.225
vn -0.1951 -0.9808 0
vt 0.4955 1.25
v -0.172207 -0.415746 0.225
vn -0.3827 -0.9239 0
vt 0.4476 1.25
v -0.172207 -0.415746 -0.225
vn -0.3827 -0.9239 0
vt 0.4476 1
v 0.172207 0.415746 -0.225
vn 0.3827 0.9239 0
vt 0.639 1
v 0.172207 0.415746 0.225
vn 0.3827 0.9239 0
vt 0.639 1.25
v 0.250007 0.374161 0.225
vn 0.5556 0.8314 0
vt 0.6795 1.25
v 0.250007 0.374161 -0.225
vn 0.5556 0.8314 0
vt 0.6795 1
v 0 -0.45 -0.225
vn 0 -1 0
vt 0.5433 1
v 0 -0.45 0.225
vn 0 -1 0
vt 0.5433 1.25
v 0.318198 -0.318198 -0.225
vn 0.7071 -0.7071 0
vt 0.7201 1
v 0.318198 -0.318198 0.225
vn 0.7071 -0.7071 0
vt 0.7201 1.25
v 0.250007 -0.374161 0.225
vn 0.5556 -0.8314 0
vt 0.6795 1.25
v 0.250007 -0.374161 -0.225
vn 0.5556 -0.8314 0
vt 0.6795 1
v 0.08779103 0.441353 -0.225
vn 0.1951 0.9808 0
vt 0.5911 1
v 0.08779103 0.441353 0.225
vn 0.1951 0.9808 0
vt 0.5911 1.25
v 0.172207 -0.415746 -0.225
vn 0.3827 -0.9239 0
vt 0.639 1
v 0.172207 -0.415746 0.225
vn 0.3827 -0.9239 0
vt 0.639 1.25
v 0.08779103 -0.441353 0.225
vn 0.1951 -0.9808 0
vt 0.5911 1.25
v 0.08779103 -0.441353 -0.225
vn 0.1951 -0.9808 0
vt 0.5911 1
v -0.318198 -0.318198 -0.225
vn -0.7071 -0.7071 0
vt 0.8665 1
v -0.318198 -0.318198 0.225
vn -0.7071 -0.7071 0
vt 0.8665 1.25
v -0.374161 -0.250007 0.225
vn -0.8314 -0.5556 0
vt 0.9071 1.25
v -0.374161 -0.250007 -0.225
vn -0.8314 -0.5556 0
vt 0.9071 1
v -0.08778998 0.441353 -0.225
vn -0.1951 0.9808 0
vt 1.4955 1
v -0.08778998 0.441353 0.225
vn -0.1951 0.9808 0
vt 1.4955 1.25
v 0 0.45 0.225
vn 0 1 0
vt 1.5433 1.25
v 0 0.45 -0.225
vn 0 1 0
vt 1.5433 1
v -0.172207 0.415746 -0.225
vn -0.3827 0.9239 0
vt 1.4476 1
v -0.172207 0.415746 0.225
vn -0.3827 0.9239 0
vt 1.4476 1.25
v 0.441353 0.08779103 -0.225
vn 0.9808 0.1951 0
vt 1.0911 1
v 0.441353 0.08779103 0.225
vn 0.9808 0.1951 0
vt 1.0911 1.25
v 0.45 0 0.225
vn 1 0 0
vt 1.0433 1.25
v 0.45 0 -0.225
vn 1 0 0
vt 1.0433 1
v 0.318198 0.318198 0.225
vn 0.7071 0.7071 0
vt 0.7201 1.25
v 0.318198 0.318198 -0.225
vn 0.7071 0.7071 0
vt 0.7201 1
v 0.441353 -0.087791 0.225
vn 0.9808 -0.1951 0
vt 0.9955001 1.25
v 0.441353 -0.087791 -0.225
vn 0.9808 -0.1951 0
vt 0.9955001 1
v 0.374161 0.250007 -0.225
vn 0.8314 0.5556 0
vt 1.1795 1
v 0.374161 0.250007 0.225
vn 0.8314 0.5556 0
vt 1.1795 1.25
v 0.415746 0.172207 0.225
vn 0.9239 0.3827 0
vt 1.139 1.25
v 0.415746 0.172207 -0.225
vn 0.9239 0.3827 0
vt 1.139 1
v -0.415746 -0.172208 0.225
vn -0.9239 -0.3827 0
vt 0.9476 1.25
v -0.415746 -0.172208 -0.225
vn -0.9239 -0.3827 0
vt 0.9476 1
v 0.374161 -0.250007 -0.225
vn 0.8314 -0.5556 0
vt 0.9071 1
v 0.374161 -0.250007 0.225
vn 0.8314 -0.5556 0
vt 0.9071 1.25
v 0.318198 -0.318198 0.225
vn 0.7071 -0.7071 0
vt 0.8665 1.25
v 0.318198 -0.318198 -0.225
vn 0.7071 -0.7071 0
vt 0.8665 1
v -0.318198 0.318198 -0.225
vn -0.7071 0.7071 0
vt 1.3665 1
v -0.318198 0.318198 0.225
vn -0.7071 0.7071 0
vt 1.3665 1.25
v -0.250007 0.374161 0.225
vn -0.5556 0.8314 0
vt 1.4071 1.25
v -0.250007 0.374161 -0.225
vn -0.5556 0.8314 0
vt 1.4071 1
v -0.172207 -0.415746 -0.225
vn -0.3827 -0.9239 0
vt 1.4476 1
v -0.172207 -0.415746 0.225
vn -0.3827 -0.9239 0
vt 1.4476 1.25
v -0.250007 -0.374161 0.225
vn -0.5556 -0.8314 0
vt 1.4071 1.25
v -0.250007 -0.374161 -0.225
vn -0.5556 -0.8314 0
vt 1.4071 1
v 0.415746 -0.172208 -0.225
vn 0.9239 -0.3827 0
vt 0.9476 1
v 0.415746 -0.172208 0.225
vn 0.9239 -0.3827 0
vt 0.9476 1.25
v -0.441353 0.08779103 0.225
vn -0.9808 0.1951 0
vt 1.0911 1.25
v -0.441353 0.08779103 -0.225
vn -0.9808 0.1951 0
vt 1.0911 1
v 0.318198 0.318198 -0.225
vn 0.7071 0.7071 0
vt 1.2201 1
v 0.318198 0.318198 0.225
vn 0.7071 0.7071 0
vt 1.2201 1.25
v -0.318198 -0.318198 0.225
vn -0.7071 -0.7071 0
vt 1.3665 1.25
v -0.318198 -0.318198 -0.225
vn -0.7071 -0.7071 0
vt 1.3665 1
v -0.415746 0.172208 -0.225
vn -0.9239 0.3827 0
vt 1.139 1
v -0.415746 0.172208 0.225
vn -0.9239 0.3827 0
vt 1.139 1.25
v -0.374161 0.250007 0.225
vn -0.8314 0.5556 0
vt 1.1795 1.25
v -0.374161 0.250007 -0.225
vn -0.8314 0.5556 0
vt 1.1795 1
v 0 0.45 0.225
vn 0 1 0
vt 0.5433 1.25
v 0 0.45 -0.225
vn 0 1 0
vt 0.5433 1
v -0.318198 0.318198 0.225
vn -0.7071 0.7071 0
vt 1.2201 1.25
v -0.318198 0.318198 -0.225
vn -0.7071 0.7071 0
vt 1.2201 1
f 32/32/32 1/1/1 2/2/2
f 32/32/32 2/2/2 3/3/3
f 32/32/32 3/3/3 4/4/4
f 32/32/32 4/4/4 5/5/5
f 32/32/32 5/5/5 6/6/6
f 32/32/32 6/6/6 7/7/7
f 32/32/32 7/7/7 8/8/8
f 32/32/32 8/8/8 9/9/9
f 32/32/32 9/9/9 10/10/10
f 32/32/32 10/10/10 11/11/11
f 32/32/32 11/11/11 12/12/12
f 32/32/32 12/12/12 13/13/13
f 32/32/32 13/13/13 14/14/14
f 32/32/32 14/14/14 15/15/15
f 32/32/32 15/15/15 16/16/16
f 32/32/32 16/16/16 17/17/17
f 32/32/32 17/17/17 18/18/18
f 32/32/32 18/18/18 19/19/19
f 32/32/32 19/19/19 20/20/20
f 32/32/32 20/20/20 21/21/21
f 32/32/32 21/21/21 22/22/22
f 32/32/32 22/22/22 23/23/23
f 32/32/32 23/23/23 24/24/24
f 32/32/32 24/24/24 25/25/25
f 32/32/32 25/25/25 26/26/26
f 32/32/32 26/26/26 27/27/27
f 32/32/32 27/27/27 28/28/28
f 32/32/32 28/28/28 29/29/29
f 32/32/32 29/29/29 30/30/30
f 30/30/30 31/31/31 32/32/32
f 64/64/64 33/33/33 34/34/34
f 64/64/64 34/34/34 35/35/35
f 64/64/64 35/35/35 36/36/36
f 64/64/64 36/36/36 37/37/37
f 64/64/64 37/37/37 38/38/38
f 64/64/64 38/38/38 39/39/39
f 64/64/64 39/39/39 40/40/40
f 64/64/64 40/40/40 41/41/41
f 64/64/64 41/41/41 42/42/42
f 64/64/64 42/42/42 43/43/43
f 64/64/64 43/43/43 44/44/44
f 64/64/64 44/44/44 45/45/45
f 64/64/64 45/45/45 46/46/46
f 64/64/64 46/46/46 47/47/47
f 64/64/64 47/47/47 48/48/48
f 64/64/64 48/48/48 49/49/49
f 64/64/64 49/49/49 50/50/50
f 64/64/64 50/50/50 51/51/51
f 64/64/64 51/51/51 52/52/52
f 64/64/64 52/52/52 53/53/53
f 64/64/64 53/53/53 54/54/54
f 64/64/64 54/54/54 55/55/55
f 64/64/64 55/55/55 56/56/56
f 64/64/64 56/56/56 57/57/57
f 64/64/64 57/57/57 58/58/58
f 64/64/64 58/58/58 59/59/59
f 64/64/64 59/59/59 60/60/60
f 64/64/64 60/60/60 61/61/61
f 64/64/64 61/61/61 62/62/62
f 62/62/62 63/63/63 64/64/64
f 65/65/65 66/66/66 67/67/67
f 65/65/65 67/67/67 68/68/68
f 69/69/69 70/70/70 71/71/71
f 69/69/69 71/71/71 72/72/72
f 73/73/73 74/74/74 75/75/75
f 73/73/73 75/75/75 76/76/76
f 77/77/77 78/78/78 70/70/70
f 77/77/77 70/70/70 69/69/69
f 79/79/79 80/80/80 81/81/81
f 79/79/79 81/81/81 82/82/82
f 83/83/83 84/84/84 74/74/74
f 83/83/83 74/74/74 73/73/73
f 85/85/85 86/86/86 87/87/87
f 85/85/85 87/87/87 88/88/88
f 89/89/89 90/90/90 91/91/91
f 89/89/89 91/91/91 92/92/92
f 93/93/93 94/94/94 95/95/95
f 93/93/93 95/95/95 96/96/96
f 97/97/97 98/98/98 94/94/94
f 97/97/97 94/94/94 93/93/93
f 99/99/99 100/100/100 101/101/101
f 99/99/99 101/101/101 102/102/102
f 76/76/76 75/75/75 103/103/103
f 76/76/76 103/103/103 104/104/104
f 102/102/102 101/101/101 105/105/105
f 102/102/102 105/105/105 106/106/106
f 107/107/107 108/108/108 109/109/109
f 107/107/107 109/109/109 110/110/110
f 92/92/92 91/91/91 111/111/111
f 92/92/92 111/111/111 112/112/112
f 113/113/113 114/114/114 115/115/115
f 113/113/113 115/115/115 116/116/116
f 117/117/117 118/118/118 119/119/119
f 117/117/117 119/119/119 120/120/120
f 120/120/120 119/119/119 98/98/98
f 120/120/120 98/98/98 97/97/97
f 112/112/112 111/111/111 66/66/66
f 112/112/112 66/66/66 65/65/65
f 121/121/121 122/122/122 123/123/123
f 121/121/121 123/123/123 124/124/124
f 125/125/125 126/126/126 114/114/114
f 125/125/125 114/114/114 113/113/113
f 68/68/68 67/67/67 127/127/127
f 68/68/68 127/127/127 128/128/128
f 129/129/129 130/130/130 108/108/108
f 129/129/129 108/108/108 107/107/107
f 124/124/124 123/123/123 131/131/131
f 124/124/124 131/131/131 132/132/132
f 133/133/133 134/134/134 135/135/135
f 133/133/133 135/135/135 136/136/136
f 110/110/110 109/109/109 100/100/100
f 110/110/110 100/100/100 99/99/99
f 137/137/137 84/84/84 83/83/83
f 137/137/137 83/83/83 138/138/138
f 82/82/82 81/81/81 86/86/86
f 82/82/82 86/86/86 85/85/85
f 106/106/106 105/105/105 126/126/126
f 106/106/106 126/126/126 125/125/125
f 136/136/136 135/135/135 139/139/139
f 136/136/136 139/139/139 140/140/140
f 88/88/88 87/87/87 78/78/78
f 88/88/88 78/78/78 77/77/77
f 128/128/128 127/127/127 134/134/134
f 128/128/128 134/134/134 133/133/133
