# Extracted on 9/8/2020 4:14:49 PM
v 0.08610401 0.207873 1.8
vn 0 0 1
vt 0.5463 0.6163
v 0.04389501 0.220677 1.8
vn 0 0 1
vt 0.5227 0.6235
v 0 0.225 1.8
vn 0 0 1
vt 0.4981 0.6259
v -0.04389499 0.220677 1.8
vn 0 0 1
vt 0.4736 0.6235
v -0.08610401 0.207873 1.8
vn 0 0 1
vt 0.45 0.6163
v -0.125003 0.187081 1.8
vn 0 0 1
vt 0.4282 0.6047
v -0.159099 0.159099 1.8
vn 0 0 1
vt 0.4092 0.589
v -0.187081 0.125003 1.8
vn 0 0 1
vt 0.3935 0.5699999
v -0.207873 0.08610401 1.8
vn 0 0 1
vt 0.3819 0.5482
v -0.220677 0.04389501 1.8
vn 0 0 1
vt 0.3747 0.5246
v -0.225 0 1.8
vn 0 0 1
vt 0.3723 0.5001
v -0.220677 -0.04389499 1.8
vn 0 0 1
vt 0.3747 0.4755
v -0.207873 -0.08610401 1.8
vn 0 0 1
vt 0.3819 0.4519
v -0.187081 -0.125003 1.8
vn 0 0 1
vt 0.3935 0.4302
v -0.159099 -0.159099 1.8
vn 0 0 1
vt 0.4092 0.4110999
v -0.125003 -0.187081 1.8
vn 0 0 1
vt 0.4282 0.3954999
v -0.08610401 -0.207873 1.8
vn 0 0 1
vt 0.45 0.3838
v -0.04389499 -0.220677 1.8
vn 0 0 1
vt 0.4736 0.3766999
v 0 -0.225 1.8
vn 0 0 1
vt 0.4981 0.3743
v 0.04389501 -0.220677 1.8
vn 0 0 1
vt 0.5227 0.3766999
v 0.08610401 -0.207873 1.8
vn 0 0 1
vt 0.5463 0.3838
v 0.125003 -0.187081 1.8
vn 0 0 1
vt 0.568 0.3954999
v 0.159099 -0.159099 1.8
vn 0 0 1
vt 0.5871 0.4110999
v 0.187081 -0.125003 1.8
vn 0 0 1
vt 0.6027 0.4302
v 0.207873 -0.08610401 1.8
vn 0 0 1
vt 0.6143 0.4519
v 0.220677 -0.04389499 1.8
vn 0 0 1
vt 0.6215001 0.4755
v 0.225 0 1.8
vn 0 0 1
vt 0.6239 0.5001
v 0.220677 0.04389501 1.8
vn 0 0 1
vt 0.6215001 0.5246
v 0.207873 0.08610401 1.8
vn 0 0 1
vt 0.6143 0.5482
v 0.187081 0.125003 1.8
vn 0 0 1
vt 0.6027 0.5699999
v 0.159099 0.159099 1.8
vn 0 0 1
vt 0.5871 0.589
v 0.125003 0.187081 1.8
vn 0 0 1
vt 0.568 0.6047
v 0 0.225 -1.8
vn 0 0 -1
vt 0.4981 0.6259
v 0.04389501 0.220677 -1.8
vn 0 0 -1
vt 0.5227 0.6235
v 0.08610401 0.207873 -1.8
vn 0 0 -1
vt 0.5463 0.6163
v 0.125003 0.187081 -1.8
vn 0 0 -1
vt 0.568 0.6047
v 0.159099 0.159099 -1.8
vn 0 0 -1
vt 0.5871 0.589
v 0.187081 0.125003 -1.8
vn 0 0 -1
vt 0.6027 0.5699999
v 0.207873 0.08610401 -1.8
vn 0 0 -1
vt 0.6143 0.5482
v 0.220677 0.04389501 -1.8
vn 0 0 -1
vt 0.6215001 0.5246
v 0.225 0 -1.8
vn 0 0 -1
vt 0.6239 0.5001
v 0.220677 -0.04389499 -1.8
vn 0 0 -1
vt 0.6215001 0.4755
v 0.207873 -0.08610401 -1.8
vn 0 0 -1
vt 0.6143 0.4519
v 0.187081 -0.125003 -1.8
vn 0 0 -1
vt 0.6027 0.4302
v 0.159099 -0.159099 -1.8
vn 0 0 -1
vt 0.5871 0.4110999
v 0.125003 -0.187081 -1.8
vn 0 0 -1
vt 0.568 0.3954999
v 0.08610401 -0.207873 -1.8
vn 0 0 -1
vt 0.5463 0.3838
v 0.04389501 -0.220677 -1.8
vn 0 0 -1
vt 0.5227 0.3766999
v 0 -0.225 -1.8
vn 0 0 -1
vt 0.4981 0.3743
v -0.04389499 -0.220677 -1.8
vn 0 0 -1
vt 0.4736 0.3766999
v -0.08610401 -0.207873 -1.8
vn 0 0 -1
vt 0.45 0.3838
v -0.125003 -0.187081 -1.8
vn 0 0 -1
vt 0.4282 0.3954999
v -0.159099 -0.159099 -1.8
vn 0 0 -1
vt 0.4092 0.4110999
v -0.187081 -0.125003 -1.8
vn 0 0 -1
vt 0.3935 0.4302
v -0.207873 -0.08610401 -1.8
vn 0 0 -1
vt 0.3819 0.4519
v -0.220677 -0.04389499 -1.8
vn 0 0 -1
vt 0.3747 0.4755
v -0.225 0 -1.8
vn 0 0 -1
vt 0.3723 0.5001
v -0.220677 0.04389501 -1.8
vn 0 0 -1
vt 0.3747 0.5246
v -0.207873 0.08610401 -1.8
vn 0 0 -1
vt 0.3819 0.5482
v -0.187081 0.125003 -1.8
vn 0 0 -1
vt 0.3935 0.5699999
v -0.159099 0.159099 -1.8
vn 0 0 -1
vt 0.4092 0.589
v -0.125003 0.187081 -1.8
vn 0 0 -1
vt 0.4282 0.6047
v -0.08610401 0.207873 -1.8
vn 0 0 -1
vt 0.45 0.6163
v -0.04389499 0.220677 -1.8
vn 0 0 -1
vt 0.4736 0.6235
v -0.225 0 -1.8
vn -1 0 0
vt 1.0433 0
v -0.225 0 1.8
vn -1 0 0
vt 1.0433 2
v -0.220677 0.04389501 1.8
vn -0.9808 0.1951 0
vt 1.0672 2
v -0.220677 0.04389501 -1.8
vn -0.9808 0.1951 0
vt 1.0672 0
v -0.08610401 0.207873 -1.8
vn -0.3827 0.9239 0
vt 0.9955 0
v -0.08610401 0.207873 1.8
vn -0.3827 0.9239 0
vt 0.9955 2
v -0.04389499 0.220677 1.8
vn -0.1951 0.9808 0
vt 1.0194 2
v -0.04389499 0.220677 -1.8
vn -0.1951 0.9808 0
vt 1.0194 0
v 0.08610401 0.207873 -1.8
vn 0.3827 0.9239 0
vt 1.0911 0
v 0.08610401 0.207873 1.8
vn 0.3827 0.9239 0
vt 1.0911 2
v 0.125003 0.187081 1.8
vn 0.5556 0.8314 0
vt 1.1114 2
v 0.125003 0.187081 -1.8
vn 0.5556 0.8314 0
vt 1.1114 0
v -0.08610401 -0.207873 -1.8
vn -0.3827 -0.9239 0
vt 0.9955 0
v -0.08610401 -0.207873 1.8
vn -0.3827 -0.9239 0
vt 0.9955 2
v -0.125003 -0.187081 1.8
vn -0.5556 -0.8314 0
vt 0.9752 2
v -0.125003 -0.187081 -1.8
vn -0.5556 -0.8314 0
vt 0.9752 0
v -0.125003 0.187081 -1.8
vn -0.5556 0.8314 0
vt 0.9752 0
v -0.125003 0.187081 1.8
vn -0.5556 0.8314 0
vt 0.9752 2
v -0.207873 -0.08610401 -1.8
vn -0.9239 -0.3827 0
vt 0.9955 0
v -0.207873 -0.08610401 1.8
vn -0.9239 -0.3827 0
vt 0.9955 2
v -0.220677 -0.04389499 1.8
vn -0.9808 -0.1951 0
vt 1.0194 2
v -0.220677 -0.04389499 -1.8
vn -0.9808 -0.1951 0
vt 1.0194 0
v 0 -0.225 -1.8
vn 0 -1 0
vt 1.0433 0
v 0 -0.225 1.8
vn 0 -1 0
vt 1.0433 2
v -0.04389499 -0.220677 1.8
vn -0.1951 -0.9808 0
vt 1.0194 2
v -0.04389499 -0.220677 -1.8
vn -0.1951 -0.9808 0
vt 1.0194 0
v 0.04389501 0.220677 -1.8
vn 0.1951 0.9808 0
vt 1.0672 0
v 0.04389501 0.220677 1.8
vn 0.1951 0.9808 0
vt 1.0672 2
v -0.159099 0.159099 -1.8
vn -0.7071 0.7071 0
vt 0.9549 0
v -0.159099 0.159099 1.8
vn -0.7071 0.7071 0
vt 0.9549 2
v 0.159099 0.159099 -1.8
vn 0.7071 0.7071 0
vt 1.1317 0
v 0.159099 0.159099 1.8
vn 0.7071 0.7071 0
vt 1.1317 2
v 0.187081 0.125003 1.8
vn 0.8314 0.5556 0
vt 1.1114 2
v 0.187081 0.125003 -1.8
vn 0.8314 0.5556 0
vt 1.1114 0
v 0 0.225 1.8
vn 0 1 0
vt 1.0433 2
v 0 0.225 -1.8
vn 0 1 0
vt 1.0433 0
v -0.159099 -0.159099 1.8
vn -0.7071 -0.7071 0
vt 0.9549 2
v -0.159099 -0.159099 -1.8
vn -0.7071 -0.7071 0
vt 0.9549 0
v 0.225 0 -1.8
vn 1 0 0
vt 1.0433 0
v 0.225 0 1.8
vn 1 0 0
vt 1.0433 2
v 0.220677 -0.04389499 1.8
vn 0.9808 -0.1951 0
vt 1.0194 2
v 0.220677 -0.04389499 -1.8
vn 0.9808 -0.1951 0
vt 1.0194 0
v 0.207873 -0.08610401 1.8
vn 0.9239 -0.3827 0
vt 0.9955 2
v 0.207873 -0.08610401 -1.8
vn 0.9239 -0.3827 0
vt 0.9955 0
v 0.159099 0.159099 1.8
vn 0.7071 0.7071 0
vt 1.1317 2
v 0.159099 0.159099 -1.8
vn 0.7071 0.7071 0
vt 1.1317 0
v -0.207873 0.08610401 -1.8
vn -0.9239 0.3827 0
vt 1.0911 0
v -0.207873 0.08610401 1.8
vn -0.9239 0.3827 0
vt 1.0911 2
v -0.187081 0.125003 1.8
vn -0.8314 0.5556 0
vt 1.1114 2
v -0.187081 0.125003 -1.8
vn -0.8314 0.5556 0
vt 1.1114 0
v 0.207873 0.08610401 1.8
vn 0.9239 0.3827 0
vt 1.0911 2
v 0.207873 0.08610401 -1.8
vn 0.9239 0.3827 0
vt 1.0911 0
v 0.159099 -0.159099 -1.8
vn 0.7071 -0.7071 0
vt 1.1317 0
v 0.159099 -0.159099 1.8
vn 0.7071 -0.7071 0
vt 1.1317 2
v 0.125003 -0.187081 1.8
vn 0.5556 -0.8314 0
vt 1.1114 2
v 0.125003 -0.187081 -1.8
vn 0.5556 -0.8314 0
vt 1.1114 0
v 0.187081 -0.125003 1.8
vn 0.8314 -0.5556 0
vt 0.9752 2
v 0.187081 -0.125003 -1.8
vn 0.8314 -0.5556 0
vt 0.9752 0
v 0.220677 0.04389501 -1.8
vn 0.9808 0.1951 0
vt 1.0672 0
v 0.220677 0.04389501 1.8
vn 0.9808 0.1951 0
vt 1.0672 2
v 0.08610401 -0.207873 -1.8
vn 0.3827 -0.9239 0
vt 1.0911 0
v 0.08610401 -0.207873 1.8
vn 0.3827 -0.9239 0
vt 1.0911 2
v 0.04389501 -0.220677 1.8
vn 0.1951 -0.9808 0
vt 1.0672 2
v 0.04389501 -0.220677 -1.8
vn 0.1951 -0.9808 0
vt 1.0672 0
v -0.159099 -0.159099 -1.8
vn -0.7071 -0.7071 0
vt 0.9549 0
v -0.159099 -0.159099 1.8
vn -0.7071 -0.7071 0
vt 0.9549 2
v -0.187081 -0.125003 1.8
vn -0.8314 -0.5556 0
vt 0.9752 2
v -0.187081 -0.125003 -1.8
vn -0.8314 -0.5556 0
vt 0.9752 0
v -0.159099 0.159099 1.8
vn -0.7071 0.7071 0
vt 1.1317 2
v -0.159099 0.159099 -1.8
vn -0.7071 0.7071 0
vt 1.1317 0
v 0.159099 -0.159099 1.8
vn 0.7071 -0.7071 0
vt 0.9549 2
v 0.159099 -0.159099 -1.8
vn 0.7071 -0.7071 0
vt 0.9549 0
f 32/32/32 1/1/1 2/2/2
f 32/32/32 2/2/2 3/3/3
f 32/32/32 3/3/3 4/4/4
f 32/32/32 4/4/4 5/5/5
f 32/32/32 5/5/5 6/6/6
f 32/32/32 6/6/6 7/7/7
f 32/32/32 7/7/7 8/8/8
f 32/32/32 8/8/8 9/9/9
f 32/32/32 9/9/9 10/10/10
f 32/32/32 10/10/10 11/11/11
f 32/32/32 11/11/11 12/12/12
f 32/32/32 12/12/12 13/13/13
f 32/32/32 13/13/13 14/14/14
f 32/32/32 14/14/14 15/15/15
f 32/32/32 15/15/15 16/16/16
f 32/32/32 16/16/16 17/17/17
f 32/32/32 17/17/17 18/18/18
f 32/32/32 18/18/18 19/19/19
f 32/32/32 19/19/19 20/20/20
f 32/32/32 20/20/20 21/21/21
f 32/32/32 21/21/21 22/22/22
f 32/32/32 22/22/22 23/23/23
f 32/32/32 23/23/23 24/24/24
f 32/32/32 24/24/24 25/25/25
f 32/32/32 25/25/25 26/26/26
f 32/32/32 26/26/26 27/27/27
f 32/32/32 27/27/27 28/28/28
f 32/32/32 28/28/28 29/29/29
f 32/32/32 29/29/29 30/30/30
f 30/30/30 31/31/31 32/32/32
f 64/64/64 33/33/33 34/34/34
f 64/64/64 34/34/34 35/35/35
f 64/64/64 35/35/35 36/36/36
f 64/64/64 36/36/36 37/37/37
f 64/64/64 37/37/37 38/38/38
f 64/64/64 38/38/38 39/39/39
f 64/64/64 39/39/39 40/40/40
f 64/64/64 40/40/40 41/41/41
f 64/64/64 41/41/41 42/42/42
f 64/64/64 42/42/42 43/43/43
f 64/64/64 43/43/43 44/44/44
f 64/64/64 44/44/44 45/45/45
f 64/64/64 45/45/45 46/46/46
f 64/64/64 46/46/46 47/47/47
f 64/64/64 47/47/47 48/48/48
f 64/64/64 48/48/48 49/49/49
f 64/64/64 49/49/49 50/50/50
f 64/64/64 50/50/50 51/51/51
f 64/64/64 51/51/51 52/52/52
f 64/64/64 52/52/52 53/53/53
f 64/64/64 53/53/53 54/54/54
f 64/64/64 54/54/54 55/55/55
f 64/64/64 55/55/55 56/56/56
f 64/64/64 56/56/56 57/57/57
f 64/64/64 57/57/57 58/58/58
f 64/64/64 58/58/58 59/59/59
f 64/64/64 59/59/59 60/60/60
f 64/64/64 60/60/60 61/61/61
f 64/64/64 61/61/61 62/62/62
f 62/62/62 63/63/63 64/64/64
f 65/65/65 66/66/66 67/67/67
f 65/65/65 67/67/67 68/68/68
f 69/69/69 70/70/70 71/71/71
f 69/69/69 71/71/71 72/72/72
f 73/73/73 74/74/74 75/75/75
f 73/73/73 75/75/75 76/76/76
f 77/77/77 78/78/78 79/79/79
f 77/77/77 79/79/79 80/80/80
f 81/81/81 82/82/82 70/70/70
f 81/81/81 70/70/70 69/69/69
f 83/83/83 84/84/84 85/85/85
f 83/83/83 85/85/85 86/86/86
f 87/87/87 88/88/88 89/89/89
f 87/87/87 89/89/89 90/90/90
f 91/91/91 92/92/92 74/74/74
f 91/91/91 74/74/74 73/73/73
f 93/93/93 94/94/94 82/82/82
f 93/93/93 82/82/82 81/81/81
f 95/95/95 96/96/96 97/97/97
f 95/95/95 97/97/97 98/98/98
f 72/72/72 71/71/71 99/99/99
f 72/72/72 99/99/99 100/100/100
f 86/86/86 85/85/85 66/66/66
f 86/86/86 66/66/66 65/65/65
f 80/80/80 79/79/79 101/101/101
f 80/80/80 101/101/101 102/102/102
f 103/103/103 104/104/104 105/105/105
f 103/103/103 105/105/105 106/106/106
f 106/106/106 105/105/105 107/107/107
f 106/106/106 107/107/107 108/108/108
f 76/76/76 75/75/75 109/109/109
f 76/76/76 109/109/109 110/110/110
f 111/111/111 112/112/112 113/113/113
f 111/111/111 113/113/113 114/114/114
f 99/99/99 92/92/92 91/91/91
f 99/99/99 91/91/91 100/100/100
f 98/98/98 97/97/97 115/115/115
f 98/98/98 115/115/115 116/116/116
f 117/117/117 118/118/118 119/119/119
f 117/117/117 119/119/119 120/120/120
f 108/108/108 107/107/107 121/121/121
f 108/108/108 121/121/121 122/122/122
f 123/123/123 124/124/124 104/104/104
f 123/123/123 104/104/104 103/103/103
f 125/125/125 126/126/126 127/127/127
f 125/125/125 127/127/127 128/128/128
f 116/116/116 115/115/115 124/124/124
f 116/116/116 124/124/124 123/123/123
f 120/120/120 119/119/119 126/126/126
f 120/120/120 126/126/126 125/125/125
f 90/90/90 89/89/89 78/78/78
f 90/90/90 78/78/78 77/77/77
f 129/129/129 130/130/130 131/131/131
f 129/129/129 131/131/131 132/132/132
f 114/114/114 113/113/113 133/133/133
f 114/114/114 133/133/133 134/134/134
f 122/122/122 121/121/121 135/135/135
f 122/122/122 135/135/135 136/136/136
f 128/128/128 127/127/127 88/88/88
f 128/128/128 88/88/88 87/87/87
f 132/132/132 131/131/131 84/84/84
f 132/132/132 84/84/84 83/83/83
f 68/68/68 67/67/67 112/112/112
f 68/68/68 112/112/112 111/111/111
