# Extracted on 9/8/2020 4:14:49 PM
v 1.722075 4.157457 0.9
vn 0 0 1
vt 1.461 2.8247
v 0.8779058 4.413533 0.9
vn 0 0 1
vt 0.9890001 2.9679
v -9.536743E-07 4.5 0.9
vn 0 0 1
vt 0.4981 3.0162
v -0.8779058 4.413533 0.9
vn 0 0 1
vt 0.007200003 2.9679
v -1.722074 4.157457 0.9
vn 0 0 1
vt -0.4648 2.8247
v -2.500065 3.741613 0.9
vn 0 0 1
vt -0.8997999 2.5922
v -3.181981 3.181982 0.9
vn 0 0 1
vt -1.2811 2.2793
v -3.741613 2.500067 0.9
vn 0 0 1
vt -1.594 1.898
v -4.157458 1.722077 0.9
vn 0 0 1
vt -1.8265 1.463
v -4.413534 0.8779068 0.9
vn 0 0 1
vt -1.9697 0.9909999
v -4.500001 0 0.9
vn 0 0 1
vt -2.018 0.5000999
v -4.413534 -0.8779061 0.9
vn 0 0 1
vt -1.9697 0.009200096
v -4.157459 -1.722076 0.9
vn 0 0 1
vt -1.8265 -0.4628
v -3.741613 -2.500066 0.9
vn 0 0 1
vt -1.594 -0.8978
v -3.181981 -3.181982 0.9
vn 0 0 1
vt -1.2811 -1.2791
v -2.500066 -3.741613 0.9
vn 0 0 1
vt -0.8997999 -1.592
v -1.722076 -4.157458 0.9
vn 0 0 1
vt -0.4648 -1.8245
v -0.877907 -4.413533 0.9
vn 0 0 1
vt 0.007200003 -1.9677
v 0 -4.5 0.9
vn 0 0 1
vt 0.4981 -2.0161
v 0.8779058 -4.413533 0.9
vn 0 0 1
vt 0.9890001 -1.9677
v 1.722075 -4.157458 0.9
vn 0 0 1
vt 1.461 -1.8245
v 2.500065 -3.741613 0.9
vn 0 0 1
vt 1.896 -1.592
v 3.18198 -3.181981 0.9
vn 0 0 1
vt 2.2773 -1.2791
v 3.741612 -2.500066 0.9
vn 0 0 1
vt 2.5902 -0.8978
v 4.157456 -1.722076 0.9
vn 0 0 1
vt 2.8227 -0.4628
v 4.413531 -0.8779061 0.9
vn 0 0 1
vt 2.9659 0.009200096
v 4.499999 0 0.9
vn 0 0 1
vt 3.0143 0.5000999
v 4.413531 0.8779058 0.9
vn 0 0 1
vt 2.9659 0.9909999
v 4.157456 1.722075 0.9
vn 0 0 1
vt 2.8227 1.463
v 3.741612 2.500066 0.9
vn 0 0 1
vt 2.5902 1.898
v 3.18198 3.181981 0.9
vn 0 0 1
vt 2.2773 2.2793
v 2.500065 3.741613 0.9
vn 0 0 1
vt 1.896 2.5922
v -9.536743E-07 4.5 -0.9
vn 0 0 -1
vt 0.4981 3.0162
v 0.8779058 4.413533 -0.9
vn 0 0 -1
vt 0.9890001 2.9679
v 1.722075 4.157457 -0.9
vn 0 0 -1
vt 1.461 2.8247
v 2.500065 3.741613 -0.9
vn 0 0 -1
vt 1.896 2.5922
v 3.18198 3.181981 -0.9
vn 0 0 -1
vt 2.2773 2.2793
v 3.741612 2.500066 -0.9
vn 0 0 -1
vt 2.5902 1.898
v 4.157456 1.722075 -0.9
vn 0 0 -1
vt 2.8227 1.463
v 4.413531 0.8779058 -0.9
vn 0 0 -1
vt 2.9659 0.9909999
v 4.499999 0 -0.9
vn 0 0 -1
vt 3.0143 0.5000999
v 4.413531 -0.8779061 -0.9
vn 0 0 -1
vt 2.9659 0.009200096
v 4.157456 -1.722076 -0.9
vn 0 0 -1
vt 2.8227 -0.4628
v 3.741612 -2.500066 -0.9
vn 0 0 -1
vt 2.5902 -0.8978
v 3.18198 -3.181981 -0.9
vn 0 0 -1
vt 2.2773 -1.2791
v 2.500065 -3.741613 -0.9
vn 0 0 -1
vt 1.896 -1.592
v 1.722075 -4.157458 -0.9
vn 0 0 -1
vt 1.461 -1.8245
v 0.8779058 -4.413533 -0.9
vn 0 0 -1
vt 0.9890001 -1.9677
v 0 -4.5 -0.9
vn 0 0 -1
vt 0.4981 -2.0161
v -0.877907 -4.413533 -0.9
vn 0 0 -1
vt 0.007200003 -1.9677
v -1.722076 -4.157458 -0.9
vn 0 0 -1
vt -0.4648 -1.8245
v -2.500066 -3.741613 -0.9
vn 0 0 -1
vt -0.8997999 -1.592
v -3.181981 -3.181982 -0.9
vn 0 0 -1
vt -1.2811 -1.2791
v -3.741613 -2.500066 -0.9
vn 0 0 -1
vt -1.594 -0.8978
v -4.157459 -1.722076 -0.9
vn 0 0 -1
vt -1.8265 -0.4628
v -4.413534 -0.8779061 -0.9
vn 0 0 -1
vt -1.9697 0.009200096
v -4.500001 0 -0.9
vn 0 0 -1
vt -2.018 0.5000999
v -4.413534 0.8779068 -0.9
vn 0 0 -1
vt -1.9697 0.9909999
v -4.157458 1.722077 -0.9
vn 0 0 -1
vt -1.8265 1.463
v -3.741613 2.500067 -0.9
vn 0 0 -1
vt -1.594 1.898
v -3.181981 3.181982 -0.9
vn 0 0 -1
vt -1.2811 2.2793
v -2.500065 3.741613 -0.9
vn 0 0 -1
vt -0.8997999 2.5922
v -1.722074 4.157457 -0.9
vn 0 0 -1
vt -0.4648 2.8247
v -0.8779058 4.413533 -0.9
vn 0 0 -1
vt 0.007200003 2.9679
v -2.500065 3.741613 -0.9
vn -0.5556 0.8314 0
vt 1.6811 1
v -2.500065 3.741613 0.9
vn -0.5556 0.8314 0
vt 1.6811 2
v -1.722074 4.157457 0.9
vn -0.3827 0.9239 0
vt 2.0866 2
v -1.722074 4.157457 -0.9
vn -0.3827 0.9239 0
vt 2.0866 1
v 2.500065 3.741613 -0.9
vn 0.5556 0.8314 0
vt 1.4055 1
v 2.500065 3.741613 0.9
vn 0.5556 0.8314 0
vt 1.4055 2
v 3.18198 3.181981 0.9
vn 0.7071 0.7071 0
vt 1.8111 2
v 3.18198 3.181981 -0.9
vn 0.7071 0.7071 0
vt 1.8111 1
v -4.157459 -1.722076 -0.9
vn -0.9239 -0.3827 0
vt 1.0866 1
v -4.157459 -1.722076 0.9
vn -0.9239 -0.3827 0
vt 1.0866 2
v -4.413534 -0.8779061 0.9
vn -0.9808 -0.1951 0
vt 1.5649 2
v -4.413534 -0.8779061 -0.9
vn -0.9808 -0.1951 0
vt 1.5649 1
v -4.413534 0.8779068 -0.9
vn -0.9808 0.1951 0
vt 1.5216 1
v -4.413534 0.8779068 0.9
vn -0.9808 0.1951 0
vt 1.5216 2
v -4.157458 1.722077 0.9
vn -0.9239 0.3827 0
vt 2 2
v -4.157458 1.722077 -0.9
vn -0.9239 0.3827 0
vt 2 1
v -4.500001 0 -0.9
vn -1 0 0
vt 1.0433 1
v -4.500001 0 0.9
vn -1 0 0
vt 1.0433 2
v -3.741613 2.500067 -0.9
vn -0.8314 0.5556 0
vt 1.4055 1
v -3.741613 2.500067 0.9
vn -0.8314 0.5556 0
vt 1.4055 2
v -3.181981 3.181982 0.9
vn -0.7071 0.7071 0
vt 1.8111 2
v -3.181981 3.181982 -0.9
vn -0.7071 0.7071 0
vt 1.8111 1
v -3.741613 -2.500066 -0.9
vn -0.8314 -0.5556 0
vt 1.6811 1
v -3.741613 -2.500066 0.9
vn -0.8314 -0.5556 0
vt 1.6811 2
v -4.157459 -1.722076 0.9
vn -0.9239 -0.3827 0
vt 2.0866 2
v -4.157459 -1.722076 -0.9
vn -0.9239 -0.3827 0
vt 2.0866 1
v 3.741612 2.500066 -0.9
vn 0.8314 0.5556 0
vt 0.4054999 1
v 3.741612 2.500066 0.9
vn 0.8314 0.5556 0
vt 0.4054999 2
v 4.157456 1.722075 0.9
vn 0.9239 0.3827 0
vt 0 2
v 4.157456 1.722075 -0.9
vn 0.9239 0.3827 0
vt 0 1
v 3.18198 -3.181981 -0.9
vn 0.7071 -0.7071 0
vt 0.8111002 1
v 3.18198 -3.181981 0.9
vn 0.7071 -0.7071 0
vt 0.8111002 2
v 2.500065 -3.741613 0.9
vn 0.5556 -0.8314 0
vt 0.4054999 2
v 2.500065 -3.741613 -0.9
vn 0.5556 -0.8314 0
vt 0.4054999 1
v -9.536743E-07 4.5 0.9
vn 0 1 0
vt 1.0433 2
v 0.8779058 4.413533 0.9
vn 0.1951 0.9808 0
vt 1.5216 2
v 0.8779058 4.413533 -0.9
vn 0.1951 0.9808 0
vt 1.5216 1
v -9.536743E-07 4.5 -0.9
vn 0 1 0
vt 1.0433 1
v 4.413531 -0.8779061 -0.9
vn 0.9808 -0.1951 0
vt 0.5648999 1
v 4.413531 -0.8779061 0.9
vn 0.9808 -0.1951 0
vt 0.5648999 2
v 4.157456 -1.722076 0.9
vn 0.9239 -0.3827 0
vt 0.08660007 2
v 4.157456 -1.722076 -0.9
vn 0.9239 -0.3827 0
vt 0.08660007 1
v 4.499999 0 -0.9
vn 1 0 0
vt 1.0433 1
v 4.499999 0 0.9
vn 1 0 0
vt 1.0433 2
v -0.8779058 4.413533 -0.9
vn -0.1951 0.9808 0
vt 1.5649 1
v -0.8779058 4.413533 0.9
vn -0.1951 0.9808 0
vt 1.5649 2
v -9.536743E-07 4.5 0.9
vn 0 1 0
vt 2.0433 2
v -9.536743E-07 4.5 -0.9
vn 0 1 0
vt 2.0433 1
v 4.157456 -1.722076 -0.9
vn 0.9239 -0.3827 0
vt 1.0866 1
v 4.157456 -1.722076 0.9
vn 0.9239 -0.3827 0
vt 1.0866 2
v 3.741612 -2.500066 0.9
vn 0.8314 -0.5556 0
vt 0.6811001 2
v 3.741612 -2.500066 -0.9
vn 0.8314 -0.5556 0
vt 0.6811001 1
v 1.722075 -4.157458 -0.9
vn 0.3827 -0.9239 0
vt 0.9999998 1
v 1.722075 -4.157458 0.9
vn 0.3827 -0.9239 0
vt 0.9999998 2
v 0.8779058 -4.413533 0.9
vn 0.1951 -0.9808 0
vt 0.5216 2
v 0.8779058 -4.413533 -0.9
vn 0.1951 -0.9808 0
vt 0.5216 1
v 3.18198 -3.181981 0.9
vn 0.7071 -0.7071 0
vt 0.2755001 2
v 3.18198 -3.181981 -0.9
vn 0.7071 -0.7071 0
vt 0.2755001 1
v -2.500066 -3.741613 -0.9
vn -0.5556 -0.8314 0
vt 0.6811001 1
v -2.500066 -3.741613 0.9
vn -0.5556 -0.8314 0
vt 0.6811001 2
v -3.181981 -3.181982 0.9
vn -0.7071 -0.7071 0
vt 0.2755001 2
v -3.181981 -3.181982 -0.9
vn -0.7071 -0.7071 0
vt 0.2755001 1
v 4.157456 1.722075 -0.9
vn 0.9239 0.3827 0
vt 0.9999998 1
v 4.157456 1.722075 0.9
vn 0.9239 0.3827 0
vt 0.9999998 2
v 4.413531 0.8779058 0.9
vn 0.9808 0.1951 0
vt 0.5216 2
v 4.413531 0.8779058 -0.9
vn 0.9808 0.1951 0
vt 0.5216 1
v 4.499999 0 0.9
vn 1 0 0
vt 0.04329991 2
v 4.499999 0 -0.9
vn 1 0 0
vt 0.04329991 1
v 1.722075 4.157457 0.9
vn 0.3827 0.9239 0
vt 2 2
v 1.722075 4.157457 -0.9
vn 0.3827 0.9239 0
vt 2 1
v -3.181981 3.181982 -0.9
vn -0.7071 0.7071 0
vt 1.2755 1
v -3.181981 3.181982 0.9
vn -0.7071 0.7071 0
vt 1.2755 2
v -0.877907 -4.413533 -0.9
vn -0.1951 -0.9808 0
vt 0.5648999 1
v -0.877907 -4.413533 0.9
vn -0.1951 -0.9808 0
vt 0.5648999 2
v -1.722076 -4.157458 0.9
vn -0.3827 -0.9239 0
vt 0.08660007 2
v -1.722076 -4.157458 -0.9
vn -0.3827 -0.9239 0
vt 0.08660007 1
v 1.722075 4.157457 -0.9
vn 0.3827 0.9239 0
vt 0.9999998 1
v 1.722075 4.157457 0.9
vn 0.3827 0.9239 0
vt 0.9999998 2
v -4.157458 1.722077 -0.9
vn -0.9239 0.3827 0
vt 0.9999998 1
v -4.157458 1.722077 0.9
vn -0.9239 0.3827 0
vt 0.9999998 2
v 0 -4.5 -0.9
vn 0 -1 0
vt 1.0433 1
v 0 -4.5 0.9
vn 0 -1 0
vt 1.0433 2
v -1.722074 4.157457 -0.9
vn -0.3827 0.9239 0
vt 1.0866 1
v -1.722074 4.157457 0.9
vn -0.3827 0.9239 0
vt 1.0866 2
v -1.722076 -4.157458 -0.9
vn -0.3827 -0.9239 0
vt 1.0866 1
v -1.722076 -4.157458 0.9
vn -0.3827 -0.9239 0
vt 1.0866 2
v 3.18198 3.181981 -0.9
vn 0.7071 0.7071 0
vt 0.8111002 1
v 3.18198 3.181981 0.9
vn 0.7071 0.7071 0
vt 0.8111002 2
v 0 -4.5 0.9
vn 0 -1 0
vt 0.04329991 2
v 0 -4.5 -0.9
vn 0 -1 0
vt 0.04329991 1
v -3.181981 -3.181982 -0.9
vn -0.7071 -0.7071 0
vt 1.2755 1
v -3.181981 -3.181982 0.9
vn -0.7071 -0.7071 0
vt 1.2755 2
v -4.500001 0 0.9
vn -1 0 0
vt 2.0433 2
v -4.500001 0 -0.9
vn -1 0 0
vt 2.0433 1
v 1.722075 -4.157458 0.9
vn 0.3827 -0.9239 0
vt 0 2
v 1.722075 -4.157458 -0.9
vn 0.3827 -0.9239 0
vt 0 1
f 32/32/32 1/1/1 2/2/2
f 32/32/32 2/2/2 3/3/3
f 32/32/32 3/3/3 4/4/4
f 32/32/32 4/4/4 5/5/5
f 32/32/32 5/5/5 6/6/6
f 32/32/32 6/6/6 7/7/7
f 32/32/32 7/7/7 8/8/8
f 32/32/32 8/8/8 9/9/9
f 32/32/32 9/9/9 10/10/10
f 32/32/32 10/10/10 11/11/11
f 32/32/32 11/11/11 12/12/12
f 32/32/32 12/12/12 13/13/13
f 32/32/32 13/13/13 14/14/14
f 32/32/32 14/14/14 15/15/15
f 32/32/32 15/15/15 16/16/16
f 32/32/32 16/16/16 17/17/17
f 32/32/32 17/17/17 18/18/18
f 32/32/32 18/18/18 19/19/19
f 32/32/32 19/19/19 20/20/20
f 32/32/32 20/20/20 21/21/21
f 32/32/32 21/21/21 22/22/22
f 32/32/32 22/22/22 23/23/23
f 32/32/32 23/23/23 24/24/24
f 32/32/32 24/24/24 25/25/25
f 32/32/32 25/25/25 26/26/26
f 32/32/32 26/26/26 27/27/27
f 32/32/32 27/27/27 28/28/28
f 32/32/32 28/28/28 29/29/29
f 32/32/32 29/29/29 30/30/30
f 30/30/30 31/31/31 32/32/32
f 64/64/64 33/33/33 34/34/34
f 64/64/64 34/34/34 35/35/35
f 64/64/64 35/35/35 36/36/36
f 64/64/64 36/36/36 37/37/37
f 64/64/64 37/37/37 38/38/38
f 64/64/64 38/38/38 39/39/39
f 64/64/64 39/39/39 40/40/40
f 64/64/64 40/40/40 41/41/41
f 64/64/64 41/41/41 42/42/42
f 64/64/64 42/42/42 43/43/43
f 64/64/64 43/43/43 44/44/44
f 64/64/64 44/44/44 45/45/45
f 64/64/64 45/45/45 46/46/46
f 64/64/64 46/46/46 47/47/47
f 64/64/64 47/47/47 48/48/48
f 64/64/64 48/48/48 49/49/49
f 64/64/64 49/49/49 50/50/50
f 64/64/64 50/50/50 51/51/51
f 64/64/64 51/51/51 52/52/52
f 64/64/64 52/52/52 53/53/53
f 64/64/64 53/53/53 54/54/54
f 64/64/64 54/54/54 55/55/55
f 64/64/64 55/55/55 56/56/56
f 64/64/64 56/56/56 57/57/57
f 64/64/64 57/57/57 58/58/58
f 64/64/64 58/58/58 59/59/59
f 64/64/64 59/59/59 60/60/60
f 64/64/64 60/60/60 61/61/61
f 64/64/64 61/61/61 62/62/62
f 62/62/62 63/63/63 64/64/64
f 65/65/65 66/66/66 67/67/67
f 65/65/65 67/67/67 68/68/68
f 69/69/69 70/70/70 71/71/71
f 69/69/69 71/71/71 72/72/72
f 73/73/73 74/74/74 75/75/75
f 73/73/73 75/75/75 76/76/76
f 77/77/77 78/78/78 79/79/79
f 77/77/77 79/79/79 80/80/80
f 81/81/81 82/82/82 78/78/78
f 81/81/81 78/78/78 77/77/77
f 83/83/83 84/84/84 85/85/85
f 83/83/83 85/85/85 86/86/86
f 87/87/87 88/88/88 89/89/89
f 87/87/87 89/89/89 90/90/90
f 91/91/91 92/92/92 93/93/93
f 91/91/91 93/93/93 94/94/94
f 95/95/95 96/96/96 97/97/97
f 95/95/95 97/97/97 98/98/98
f 99/99/99 100/100/100 101/101/101
f 99/99/99 101/101/101 102/102/102
f 103/103/103 104/104/104 105/105/105
f 103/103/103 105/105/105 106/106/106
f 107/107/107 108/108/108 104/104/104
f 107/107/107 104/104/104 103/103/103
f 109/109/109 110/110/110 111/111/111
f 109/109/109 111/111/111 112/112/112
f 113/113/113 114/114/114 115/115/115
f 113/113/113 115/115/115 116/116/116
f 117/117/117 118/118/118 119/119/119
f 117/117/117 119/119/119 120/120/120
f 116/116/116 115/115/115 121/121/121
f 116/116/116 121/121/121 122/122/122
f 123/123/123 124/124/124 125/125/125
f 123/123/123 125/125/125 126/126/126
f 127/127/127 128/128/128 129/129/129
f 127/127/127 129/129/129 130/130/130
f 130/130/130 129/129/129 131/131/131
f 130/130/130 131/131/131 132/132/132
f 101/101/101 100/100/100 133/133/133
f 101/101/101 133/133/133 134/134/134
f 135/135/135 136/136/136 66/66/66
f 135/135/135 66/66/66 65/65/65
f 137/137/137 138/138/138 139/139/139
f 137/137/137 139/139/139 140/140/140
f 141/141/141 142/142/142 70/70/70
f 141/141/141 70/70/70 69/69/69
f 143/143/143 144/144/144 84/84/84
f 143/143/143 84/84/84 83/83/83
f 145/145/145 146/146/146 138/138/138
f 145/145/145 138/138/138 137/137/137
f 147/147/147 148/148/148 110/110/110
f 147/147/147 110/110/110 109/109/109
f 149/149/149 150/150/150 124/124/124
f 149/149/149 124/124/124 123/123/123
f 151/151/151 152/152/152 92/92/92
f 151/151/151 92/92/92 91/91/91
f 120/120/120 119/119/119 153/153/153
f 120/120/120 153/153/153 154/154/154
f 155/155/155 156/156/156 88/88/88
f 155/155/155 88/88/88 87/87/87
f 76/76/76 75/75/75 157/157/157
f 76/76/76 157/157/157 158/158/158
f 98/98/98 97/97/97 159/159/159
f 98/98/98 159/159/159 160/160/160
