# Extracted on 9/8/2020 4:14:49 PM
v 0.3444151 0.8314919 1.8
vn 0 0 1
vt 0.6907 0.9649999
v 0.1755811 0.882707 1.8
vn 0 0 1
vt 0.5963 0.9936
v 0 0.9 1.8
vn 0 0 1
vt 0.4981 1.0033
v -0.175581 0.882707 1.8
vn 0 0 1
vt 0.3999 0.9936
v -0.344415 0.8314919 1.8
vn 0 0 1
vt 0.3055 0.9649999
v -0.500013 0.748323 1.8
vn 0 0 1
vt 0.2185 0.9184999
v -0.636396 0.6363961 1.8
vn 0 0 1
vt 0.1423 0.8558999
v -0.748322 0.500013 1.8
vn 0 0 1
vt 0.0797 0.7796999
v -0.831491 0.3444151 1.8
vn 0 0 1
vt 0.0332 0.6926999
v -0.882706 0.1755811 1.8
vn 0 0 1
vt 0.0046 0.5982
v -0.9 0 1.8
vn 0 0 1
vt -0.0051 0.5001
v -0.882707 -0.175581 1.8
vn 0 0 1
vt 0.004499999 0.4019001
v -0.831492 -0.344415 1.8
vn 0 0 1
vt 0.0332 0.3075
v -0.748322 -0.500013 1.8
vn 0 0 1
vt 0.0797 0.2205
v -0.636396 -0.636396 1.8
vn 0 0 1
vt 0.1423 0.1442
v -0.500013 -0.748323 1.8
vn 0 0 1
vt 0.2185 0.08170009
v -0.344415 -0.831492 1.8
vn 0 0 1
vt 0.3055 0.03509998
v -0.175581 -0.882707 1.8
vn 0 0 1
vt 0.3999 0.006500006
v 0 -0.9 1.8
vn 0 0 1
vt 0.4981 -0.003200054
v 0.1755811 -0.882706 1.8
vn 0 0 1
vt 0.5963 0.006500006
v 0.3444151 -0.831492 1.8
vn 0 0 1
vt 0.6907 0.03509998
v 0.500013 -0.748322 1.8
vn 0 0 1
vt 0.7777 0.08170009
v 0.6363961 -0.636396 1.8
vn 0 0 1
vt 0.8539 0.1442
v 0.748322 -0.500013 1.8
vn 0 0 1
vt 0.9165 0.2205
v 0.8314919 -0.344415 1.8
vn 0 0 1
vt 0.963 0.3075
v 0.8827059 -0.175581 1.8
vn 0 0 1
vt 0.9917 0.4019001
v 0.9 0 1.8
vn 0 0 1
vt 1.0013 0.5001
v 0.8827059 0.1755811 1.8
vn 0 0 1
vt 0.9917 0.5982
v 0.8314919 0.3444151 1.8
vn 0 0 1
vt 0.963 0.6926999
v 0.748322 0.500013 1.8
vn 0 0 1
vt 0.9165 0.7796999
v 0.6363961 0.6363961 1.8
vn 0 0 1
vt 0.8539 0.8558999
v 0.500013 0.748323 1.8
vn 0 0 1
vt 0.7777 0.9184999
v 0 0.9 -1.8
vn 0 0 -1
vt 0.4981 1.0033
v 0.1755811 0.882707 -1.8
vn 0 0 -1
vt 0.5963 0.9936
v 0.3444151 0.8314919 -1.8
vn 0 0 -1
vt 0.6907 0.9649999
v 0.500013 0.748323 -1.8
vn 0 0 -1
vt 0.7777 0.9184999
v 0.6363961 0.6363961 -1.8
vn 0 0 -1
vt 0.8539 0.8558999
v 0.748322 0.500013 -1.8
vn 0 0 -1
vt 0.9165 0.7796999
v 0.8314919 0.3444151 -1.8
vn 0 0 -1
vt 0.963 0.6926999
v 0.8827059 0.1755811 -1.8
vn 0 0 -1
vt 0.9917 0.5982
v 0.9 0 -1.8
vn 0 0 -1
vt 1.0013 0.5001
v 0.8827059 -0.175581 -1.8
vn 0 0 -1
vt 0.9917 0.4019001
v 0.8314919 -0.344415 -1.8
vn 0 0 -1
vt 0.963 0.3075
v 0.748322 -0.500013 -1.8
vn 0 0 -1
vt 0.9165 0.2205
v 0.6363961 -0.636396 -1.8
vn 0 0 -1
vt 0.8539 0.1442
v 0.500013 -0.748322 -1.8
vn 0 0 -1
vt 0.7777 0.08170009
v 0.3444151 -0.831492 -1.8
vn 0 0 -1
vt 0.6907 0.03509998
v 0.1755811 -0.882706 -1.8
vn 0 0 -1
vt 0.5963 0.006500006
v 0 -0.9 -1.8
vn 0 0 -1
vt 0.4981 -0.003200054
v -0.175581 -0.882707 -1.8
vn 0 0 -1
vt 0.3999 0.006500006
v -0.344415 -0.831492 -1.8
vn 0 0 -1
vt 0.3055 0.03509998
v -0.500013 -0.748323 -1.8
vn 0 0 -1
vt 0.2185 0.08170009
v -0.636396 -0.636396 -1.8
vn 0 0 -1
vt 0.1423 0.1442
v -0.748322 -0.500013 -1.8
vn 0 0 -1
vt 0.0797 0.2205
v -0.831492 -0.344415 -1.8
vn 0 0 -1
vt 0.0332 0.3075
v -0.882707 -0.175581 -1.8
vn 0 0 -1
vt 0.004499999 0.4019001
v -0.9 0 -1.8
vn 0 0 -1
vt -0.0051 0.5001
v -0.882706 0.1755811 -1.8
vn 0 0 -1
vt 0.0046 0.5982
v -0.831491 0.3444151 -1.8
vn 0 0 -1
vt 0.0332 0.6926999
v -0.748322 0.500013 -1.8
vn 0 0 -1
vt 0.0797 0.7796999
v -0.636396 0.6363961 -1.8
vn 0 0 -1
vt 0.1423 0.8558999
v -0.500013 0.748323 -1.8
vn 0 0 -1
vt 0.2185 0.9184999
v -0.344415 0.8314919 -1.8
vn 0 0 -1
vt 0.3055 0.9649999
v -0.175581 0.882707 -1.8
vn 0 0 -1
vt 0.3999 0.9936
v 0 -0.9 -1.8
vn 0 -1 0
vt 0.5433 0
v 0 -0.9 1.8
vn 0 -1 0
vt 0.5433 2
v -0.175581 -0.882707 1.8
vn -0.1951 -0.9808 0
vt 0.4476 2
v -0.175581 -0.882707 -1.8
vn -0.1951 -0.9808 0
vt 0.4476 0
v -0.500013 0.748323 -1.8
vn -0.5556 0.8314 0
vt 1.2708 0
v -0.500013 0.748323 1.8
vn -0.5556 0.8314 0
vt 1.2708 2
v -0.344415 0.8314919 1.8
vn -0.3827 0.9239 0
vt 1.352 2
v -0.344415 0.8314919 -1.8
vn -0.3827 0.9239 0
vt 1.352 0
v -0.882706 0.1755811 -1.8
vn -0.9808 0.1951 0
vt 1.139 0
v -0.882706 0.1755811 1.8
vn -0.9808 0.1951 0
vt 1.139 2
v -0.831491 0.3444151 1.8
vn -0.9239 0.3827 0
vt 1.2346 2
v -0.831491 0.3444151 -1.8
vn -0.9239 0.3827 0
vt 1.2346 0
v 0.6363961 -0.636396 -1.8
vn 0.7071 -0.7071 0
vt 0.8968 0
v 0.6363961 -0.636396 1.8
vn 0.7071 -0.7071 0
vt 0.8968 2
v 0.500013 -0.748322 1.8
vn 0.5556 -0.8314 0
vt 0.8156999 2
v 0.500013 -0.748322 -1.8
vn 0.5556 -0.8314 0
vt 0.8156999 0
v 0.8827059 0.1755811 -1.8
vn 0.9808 0.1951 0
vt 1.139 0
v 0.8827059 0.1755811 1.8
vn 0.9808 0.1951 0
vt 1.139 2
v 0.9 0 1.8
vn 1 0 0
vt 1.0433 2
v 0.9 0 -1.8
vn 1 0 0
vt 1.0433 0
v -0.882707 -0.175581 -1.8
vn -0.9808 -0.1951 0
vt 0.9476 0
v -0.882707 -0.175581 1.8
vn -0.9808 -0.1951 0
vt 0.9476 2
v -0.9 0 1.8
vn -1 0 0
vt 1.0433 2
v -0.9 0 -1.8
vn -1 0 0
vt 1.0433 0
v 0.8827059 -0.175581 1.8
vn 0.9808 -0.1951 0
vt 0.9476 2
v 0.8827059 -0.175581 -1.8
vn 0.9808 -0.1951 0
vt 0.9476 0
v 0.748322 -0.500013 -1.8
vn 0.8314 -0.5556 0
vt 0.7708 0
v 0.748322 -0.500013 1.8
vn 0.8314 -0.5556 0
vt 0.7708 2
v 0.6363961 -0.636396 1.8
vn 0.7071 -0.7071 0
vt 0.6897 2
v 0.6363961 -0.636396 -1.8
vn 0.7071 -0.7071 0
vt 0.6897 0
v 0.8314919 -0.344415 -1.8
vn 0.9239 -0.3827 0
vt 0.852 0
v 0.8314919 -0.344415 1.8
vn 0.9239 -0.3827 0
vt 0.852 2
v -0.636396 0.6363961 -1.8
vn -0.7071 0.7071 0
vt 1.1897 0
v -0.636396 0.6363961 1.8
vn -0.7071 0.7071 0
vt 1.1897 2
v 0.3444151 0.8314919 -1.8
vn 0.3827 0.9239 0
vt 0.7345999 0
v 0.3444151 0.8314919 1.8
vn 0.3827 0.9239 0
vt 0.7345999 2
v 0.500013 0.748323 1.8
vn 0.5556 0.8314 0
vt 0.8156999 2
v 0.500013 0.748323 -1.8
vn 0.5556 0.8314 0
vt 0.8156999 0
v 0.8314919 0.3444151 -1.8
vn 0.9239 0.3827 0
vt 1.2346 0
v 0.8314919 0.3444151 1.8
vn 0.9239 0.3827 0
vt 1.2346 2
v -0.175581 0.882707 1.8
vn -0.1951 0.9808 0
vt 1.4476 2
v -0.175581 0.882707 -1.8
vn -0.1951 0.9808 0
vt 1.4476 0
v 0.1755811 0.882707 -1.8
vn 0.1951 0.9808 0
vt 0.639 0
v 0.1755811 0.882707 1.8
vn 0.1951 0.9808 0
vt 0.639 2
v -0.748322 -0.500013 -1.8
vn -0.8314 -0.5556 0
vt 0.7708 0
v -0.748322 -0.500013 1.8
vn -0.8314 -0.5556 0
vt 0.7708 2
v -0.831492 -0.344415 1.8
vn -0.9239 -0.3827 0
vt 0.852 2
v -0.831492 -0.344415 -1.8
vn -0.9239 -0.3827 0
vt 0.852 0
v 0.3444151 -0.831492 -1.8
vn 0.3827 -0.9239 0
vt 0.7345999 0
v 0.3444151 -0.831492 1.8
vn 0.3827 -0.9239 0
vt 0.7345999 2
v 0.1755811 -0.882706 1.8
vn 0.1951 -0.9808 0
vt 0.639 2
v 0.1755811 -0.882706 -1.8
vn 0.1951 -0.9808 0
vt 0.639 0
v -0.344415 -0.831492 1.8
vn -0.3827 -0.9239 0
vt 0.352 2
v -0.344415 -0.831492 -1.8
vn -0.3827 -0.9239 0
vt 0.352 0
v -0.748322 0.500013 -1.8
vn -0.8314 0.5556 0
vt 1.3157 0
v -0.748322 0.500013 1.8
vn -0.8314 0.5556 0
vt 1.3157 2
v -0.636396 0.6363961 1.8
vn -0.7071 0.7071 0
vt 1.3968 2
v -0.636396 0.6363961 -1.8
vn -0.7071 0.7071 0
vt 1.3968 0
v 0.6363961 0.6363961 -1.8
vn 0.7071 0.7071 0
vt 1.3968 0
v 0.6363961 0.6363961 1.8
vn 0.7071 0.7071 0
vt 1.3968 2
v 0.748322 0.500013 1.8
vn 0.8314 0.5556 0
vt 1.3157 2
v 0.748322 0.500013 -1.8
vn 0.8314 0.5556 0
vt 1.3157 0
v -0.500013 -0.748323 -1.8
vn -0.5556 -0.8314 0
vt 1.2708 0
v -0.500013 -0.748323 1.8
vn -0.5556 -0.8314 0
vt 1.2708 2
v -0.636396 -0.636396 1.8
vn -0.7071 -0.7071 0
vt 1.1897 2
v -0.636396 -0.636396 -1.8
vn -0.7071 -0.7071 0
vt 1.1897 0
v 0.6363961 0.6363961 1.8
vn 0.7071 0.7071 0
vt 0.8968 2
v 0.6363961 0.6363961 -1.8
vn 0.7071 0.7071 0
vt 0.8968 0
v 0 0.9 1.8
vn 0 1 0
vt 0.5433 2
v 0 0.9 -1.8
vn 0 1 0
vt 0.5433 0
v -0.344415 -0.831492 -1.8
vn -0.3827 -0.9239 0
vt 1.352 0
v -0.344415 -0.831492 1.8
vn -0.3827 -0.9239 0
vt 1.352 2
v 0 0.9 1.8
vn 0 1 0
vt 1.5433 2
v 0 0.9 -1.8
vn 0 1 0
vt 1.5433 0
v -0.636396 -0.636396 -1.8
vn -0.7071 -0.7071 0
vt 0.6897 0
v -0.636396 -0.636396 1.8
vn -0.7071 -0.7071 0
vt 0.6897 2
f 32/32/32 1/1/1 2/2/2
f 32/32/32 2/2/2 3/3/3
f 32/32/32 3/3/3 4/4/4
f 32/32/32 4/4/4 5/5/5
f 32/32/32 5/5/5 6/6/6
f 32/32/32 6/6/6 7/7/7
f 32/32/32 7/7/7 8/8/8
f 32/32/32 8/8/8 9/9/9
f 32/32/32 9/9/9 10/10/10
f 32/32/32 10/10/10 11/11/11
f 32/32/32 11/11/11 12/12/12
f 32/32/32 12/12/12 13/13/13
f 32/32/32 13/13/13 14/14/14
f 32/32/32 14/14/14 15/15/15
f 32/32/32 15/15/15 16/16/16
f 32/32/32 16/16/16 17/17/17
f 32/32/32 17/17/17 18/18/18
f 32/32/32 18/18/18 19/19/19
f 32/32/32 19/19/19 20/20/20
f 32/32/32 20/20/20 21/21/21
f 32/32/32 21/21/21 22/22/22
f 32/32/32 22/22/22 23/23/23
f 32/32/32 23/23/23 24/24/24
f 32/32/32 24/24/24 25/25/25
f 32/32/32 25/25/25 26/26/26
f 32/32/32 26/26/26 27/27/27
f 32/32/32 27/27/27 28/28/28
f 32/32/32 28/28/28 29/29/29
f 32/32/32 29/29/29 30/30/30
f 30/30/30 31/31/31 32/32/32
f 64/64/64 33/33/33 34/34/34
f 64/64/64 34/34/34 35/35/35
f 64/64/64 35/35/35 36/36/36
f 64/64/64 36/36/36 37/37/37
f 64/64/64 37/37/37 38/38/38
f 64/64/64 38/38/38 39/39/39
f 64/64/64 39/39/39 40/40/40
f 64/64/64 40/40/40 41/41/41
f 64/64/64 41/41/41 42/42/42
f 64/64/64 42/42/42 43/43/43
f 64/64/64 43/43/43 44/44/44
f 64/64/64 44/44/44 45/45/45
f 64/64/64 45/45/45 46/46/46
f 64/64/64 46/46/46 47/47/47
f 64/64/64 47/47/47 48/48/48
f 64/64/64 48/48/48 49/49/49
f 64/64/64 49/49/49 50/50/50
f 64/64/64 50/50/50 51/51/51
f 64/64/64 51/51/51 52/52/52
f 64/64/64 52/52/52 53/53/53
f 64/64/64 53/53/53 54/54/54
f 64/64/64 54/54/54 55/55/55
f 64/64/64 55/55/55 56/56/56
f 64/64/64 56/56/56 57/57/57
f 64/64/64 57/57/57 58/58/58
f 64/64/64 58/58/58 59/59/59
f 64/64/64 59/59/59 60/60/60
f 64/64/64 60/60/60 61/61/61
f 64/64/64 61/61/61 62/62/62
f 62/62/62 63/63/63 64/64/64
f 65/65/65 66/66/66 67/67/67
f 65/65/65 67/67/67 68/68/68
f 69/69/69 70/70/70 71/71/71
f 69/69/69 71/71/71 72/72/72
f 73/73/73 74/74/74 75/75/75
f 73/73/73 75/75/75 76/76/76
f 77/77/77 78/78/78 79/79/79
f 77/77/77 79/79/79 80/80/80
f 81/81/81 82/82/82 83/83/83
f 81/81/81 83/83/83 84/84/84
f 85/85/85 86/86/86 87/87/87
f 85/85/85 87/87/87 88/88/88
f 84/84/84 83/83/83 89/89/89
f 84/84/84 89/89/89 90/90/90
f 91/91/91 92/92/92 93/93/93
f 91/91/91 93/93/93 94/94/94
f 95/95/95 96/96/96 92/92/92
f 95/95/95 92/92/92 91/91/91
f 97/97/97 98/98/98 70/70/70
f 97/97/97 70/70/70 69/69/69
f 99/99/99 100/100/100 101/101/101
f 99/99/99 101/101/101 102/102/102
f 103/103/103 104/104/104 82/82/82
f 103/103/103 82/82/82 81/81/81
f 72/72/72 71/71/71 105/105/105
f 72/72/72 105/105/105 106/106/106
f 107/107/107 108/108/108 100/100/100
f 107/107/107 100/100/100 99/99/99
f 88/88/88 87/87/87 74/74/74
f 88/88/88 74/74/74 73/73/73
f 109/109/109 110/110/110 111/111/111
f 109/109/109 111/111/111 112/112/112
f 113/113/113 114/114/114 115/115/115
f 113/113/113 115/115/115 116/116/116
f 68/68/68 67/67/67 117/117/117
f 68/68/68 117/117/117 118/118/118
f 80/80/80 79/79/79 114/114/114
f 80/80/80 114/114/114 113/113/113
f 119/119/119 120/120/120 121/121/121
f 119/119/119 121/121/121 122/122/122
f 123/123/123 124/124/124 125/125/125
f 123/123/123 125/125/125 126/126/126
f 127/127/127 128/128/128 129/129/129
f 127/127/127 129/129/129 130/130/130
f 126/126/126 125/125/125 104/104/104
f 126/126/126 104/104/104 103/103/103
f 102/102/102 101/101/101 131/131/131
f 102/102/102 131/131/131 132/132/132
f 76/76/76 75/75/75 120/120/120
f 76/76/76 120/120/120 119/119/119
f 133/133/133 108/108/108 107/107/107
f 133/133/133 107/107/107 134/134/134
f 135/135/135 136/136/136 128/128/128
f 135/135/135 128/128/128 127/127/127
f 106/106/106 105/105/105 137/137/137
f 106/106/106 137/137/137 138/138/138
f 90/90/90 89/89/89 96/96/96
f 90/90/90 96/96/96 95/95/95
f 112/112/112 111/111/111 86/86/86
f 112/112/112 86/86/86 85/85/85
f 116/116/116 115/115/115 66/66/66
f 116/116/116 66/66/66 65/65/65
f 139/139/139 140/140/140 110/110/110
f 139/139/139 110/110/110 109/109/109
